  0
SECTION
  2
HEADER
  9
$ACADVER
  1
AC1014
  9
$HANDSEED
  5
FFFF
  9
$MEASUREMENT
 70
     1
  0
ENDSEC
  0
SECTION
  2
TABLES
  0
TABLE
  2
VPORT
  5
8
330
0
100
AcDbSymbolTable
 70
     4
  0
VPORT
  5
2E
330
8
100
AcDbSymbolTableRecord
100
AcDbViewportTableRecord
  2
*ACTIVE
 70
     0
 10
0.0
 20
0.0
 11
1.0
 21
1.0
 12
210.0
 22
148.5
 13
0.0
 23
0.0
 14
10.0
 24
10.0
 15
10.0
 25
10.0
 16
0.0
 26
0.0
 36
1.0
 17
0.0
 27
0.0
 37
0.0
 40
341.0
 41
1.24
 42
50.0
 43
0.0
 44
0.0
 50
0.0
 51
0.0
 71
     0
 72
   100
 73
     1
 74
     3
 75
     0
 76
     0
 77
     0
 78
     0
  0
ENDTAB
  0
TABLE
  2
LTYPE
  5
5
330
0
100
AcDbSymbolTable
 70
     1
  0
LTYPE
  5
14
330
5
100
AcDbSymbolTableRecord
100
AcDbLinetypeTableRecord
  2
BYBLOCK
 70
     0
  3

 72
    65
 73
     0
 40
0.0
  0
LTYPE
  5
15
330
5
100
AcDbSymbolTableRecord
100
AcDbLinetypeTableRecord
  2
BYLAYER
 70
     0
  3

 72
    65
 73
     0
 40
0.0
  0
LTYPE
  5
16
330
5
100
AcDbSymbolTableRecord
100
AcDbLinetypeTableRecord
  2
CONTINUOUS
 70
     0
  3
Solid line
 72
    65
 73
     0
 40
0.0
  0
ENDTAB
  0
TABLE
  2
LAYER
  5
2
100
AcDbSymbolTable
 70
1
  0
LAYER
  5
50
100
AcDbSymbolTableRecord
100
AcDbLayerTableRecord
  2
0
 70
0
  6
CONTINUOUS
  0
ENDTAB
  0
TABLE
  2
STYLE
  5
3
330
0
100
AcDbSymbolTable
 70
     1
  0
STYLE
  5
11
330
3
100
AcDbSymbolTableRecord
100
AcDbTextStyleTableRecord
  2
STANDARD
 70
     0
 40
0.0
 41
1.0
 50
0.0
 71
     0
 42
2.5
  3
txt
  4

  0
ENDTAB
  0
TABLE
  2
VIEW
  5
6
330
0
100
AcDbSymbolTable
 70
     0
  0
ENDTAB
  0
TABLE
  2
UCS
  5
7
330
0
100
AcDbSymbolTable
 70
     0
  0
ENDTAB
  0
TABLE
  2
APPID
  5
9
330
0
100
AcDbSymbolTable
 70
     2
  0
APPID
  5
12
330
9
100
AcDbSymbolTableRecord
100
AcDbRegAppTableRecord
  2
ACAD
 70
     0
  0
ENDTAB
  0
TABLE
  2
DIMSTYLE
  5
A
330
0
100
AcDbSymbolTable
 70
     1
  0
DIMSTYLE
105
27
330
A
100
AcDbSymbolTableRecord
100
AcDbDimStyleTableRecord
  2
ISO-25
 70
     0
  3

  4

  5

  6

  7

 40
1.0
 41
2.5
 42
0.625
 43
3.75
 44
1.25
 45
0.0
 46
0.0
 47
0.0
 48
0.0
140
2.5
141
2.5
142
0.0
143
0.03937007874016
144
1.0
145
0.0
146
1.0
147
0.625
 71
     0
 72
     0
 73
     0
 74
     0
 75
     0
 76
     0
 77
     1
 78
     8
170
     0
171
     3
172
     1
173
     0
174
     0
175
     0
176
     0
177
     0
178
     0
270
     2
271
     2
272
     2
273
     2
274
     3
340
11
275
     0
280
     0
281
     0
282
     0
283
     0
284
     8
285
     0
286
     0
287
     3
288
     0
  0
ENDTAB
  0
TABLE
  2
BLOCK_RECORD
  5
1
330
0
100
AcDbSymbolTable
 70
     1
  0
BLOCK_RECORD
  5
1F
330
1
100
AcDbSymbolTableRecord
100
AcDbBlockTableRecord
  2
*MODEL_SPACE
  0
BLOCK_RECORD
  5
1B
330
1
100
AcDbSymbolTableRecord
100
AcDbBlockTableRecord
  2
*PAPER_SPACE
  0
ENDTAB
  0
ENDSEC
  0
SECTION
  2
BLOCKS
  0
BLOCK
  5
20
330
1F
100
AcDbEntity
  8
0
100
AcDbBlockBegin
  2
*MODEL_SPACE
 70
     0
 10
0.0
 20
0.0
 30
0.0
  3
*MODEL_SPACE
  1

  0
ENDBLK
  5
21
330
1F
100
AcDbEntity
  8
0
100
AcDbBlockEnd
  0
BLOCK
  5
1C
330
1B
100
AcDbEntity
 67
     1
  8
0
100
AcDbBlockBegin
  2
*PAPER_SPACE
  1

  0
ENDBLK
  5
1D
330
1B
100
AcDbEntity
 67
     1
  8
0
100
AcDbBlockEnd
  0
ENDSEC
  0
SECTION
  2
ENTITIES
  0
LWPOLYLINE
  5
100
100
AcDbEntity
  8
0
 62
7
100
AcDbPolyline
 90
4
 70
1
 10
198.632233
 20
26.604146
 30
0.0
 10
217.170000
 20
26.604146
 30
0.0
 10
217.170000
 20
23.217480
 30
0.0
 10
198.632233
 20
23.217480
 30
0.0
  0
LWPOLYLINE
  5
101
100
AcDbEntity
  8
0
 62
7
100
AcDbPolyline
 90
13
 70
1
 10
202.027948
 20
35.635257
 30
0.0
 10
196.166768
 20
32.705802
 30
0.0
 10
196.092233
 20
24.373791
 30
0.0
 10
195.537768
 20
14.826990
 30
0.0
 10
184.059864
 20
12.571812
 30
0.0
 10
164.008257
 20
37.347729
 30
0.0
 10
168.332571
 20
37.232223
 30
0.0
 10
185.114652
 20
16.590656
 30
0.0
 10
192.631032
 20
16.833602
 30
0.0
 10
192.705567
 20
30.644054
 30
0.0
 10
199.039692
 20
38.985497
 30
0.0
 10
252.065553
 20
39.021924
 30
0.0
 10
252.254456
 20
35.635257
 30
0.0
  0
SPLINE
  5
102
100
AcDbEntity
  8
0
 62
7
100
AcDbSpline
 70
0
 71
3
 72
10
 73
6
 74
4
 40
0.000000
 40
0.000000
 40
0.000000
 40
0.000000
 40
2.358119
 40
4.731583
 40
7.191041
 40
7.191041
 40
7.191041
 40
7.191041
 10
239.838089
 20
10.643068
 30
0.0
 10
239.207276
 20
11.120162
 30
0.0
 10
237.941546
 20
12.077453
 30
0.0
 10
236.702770
 20
14.235077
 30
0.0
 10
236.536193
 20
15.849486
 30
0.0
 10
236.451422
 20
16.671053
 30
0.0
 11
239.838089
 21
10.643068
 31
0.0
 11
238.057580
 21
12.189197
 31
0.0
 11
236.878205
 21
14.248907
 31
0.0
 11
236.451422
 21
16.671053
 31
0.0
  0
LWPOLYLINE
  5
103
100
AcDbEntity
  8
0
 62
7
100
AcDbPolyline
 90
5
 70
0
 10
236.451422
 20
16.671053
 30
0.0
 10
236.451422
 20
32.969386
 30
0.0
 10
239.838089
 20
32.969386
 30
0.0
 10
239.838089
 20
10.643915
 30
0.0
 10
239.838089
 20
10.643068
 30
0.0
  0
LWPOLYLINE
  5
104
100
AcDbEntity
  8
0
 62
7
100
AcDbPolyline
 90
5
 70
0
 10
204.641873
 20
10.518044
 30
0.0
 10
221.903713
 20
10.518044
 30
0.0
 10
221.903713
 20
13.904711
 30
0.0
 10
198.614453
 20
13.904711
 30
0.0
 10
198.613889
 20
13.904711
 30
0.0
  0
LWPOLYLINE
  5
105
100
AcDbEntity
  8
0
 62
7
100
AcDbPolyline
 90
4
 70
1
 10
152.912233
 20
23.499702
 30
0.0
 10
161.431111
 20
23.499702
 30
0.0
 10
164.253333
 20
20.113035
 30
0.0
 10
152.912233
 20
20.113035
 30
0.0
  0
SPLINE
  5
106
100
AcDbEntity
  8
0
 62
7
100
AcDbSpline
 70
0
 71
3
 72
10
 73
6
 74
4
 40
0.000000
 40
0.000000
 40
0.000000
 40
0.000000
 40
2.358119
 40
4.731583
 40
7.191041
 40
7.191041
 40
7.191041
 40
7.191041
 10
198.613889
 20
13.904711
 30
0.0
 10
199.090982
 20
13.273898
 30
0.0
 10
200.048273
 20
12.008167
 30
0.0
 10
202.205898
 20
10.769392
 30
0.0
 10
203.820306
 20
10.602815
 30
0.0
 10
204.641873
 20
10.518044
 30
0.0
 11
198.613889
 21
13.904711
 31
0.0
 11
200.160017
 21
12.124202
 31
0.0
 11
202.219727
 21
10.944827
 31
0.0
 11
204.641873
 21
10.518044
 31
0.0
  0
LWPOLYLINE
  5
107
100
AcDbEntity
  8
0
 62
7
100
AcDbPolyline
 90
48
 70
1
 10
179.244131
 20
10.578440
 30
0.0
 10
158.356582
 20
36.454266
 30
0.0
 10
152.912516
 20
39.021924
 30
0.0
 10
129.246771
 20
39.021924
 30
0.0
 10
103.523344
 20
39.021924
 30
0.0
 10
97.495924
 20
35.635257
 30
0.0
 10
96.467789
 20
31.966368
 30
0.0
 10
101.880529
 20
25.103006
 30
0.0
 10
118.489024
 20
21.141735
 30
0.0
 10
121.303627
 20
17.572753
 30
0.0
 10
117.634738
 20
13.903864
 30
0.0
 10
78.740000
 20
13.903864
 30
0.0
 10
72.248889
 20
20.394975
 30
0.0
 10
72.248889
 20
31.966368
 30
0.0
 10
65.193333
 20
39.021924
 30
0.0
 10
15.804444
 20
39.021924
 30
0.0
 10
9.777024
 20
35.635257
 30
0.0
 10
8.748889
 20
31.966368
 30
0.0
 10
14.161629
 20
25.103006
 30
0.0
 10
30.770124
 20
21.141735
 30
0.0
 10
33.584444
 20
17.573035
 30
0.0
 10
29.915556
 20
13.904146
 30
0.0
 10
8.083691
 20
13.904146
 30
0.0
 10
8.083973
 20
13.903300
 30
0.0
 10
14.111111
 20
10.517480
 30
0.0
 10
29.915556
 20
10.517480
 30
0.0
 10
35.942976
 20
13.904146
 30
0.0
 10
36.971111
 20
17.573035
 30
0.0
 10
31.558371
 20
24.436397
 30
0.0
 10
14.950158
 20
28.397386
 30
0.0
 10
12.135556
 20
31.966368
 30
0.0
 10
15.804444
 20
35.635257
 30
0.0
 10
65.193333
 20
35.635257
 30
0.0
 10
68.862222
 20
31.966368
 30
0.0
 10
68.862222
 20
20.395257
 30
0.0
 10
72.248889
 20
12.953057
 30
0.0
 10
78.740000
 20
10.517480
 30
0.0
 10
117.634456
 20
10.517480
 30
0.0
 10
123.661876
 20
13.904146
 30
0.0
 10
124.690011
 20
17.573035
 30
0.0
 10
119.277271
 20
24.436397
 30
0.0
 10
102.668776
 20
28.397668
 30
0.0
 10
99.854173
 20
31.966651
 30
0.0
 10
103.523062
 20
35.635540
 30
0.0
 10
152.912233
 20
35.635540
 30
0.0
 10
155.768322
 20
34.268455
 30
0.0
 10
172.818778
 20
13.144686
 30
0.0
 10
178.311951
 20
10.517762
 30
0.0
  0
SPLINE
  5
108
100
AcDbEntity
  8
0
 62
7
100
AcDbSpline
 70
0
 71
3
 72
10
 73
6
 74
4
 40
0.000000
 40
0.000000
 40
0.000000
 40
0.000000
 40
2.358213
 40
4.731646
 40
7.191094
 40
7.191094
 40
7.191094
 40
7.191094
 10
52.775556
 20
10.643068
 30
0.0
 10
52.144690
 20
11.120151
 30
0.0
 10
50.878887
 20
12.077395
 30
0.0
 10
49.640177
 20
14.235094
 30
0.0
 10
49.473640
 20
15.849489
 30
0.0
 10
49.388889
 20
16.671053
 30
0.0
 11
52.775556
 21
10.643068
 31
0.0
 11
50.994921
 21
12.189197
 31
0.0
 11
49.815609
 21
14.248907
 31
0.0
 11
49.388889
 21
16.671053
 31
0.0
  0
LWPOLYLINE
  5
109
100
AcDbEntity
  8
0
 62
7
100
AcDbPolyline
 90
5
 70
0
 10
49.388889
 20
16.671053
 30
0.0
 10
49.388889
 20
32.969386
 30
0.0
 10
52.775556
 20
32.969386
 30
0.0
 10
52.775556
 20
10.643915
 30
0.0
 10
52.775556
 20
10.643068
 30
0.0
  0
SPLINE
  5
10a
100
AcDbEntity
  8
0
 62
7
100
AcDbSpline
 70
0
 71
3
 72
10
 73
6
 74
4
 40
0.000000
 40
0.000000
 40
0.000000
 40
0.000000
 40
2.358119
 40
4.731583
 40
7.191041
 40
7.191041
 40
7.191041
 40
7.191041
 10
140.495867
 20
10.643633
 30
0.0
 10
139.865054
 20
11.120726
 30
0.0
 10
138.599323
 20
12.078017
 30
0.0
 10
137.360548
 20
14.235642
 30
0.0
 10
137.193971
 20
15.850050
 30
0.0
 10
137.109200
 20
16.671617
 30
0.0
 11
140.495867
 21
10.643633
 31
0.0
 11
138.715358
 21
12.189761
 31
0.0
 11
137.535983
 21
14.249471
 31
0.0
 11
137.109200
 21
16.671617
 31
0.0
  0
LWPOLYLINE
  5
10b
100
AcDbEntity
  8
0
 62
7
100
AcDbPolyline
 90
5
 70
0
 10
137.109200
 20
16.671617
 30
0.0
 10
137.109200
 20
32.969951
 30
0.0
 10
140.495867
 20
32.969951
 30
0.0
 10
140.495867
 20
10.644480
 30
0.0
 10
140.495867
 20
10.643633
 30
0.0
  0
SPLINE
  5
10c
100
AcDbEntity
  8
0
 62
7
100
AcDbSpline
 70
0
 71
3
 72
10
 73
6
 74
4
 40
0.000000
 40
0.000000
 40
0.000000
 40
0.000000
 40
2.358119
 40
4.731583
 40
7.191041
 40
7.191041
 40
7.191041
 40
7.191041
 10
87.458127
 20
38.792477
 30
0.0
 10
88.088939
 20
38.315384
 30
0.0
 10
89.354670
 20
37.358093
 30
0.0
 10
90.593446
 20
35.200469
 30
0.0
 10
90.760023
 20
33.586060
 30
0.0
 10
90.844793
 20
32.764493
 30
0.0
 11
87.458127
 21
38.792477
 31
0.0
 11
89.238635
 21
37.246349
 31
0.0
 11
90.418011
 21
35.186639
 31
0.0
 11
90.844793
 21
32.764493
 31
0.0
  0
LWPOLYLINE
  5
10d
100
AcDbEntity
  8
0
 62
7
100
AcDbPolyline
 90
5
 70
0
 10
90.844793
 20
32.764493
 30
0.0
 10
90.844793
 20
16.466160
 30
0.0
 10
87.458127
 20
16.466160
 30
0.0
 10
87.458127
 20
38.791631
 30
0.0
 10
87.458127
 20
38.792477
 30
0.0
  0
ENDSEC
  0
SECTION
  2
OBJECTS
  0
DICTIONARY
  5
C
330
0
100
AcDbDictionary
  3
ACAD_GROUP
350
D
  3
ACAD_MLINESTYLE
350
17
  0
DICTIONARY
  5
D
330
C
100
AcDbDictionary
  0
DICTIONARY
  5
1A
330
C
100
AcDbDictionary
  0
DICTIONARY
  5
17
330
C
100
AcDbDictionary
  3
STANDARD
350
18
  0
DICTIONARY
  5
19
330
C
100
AcDbDictionary
  0
ENDSEC
  0
EOF
