G04 #@! TF.FileFunction,Copper,L1,Top,Signal*
%FSLAX46Y46*%
G04 Gerber Fmt 4.6, Leading zero omitted, Abs format (unit mm)*
G04 Created by KiCad (PCBNEW 4.0.7) date Wed Oct 25 19:06:34 2017*
%MOMM*%
%LPD*%
G01*
G04 APERTURE LIST*
%ADD10C,0.100000*%
%ADD11R,2.500000X1.200000*%
%ADD12C,1.600000*%
%ADD13R,2.000000X2.000000*%
%ADD14C,2.000000*%
%ADD15R,2.400000X2.400000*%
%ADD16C,2.400000*%
%ADD17R,1.060000X0.650000*%
%ADD18R,1.700000X1.700000*%
%ADD19O,1.700000X1.700000*%
%ADD20O,1.600000X1.600000*%
%ADD21R,1.600000X1.600000*%
%ADD22R,1.300000X0.700000*%
%ADD23C,0.600000*%
%ADD24C,0.250000*%
%ADD25C,0.500000*%
G04 APERTURE END LIST*
D10*
D11*
X63940000Y-46630000D03*
X63940000Y-48630000D03*
X63940000Y-50630000D03*
X63940000Y-52630000D03*
X63940000Y-54630000D03*
X63940000Y-56630000D03*
X63940000Y-58630000D03*
X79940000Y-58630000D03*
X79940000Y-56630000D03*
X79940000Y-54630000D03*
X79940000Y-52630000D03*
X79940000Y-50630000D03*
X79940000Y-48630000D03*
X79940000Y-46630000D03*
X79940000Y-44630000D03*
D12*
X23450000Y-31150000D03*
X23450000Y-33650000D03*
D13*
X30750000Y-23650000D03*
D14*
X30750000Y-28650000D03*
X23450000Y-37800000D03*
X23450000Y-42800000D03*
D15*
X32750000Y-63300000D03*
D16*
X32750000Y-68300000D03*
D15*
X24450000Y-52300000D03*
D16*
X24450000Y-57300000D03*
D12*
X81650000Y-35300000D03*
X81650000Y-37800000D03*
D13*
X74750000Y-34100000D03*
D14*
X74750000Y-39100000D03*
D12*
X74900000Y-25150000D03*
X74900000Y-22650000D03*
X71150000Y-25150000D03*
X71150000Y-22650000D03*
D17*
X86800000Y-26800000D03*
X86800000Y-25850000D03*
X86800000Y-24900000D03*
X84600000Y-24900000D03*
X84600000Y-26800000D03*
D18*
X29200000Y-37800000D03*
D19*
X29200000Y-40340000D03*
X29200000Y-42880000D03*
X29200000Y-45420000D03*
D12*
X33850000Y-51000000D03*
D20*
X33850000Y-38300000D03*
D12*
X88850000Y-43500000D03*
D20*
X88850000Y-30800000D03*
D12*
X88850000Y-58700000D03*
D20*
X88850000Y-46000000D03*
D12*
X92750000Y-43500000D03*
D20*
X92750000Y-30800000D03*
D12*
X92750000Y-58700000D03*
D20*
X92750000Y-46000000D03*
D15*
X62550000Y-66500000D03*
D16*
X67550000Y-66500000D03*
X72550000Y-66500000D03*
D15*
X78850000Y-66500000D03*
D16*
X83850000Y-66500000D03*
X88850000Y-66500000D03*
D21*
X42050000Y-22550000D03*
D20*
X57290000Y-70810000D03*
X42050000Y-25090000D03*
X57290000Y-68270000D03*
X42050000Y-27630000D03*
X57290000Y-65730000D03*
X42050000Y-30170000D03*
X57290000Y-63190000D03*
X42050000Y-32710000D03*
X57290000Y-60650000D03*
X42050000Y-35250000D03*
X57290000Y-58110000D03*
X42050000Y-37790000D03*
X57290000Y-55570000D03*
X42050000Y-40330000D03*
X57290000Y-53030000D03*
X42050000Y-42870000D03*
X57290000Y-50490000D03*
X42050000Y-45410000D03*
X57290000Y-47950000D03*
X42050000Y-47950000D03*
X57290000Y-45410000D03*
X42050000Y-50490000D03*
X57290000Y-42870000D03*
X42050000Y-53030000D03*
X57290000Y-40330000D03*
X42050000Y-55570000D03*
X57290000Y-37790000D03*
X42050000Y-58110000D03*
X57290000Y-35250000D03*
X42050000Y-60650000D03*
X57290000Y-32710000D03*
X42050000Y-63190000D03*
X57290000Y-30170000D03*
X42050000Y-65730000D03*
X57290000Y-27630000D03*
X42050000Y-68270000D03*
X57290000Y-25090000D03*
X42050000Y-70810000D03*
X57290000Y-22550000D03*
D22*
X79950000Y-27800000D03*
X79950000Y-25900000D03*
X79950000Y-24050000D03*
X79950000Y-22150000D03*
D18*
X37950000Y-58050000D03*
D19*
X37950000Y-55510000D03*
X37950000Y-52970000D03*
X37950000Y-50430000D03*
X37950000Y-47890000D03*
X37950000Y-45350000D03*
X37950000Y-42810000D03*
X37950000Y-40270000D03*
X37950000Y-37730000D03*
X37950000Y-35190000D03*
X37950000Y-32650000D03*
X37950000Y-30110000D03*
X37950000Y-27570000D03*
X37950000Y-25030000D03*
X37950000Y-22490000D03*
D18*
X60450000Y-25100000D03*
D19*
X60450000Y-27640000D03*
X60450000Y-30180000D03*
X60450000Y-32720000D03*
X60450000Y-35260000D03*
D23*
X54050000Y-23700000D03*
X54950000Y-46700000D03*
X66950000Y-59500000D03*
X85550000Y-23400000D03*
X83950000Y-21300000D03*
X52650000Y-20500000D03*
X82150000Y-29300000D03*
X61050000Y-50500000D03*
X77450000Y-49300000D03*
X82150000Y-52600000D03*
X82150000Y-50500000D03*
X82150000Y-48600000D03*
D24*
X30750000Y-23650000D02*
X32100000Y-23650000D01*
D25*
X54050000Y-23700000D02*
X44500000Y-23700000D01*
D24*
X44400000Y-23800000D02*
X44500000Y-23700000D01*
X32250000Y-23800000D02*
X44400000Y-23800000D01*
X32100000Y-23650000D02*
X32250000Y-23800000D01*
D25*
X60450000Y-27640000D02*
X57300000Y-27640000D01*
X57300000Y-27640000D02*
X57290000Y-27630000D01*
D24*
X63940000Y-48630000D02*
X60680000Y-48630000D01*
X58750000Y-46700000D02*
X54950000Y-46700000D01*
X60680000Y-48630000D02*
X58750000Y-46700000D01*
X29200000Y-40340000D02*
X31810000Y-40340000D01*
X31810000Y-40340000D02*
X33850000Y-38300000D01*
X30750000Y-28650000D02*
X31750000Y-28650000D01*
X31750000Y-28650000D02*
X31950000Y-28850000D01*
X31950000Y-28850000D02*
X45550000Y-28850000D01*
X45550000Y-28850000D02*
X45300000Y-28850000D01*
X45300000Y-28850000D02*
X45550000Y-28850000D01*
D25*
X32750000Y-68300000D02*
X42020000Y-68300000D01*
X42020000Y-68300000D02*
X42050000Y-68270000D01*
X24450000Y-57300000D02*
X24450000Y-60000000D01*
X24450000Y-60000000D02*
X32750000Y-68300000D01*
X23450000Y-42800000D02*
X23450000Y-46750000D01*
X27550000Y-54200000D02*
X24450000Y-57300000D01*
X27550000Y-50850000D02*
X27550000Y-54200000D01*
X23450000Y-46750000D02*
X27550000Y-50850000D01*
X29200000Y-40340000D02*
X25910000Y-40340000D01*
X25910000Y-40340000D02*
X23450000Y-42800000D01*
X57290000Y-25090000D02*
X60440000Y-25090000D01*
X60440000Y-25090000D02*
X60450000Y-25100000D01*
X71470000Y-39100000D02*
X65050000Y-39100000D01*
X63150000Y-37200000D02*
X63150000Y-22550000D01*
X65050000Y-39100000D02*
X63150000Y-37200000D01*
X74750000Y-39100000D02*
X71470000Y-39100000D01*
X71470000Y-39100000D02*
X63940000Y-46630000D01*
X81650000Y-37800000D02*
X81650000Y-42920000D01*
X81650000Y-42920000D02*
X79940000Y-44630000D01*
X64450000Y-22550000D02*
X63150000Y-22550000D01*
X63150000Y-22550000D02*
X57290000Y-22550000D01*
D24*
X87500000Y-25850000D02*
X86800000Y-25850000D01*
X88150000Y-25200000D02*
X87500000Y-25850000D01*
X88150000Y-23900000D02*
X88150000Y-25200000D01*
X74900000Y-22650000D02*
X79450000Y-22650000D01*
X79450000Y-22650000D02*
X79950000Y-22150000D01*
X79950000Y-22150000D02*
X86400000Y-22150000D01*
X86400000Y-22150000D02*
X88150000Y-23900000D01*
D25*
X79940000Y-58630000D02*
X66950000Y-58630000D01*
X66950000Y-58630000D02*
X66950000Y-58600000D01*
X63940000Y-46630000D02*
X65380000Y-46630000D01*
X65380000Y-46630000D02*
X66950000Y-48200000D01*
X66950000Y-48200000D02*
X66950000Y-58600000D01*
X66950000Y-58600000D02*
X66950000Y-59500000D01*
X72550000Y-66500000D02*
X72550000Y-67700000D01*
X72550000Y-67700000D02*
X74350000Y-69500000D01*
X87050000Y-69500000D02*
X88850000Y-67700000D01*
X74350000Y-69500000D02*
X87050000Y-69500000D01*
X88850000Y-67700000D02*
X88850000Y-66500000D01*
X74750000Y-39100000D02*
X80350000Y-39100000D01*
X80350000Y-39100000D02*
X81650000Y-37800000D01*
X71150000Y-22650000D02*
X74900000Y-22650000D01*
X64390000Y-22550000D02*
X64450000Y-22550000D01*
X64450000Y-22550000D02*
X71050000Y-22550000D01*
X71050000Y-22550000D02*
X71150000Y-22650000D01*
D24*
X45550000Y-28900000D02*
X45450000Y-28900000D01*
X45450000Y-28900000D02*
X45550000Y-28900000D01*
D25*
X24450000Y-57300000D02*
X24050000Y-57300000D01*
X24450000Y-57300000D02*
X24150000Y-57300000D01*
X32780000Y-68270000D02*
X32750000Y-68300000D01*
X42050000Y-68270000D02*
X43080000Y-68270000D01*
X43080000Y-68270000D02*
X44800000Y-66550000D01*
X44800000Y-66550000D02*
X45550000Y-65800000D01*
X45550000Y-65800000D02*
X45550000Y-28900000D01*
X45550000Y-27050000D02*
X47510000Y-25090000D01*
X47510000Y-25090000D02*
X57290000Y-25090000D01*
X45550000Y-28900000D02*
X45550000Y-28850000D01*
X45550000Y-28850000D02*
X45550000Y-27050000D01*
X57290000Y-25090000D02*
X57290000Y-22550000D01*
X23450000Y-37800000D02*
X29200000Y-37800000D01*
X52650000Y-20500000D02*
X59750000Y-20500000D01*
X59750000Y-20500000D02*
X83950000Y-20500000D01*
D24*
X86800000Y-24900000D02*
X86800000Y-24650000D01*
X86800000Y-24650000D02*
X85550000Y-23400000D01*
X83950000Y-21300000D02*
X83950000Y-20500000D01*
X83950000Y-20500000D02*
X83950000Y-20600000D01*
X83950000Y-20600000D02*
X83950000Y-20500000D01*
D25*
X83950000Y-20500000D02*
X86950000Y-20500000D01*
X88450000Y-26800000D02*
X86800000Y-26800000D01*
X89750000Y-25500000D02*
X88450000Y-26800000D01*
X89750000Y-23300000D02*
X89750000Y-25500000D01*
X86950000Y-20500000D02*
X89750000Y-23300000D01*
X86800000Y-26800000D02*
X86900000Y-26800000D01*
X84600000Y-26800000D02*
X84600000Y-35300000D01*
X84600000Y-35300000D02*
X84650000Y-35300000D01*
X88850000Y-46000000D02*
X88050000Y-46000000D01*
X88050000Y-46000000D02*
X86450000Y-44400000D01*
X86450000Y-44400000D02*
X86450000Y-36500000D01*
X86450000Y-36500000D02*
X85250000Y-35300000D01*
X85250000Y-35300000D02*
X84650000Y-35300000D01*
X84650000Y-35300000D02*
X81650000Y-35300000D01*
D24*
X83600000Y-27800000D02*
X84600000Y-26800000D01*
D25*
X81800000Y-35150000D02*
X81650000Y-35300000D01*
X92750000Y-46000000D02*
X88850000Y-46000000D01*
D24*
X79950000Y-27800000D02*
X83600000Y-27800000D01*
D25*
X81800000Y-35150000D02*
X81650000Y-35300000D01*
X74750000Y-34100000D02*
X80450000Y-34100000D01*
X80450000Y-34100000D02*
X81650000Y-35300000D01*
D24*
X71150000Y-25150000D02*
X71150000Y-26700000D01*
X73750000Y-29300000D02*
X82150000Y-29300000D01*
X71150000Y-26700000D02*
X73750000Y-29300000D01*
X29200000Y-42880000D02*
X32595000Y-42880000D01*
X40850000Y-36450000D02*
X42050000Y-35250000D01*
X36700000Y-36450000D02*
X40850000Y-36450000D01*
X36150000Y-37000000D02*
X36700000Y-36450000D01*
X36150000Y-39325000D02*
X36150000Y-37000000D01*
X32595000Y-42880000D02*
X36150000Y-39325000D01*
X33850000Y-51000000D02*
X33850000Y-50070000D01*
X33850000Y-50070000D02*
X29200000Y-45420000D01*
X29200000Y-45420000D02*
X32280000Y-45420000D01*
X40275000Y-39565000D02*
X42050000Y-37790000D01*
X40275000Y-40575000D02*
X40275000Y-39565000D01*
X39325000Y-41525000D02*
X40275000Y-40575000D01*
X36175000Y-41525000D02*
X39325000Y-41525000D01*
X32280000Y-45420000D02*
X36175000Y-41525000D01*
X63940000Y-50630000D02*
X61180000Y-50630000D01*
X61180000Y-50630000D02*
X61050000Y-50500000D01*
X57290000Y-60650000D02*
X58900000Y-60650000D01*
X60920000Y-58630000D02*
X63940000Y-58630000D01*
X58900000Y-60650000D02*
X60920000Y-58630000D01*
X57290000Y-58110000D02*
X59440000Y-58110000D01*
X60920000Y-56630000D02*
X63940000Y-56630000D01*
X59440000Y-58110000D02*
X60920000Y-56630000D01*
X57290000Y-55570000D02*
X59980000Y-55570000D01*
X60920000Y-54630000D02*
X63940000Y-54630000D01*
X59980000Y-55570000D02*
X60920000Y-54630000D01*
X57290000Y-53030000D02*
X60920000Y-53030000D01*
X61320000Y-52630000D02*
X63940000Y-52630000D01*
X60920000Y-53030000D02*
X61320000Y-52630000D01*
X79940000Y-46630000D02*
X77780000Y-46630000D01*
X77450000Y-46960000D02*
X77450000Y-49300000D01*
X77780000Y-46630000D02*
X77450000Y-46960000D01*
X79940000Y-52630000D02*
X82120000Y-52630000D01*
X82120000Y-52630000D02*
X82150000Y-52600000D01*
X79940000Y-50630000D02*
X82020000Y-50630000D01*
X82020000Y-50630000D02*
X82150000Y-50500000D01*
X79940000Y-48630000D02*
X82120000Y-48630000D01*
X82120000Y-48630000D02*
X82150000Y-48600000D01*
X84600000Y-24900000D02*
X79950000Y-24900000D01*
X79950000Y-24900000D02*
X79950000Y-25100000D01*
X84500000Y-24800000D02*
X84600000Y-24900000D01*
X79950000Y-24050000D02*
X79950000Y-25100000D01*
X79950000Y-25100000D02*
X79950000Y-25900000D01*
D25*
X62550000Y-66500000D02*
X62550000Y-65200000D01*
X85950000Y-61600000D02*
X88850000Y-58700000D01*
X66150000Y-61600000D02*
X85950000Y-61600000D01*
X62550000Y-65200000D02*
X66150000Y-61600000D01*
X78850000Y-66500000D02*
X78850000Y-65100000D01*
X92750000Y-61100000D02*
X92750000Y-58700000D01*
X90450000Y-63400000D02*
X92750000Y-61100000D01*
X80550000Y-63400000D02*
X90450000Y-63400000D01*
X78850000Y-65100000D02*
X80550000Y-63400000D01*
X57290000Y-30170000D02*
X60440000Y-30170000D01*
X60440000Y-30170000D02*
X60450000Y-30180000D01*
X57290000Y-35250000D02*
X60440000Y-35250000D01*
X60440000Y-35250000D02*
X60450000Y-35260000D01*
X60450000Y-32720000D02*
X57300000Y-32720000D01*
X57300000Y-32720000D02*
X57290000Y-32710000D01*
X57320000Y-32740000D02*
X57290000Y-32710000D01*
M02*
