M48
INCH,TZ
T1C0.016
T2C0.031
T3C0.039
T4C0.047
T5C0.058
T6C0.126
%
G90
G05
T1
X20728Y-8071
X21280Y-9331
X21634Y-18386
X24035Y-19882
X26358Y-23425
X30492Y-19409
X32343Y-11535
X32343Y-19134
X32343Y-19882
X32343Y-20709
X33051Y-8386
X33681Y-9213
T2
X9232Y-12264
X9232Y-13248
X13327Y-15079
X13327Y-20079
X16555Y-8878
X16555Y-9878
X16555Y-10878
X16555Y-11878
X16555Y-12878
X16555Y-13878
X16555Y-14878
X16555Y-15878
X16555Y-16878
X16555Y-17878
X16555Y-18878
X16555Y-19878
X16555Y-20878
X16555Y-21878
X16555Y-22878
X16555Y-23878
X16555Y-24878
X16555Y-25878
X16555Y-26878
X16555Y-27878
X22555Y-8878
X22555Y-9878
X22555Y-10878
X22555Y-11878
X22555Y-12878
X22555Y-13878
X22555Y-14878
X22555Y-15878
X22555Y-16878
X22555Y-17878
X22555Y-18878
X22555Y-19878
X22555Y-20878
X22555Y-21878
X22555Y-22878
X22555Y-23878
X22555Y-24878
X22555Y-25878
X22555Y-26878
X22555Y-27878
X28012Y-8917
X28012Y-9902
X29488Y-8917
X29488Y-9902
X32146Y-13898
X32146Y-14882
X34980Y-12126
X34980Y-17126
X34980Y-18110
X34980Y-23110
X36516Y-12126
X36516Y-17126
X36516Y-18110
X36516Y-23110
T3
X9232Y-14882
X9232Y-16850
X11496Y-14882
X11496Y-15882
X11496Y-16882
X11496Y-17882
X12106Y-9311
X12106Y-11280
X14941Y-8854
X14941Y-9854
X14941Y-10854
X14941Y-11854
X14941Y-12854
X14941Y-13854
X14941Y-14854
X14941Y-15854
X14941Y-16854
X14941Y-17854
X14941Y-18854
X14941Y-19854
X14941Y-20854
X14941Y-21854
X14941Y-22854
X23799Y-9882
X23799Y-10882
X23799Y-11882
X23799Y-12882
X23799Y-13882
X29429Y-13425
X29429Y-15394
T4
X9626Y-20591
X9626Y-22559
X12894Y-24921
X12894Y-26890
T5
X24626Y-26181
X26594Y-26181
X28563Y-26181
X31043Y-26181
X33012Y-26181
X34980Y-26181
T6
X8406Y-26220
X8445Y-9488
X37549Y-26220
X37579Y-9488
T0
M30
