G04 #@! TF.FileFunction,Copper,L2,Bot,Signal*
%FSLAX46Y46*%
G04 Gerber Fmt 4.6, Leading zero omitted, Abs format (unit mm)*
G04 Created by KiCad (PCBNEW 4.0.7) date Wed Oct 25 19:06:34 2017*
%MOMM*%
%LPD*%
G01*
G04 APERTURE LIST*
%ADD10C,0.100000*%
%ADD11C,1.600000*%
%ADD12R,2.000000X2.000000*%
%ADD13C,2.000000*%
%ADD14R,2.400000X2.400000*%
%ADD15C,2.400000*%
%ADD16R,1.700000X1.700000*%
%ADD17O,1.700000X1.700000*%
%ADD18O,1.600000X1.600000*%
%ADD19R,1.600000X1.600000*%
%ADD20C,0.600000*%
%ADD21C,0.500000*%
%ADD22C,0.250000*%
G04 APERTURE END LIST*
D10*
D11*
X23450000Y-31150000D03*
X23450000Y-33650000D03*
D12*
X30750000Y-23650000D03*
D13*
X30750000Y-28650000D03*
X23450000Y-37800000D03*
X23450000Y-42800000D03*
D14*
X32750000Y-63300000D03*
D15*
X32750000Y-68300000D03*
D14*
X24450000Y-52300000D03*
D15*
X24450000Y-57300000D03*
D11*
X81650000Y-35300000D03*
X81650000Y-37800000D03*
D12*
X74750000Y-34100000D03*
D13*
X74750000Y-39100000D03*
D11*
X74900000Y-25150000D03*
X74900000Y-22650000D03*
X71150000Y-25150000D03*
X71150000Y-22650000D03*
D16*
X29200000Y-37800000D03*
D17*
X29200000Y-40340000D03*
X29200000Y-42880000D03*
X29200000Y-45420000D03*
D11*
X33850000Y-51000000D03*
D18*
X33850000Y-38300000D03*
D11*
X88850000Y-43500000D03*
D18*
X88850000Y-30800000D03*
D11*
X88850000Y-58700000D03*
D18*
X88850000Y-46000000D03*
D11*
X92750000Y-43500000D03*
D18*
X92750000Y-30800000D03*
D11*
X92750000Y-58700000D03*
D18*
X92750000Y-46000000D03*
D14*
X62550000Y-66500000D03*
D15*
X67550000Y-66500000D03*
X72550000Y-66500000D03*
D14*
X78850000Y-66500000D03*
D15*
X83850000Y-66500000D03*
X88850000Y-66500000D03*
D19*
X42050000Y-22550000D03*
D18*
X57290000Y-70810000D03*
X42050000Y-25090000D03*
X57290000Y-68270000D03*
X42050000Y-27630000D03*
X57290000Y-65730000D03*
X42050000Y-30170000D03*
X57290000Y-63190000D03*
X42050000Y-32710000D03*
X57290000Y-60650000D03*
X42050000Y-35250000D03*
X57290000Y-58110000D03*
X42050000Y-37790000D03*
X57290000Y-55570000D03*
X42050000Y-40330000D03*
X57290000Y-53030000D03*
X42050000Y-42870000D03*
X57290000Y-50490000D03*
X42050000Y-45410000D03*
X57290000Y-47950000D03*
X42050000Y-47950000D03*
X57290000Y-45410000D03*
X42050000Y-50490000D03*
X57290000Y-42870000D03*
X42050000Y-53030000D03*
X57290000Y-40330000D03*
X42050000Y-55570000D03*
X57290000Y-37790000D03*
X42050000Y-58110000D03*
X57290000Y-35250000D03*
X42050000Y-60650000D03*
X57290000Y-32710000D03*
X42050000Y-63190000D03*
X57290000Y-30170000D03*
X42050000Y-65730000D03*
X57290000Y-27630000D03*
X42050000Y-68270000D03*
X57290000Y-25090000D03*
X42050000Y-70810000D03*
X57290000Y-22550000D03*
D16*
X37950000Y-58050000D03*
D17*
X37950000Y-55510000D03*
X37950000Y-52970000D03*
X37950000Y-50430000D03*
X37950000Y-47890000D03*
X37950000Y-45350000D03*
X37950000Y-42810000D03*
X37950000Y-40270000D03*
X37950000Y-37730000D03*
X37950000Y-35190000D03*
X37950000Y-32650000D03*
X37950000Y-30110000D03*
X37950000Y-27570000D03*
X37950000Y-25030000D03*
X37950000Y-22490000D03*
D16*
X60450000Y-25100000D03*
D17*
X60450000Y-27640000D03*
X60450000Y-30180000D03*
X60450000Y-32720000D03*
X60450000Y-35260000D03*
D20*
X54050000Y-23700000D03*
X54950000Y-46700000D03*
X66950000Y-59500000D03*
X85550000Y-23400000D03*
X83950000Y-21300000D03*
X52650000Y-20500000D03*
X82150000Y-29300000D03*
X61050000Y-50500000D03*
X77450000Y-49300000D03*
X82150000Y-52600000D03*
X82150000Y-50500000D03*
X82150000Y-48600000D03*
D21*
X55280000Y-27630000D02*
X54050000Y-26400000D01*
X54050000Y-26400000D02*
X54050000Y-23700000D01*
X55280000Y-27630000D02*
X57290000Y-27630000D01*
X23450000Y-31150000D02*
X23450000Y-30950000D01*
X23450000Y-30950000D02*
X30750000Y-23650000D01*
D22*
X54950000Y-46700000D02*
X54050000Y-46700000D01*
X54050000Y-46700000D02*
X54150000Y-46700000D01*
X54150000Y-46700000D02*
X54050000Y-46700000D01*
D21*
X42050000Y-70810000D02*
X51790000Y-70810000D01*
X51790000Y-70810000D02*
X54050000Y-68550000D01*
X54050000Y-68550000D02*
X54050000Y-46700000D01*
X54050000Y-46700000D02*
X54050000Y-28550000D01*
X54970000Y-27630000D02*
X57290000Y-27630000D01*
X54050000Y-28550000D02*
X54970000Y-27630000D01*
X23450000Y-33650000D02*
X23850000Y-33650000D01*
X23850000Y-33650000D02*
X26200000Y-36000000D01*
X27540000Y-40340000D02*
X29200000Y-40340000D01*
X26200000Y-39000000D02*
X27540000Y-40340000D01*
X26200000Y-36000000D02*
X26200000Y-39000000D01*
X23450000Y-33650000D02*
X25750000Y-33650000D01*
X25750000Y-33650000D02*
X30750000Y-28650000D01*
X70750000Y-69500000D02*
X72550000Y-67700000D01*
X66850000Y-69500000D02*
X70750000Y-69500000D01*
X64950000Y-67600000D02*
X66850000Y-69500000D01*
X64950000Y-61500000D02*
X64950000Y-67600000D01*
X66950000Y-59500000D02*
X64950000Y-61500000D01*
X72550000Y-67700000D02*
X72550000Y-66500000D01*
X42050000Y-65730000D02*
X35180000Y-65730000D01*
X35180000Y-65730000D02*
X32750000Y-63300000D01*
X32750000Y-63300000D02*
X32750000Y-60600000D01*
X32750000Y-60600000D02*
X24450000Y-52300000D01*
X23450000Y-37800000D02*
X23450000Y-39400000D01*
X26250000Y-50500000D02*
X24450000Y-52300000D01*
X26250000Y-42200000D02*
X26250000Y-50500000D01*
X23450000Y-39400000D02*
X26250000Y-42200000D01*
D22*
X85550000Y-23400000D02*
X83950000Y-21800000D01*
X83950000Y-21800000D02*
X83950000Y-21300000D01*
D21*
X52650000Y-20500000D02*
X52650000Y-34200000D01*
X52650000Y-34200000D02*
X52650000Y-45800000D01*
X52650000Y-45800000D02*
X52650000Y-60300000D01*
X52650000Y-60300000D02*
X52650000Y-63200000D01*
X52650000Y-63200000D02*
X50120000Y-65730000D01*
X50120000Y-65730000D02*
X42050000Y-65730000D01*
D22*
X88850000Y-30800000D02*
X76850000Y-30800000D01*
X76850000Y-30800000D02*
X73650000Y-27600000D01*
X57290000Y-40330000D02*
X66220000Y-40330000D01*
X74900000Y-26350000D02*
X74900000Y-25150000D01*
X73650000Y-27600000D02*
X74900000Y-26350000D01*
X68650000Y-27600000D02*
X73650000Y-27600000D01*
X67450000Y-28800000D02*
X68650000Y-27600000D01*
X67450000Y-39100000D02*
X67450000Y-28800000D01*
X66220000Y-40330000D02*
X67450000Y-39100000D01*
X91350000Y-29400000D02*
X92750000Y-30800000D01*
X82250000Y-29400000D02*
X91350000Y-29400000D01*
X82150000Y-29300000D02*
X82250000Y-29400000D01*
X57290000Y-37790000D02*
X64560000Y-37790000D01*
X67100000Y-25150000D02*
X71150000Y-25150000D01*
X65950000Y-26300000D02*
X67100000Y-25150000D01*
X65950000Y-36400000D02*
X65950000Y-26300000D01*
X64560000Y-37790000D02*
X65950000Y-36400000D01*
X42050000Y-22550000D02*
X38010000Y-22550000D01*
X38010000Y-22550000D02*
X37950000Y-22490000D01*
X37950000Y-58050000D02*
X37950000Y-58250000D01*
X37950000Y-58250000D02*
X40350000Y-60650000D01*
X40350000Y-60650000D02*
X40350000Y-61490000D01*
X40350000Y-61490000D02*
X42050000Y-63190000D01*
X42050000Y-25090000D02*
X38010000Y-25090000D01*
X38010000Y-25090000D02*
X37950000Y-25030000D01*
X42050000Y-27630000D02*
X38010000Y-27630000D01*
X38010000Y-27630000D02*
X37950000Y-27570000D01*
X37950000Y-30110000D02*
X41990000Y-30110000D01*
D21*
X42040000Y-30160000D02*
X42050000Y-30170000D01*
D22*
X37950000Y-32650000D02*
X41990000Y-32650000D01*
X41990000Y-32650000D02*
X42050000Y-32710000D01*
D21*
X38310000Y-32710000D02*
X38300000Y-32700000D01*
D22*
X41980000Y-35180000D02*
X42050000Y-35250000D01*
D21*
X41980000Y-35180000D02*
X42050000Y-35250000D01*
D22*
X37950000Y-35190000D02*
X37950000Y-35450000D01*
X37950000Y-35450000D02*
X40300000Y-37800000D01*
X40300000Y-38580000D02*
X42050000Y-40330000D01*
X40300000Y-37800000D02*
X40300000Y-38580000D01*
X37950000Y-35190000D02*
X38340000Y-35190000D01*
X59850000Y-60630000D02*
X57290000Y-63190000D01*
X59850000Y-51700000D02*
X59850000Y-60630000D01*
X61050000Y-50500000D02*
X59850000Y-51700000D01*
X37950000Y-37730000D02*
X37950000Y-38050000D01*
X37950000Y-38050000D02*
X40300000Y-40400000D01*
X40300000Y-40400000D02*
X40300000Y-41120000D01*
X40300000Y-41120000D02*
X42050000Y-42870000D01*
X37950000Y-40270000D02*
X37950000Y-40550000D01*
X37950000Y-40550000D02*
X40300000Y-42900000D01*
X40300000Y-42900000D02*
X40300000Y-43660000D01*
X40300000Y-43660000D02*
X42050000Y-45410000D01*
X37950000Y-42810000D02*
X37950000Y-43000000D01*
X37950000Y-43000000D02*
X40300000Y-45350000D01*
X40300000Y-45350000D02*
X40300000Y-46200000D01*
X40300000Y-46200000D02*
X42050000Y-47950000D01*
X37950000Y-45350000D02*
X37950000Y-45550000D01*
X37950000Y-45550000D02*
X40300000Y-47900000D01*
X40300000Y-47900000D02*
X40300000Y-48740000D01*
X40300000Y-48740000D02*
X42050000Y-50490000D01*
X37950000Y-47890000D02*
X37950000Y-48100000D01*
X37950000Y-48100000D02*
X40300000Y-50450000D01*
X40300000Y-50450000D02*
X40300000Y-51280000D01*
X40300000Y-51280000D02*
X42050000Y-53030000D01*
X58580000Y-49200000D02*
X57290000Y-50490000D01*
X77350000Y-49200000D02*
X58580000Y-49200000D01*
X77450000Y-49300000D02*
X77350000Y-49200000D01*
X37950000Y-50430000D02*
X37950000Y-50650000D01*
X37950000Y-50650000D02*
X40350000Y-53050000D01*
X40350000Y-53050000D02*
X40350000Y-53870000D01*
X40350000Y-53870000D02*
X42050000Y-55570000D01*
X77500000Y-47950000D02*
X57290000Y-47950000D01*
X82150000Y-52600000D02*
X77500000Y-47950000D01*
X37950000Y-52970000D02*
X37950000Y-53100000D01*
X37950000Y-53100000D02*
X40350000Y-55500000D01*
X40350000Y-55500000D02*
X40350000Y-56410000D01*
X40350000Y-56410000D02*
X42050000Y-58110000D01*
X77060000Y-45410000D02*
X57290000Y-45410000D01*
X82150000Y-50500000D02*
X77060000Y-45410000D01*
X37950000Y-55510000D02*
X37950000Y-55600000D01*
X37950000Y-55600000D02*
X40350000Y-58000000D01*
X40350000Y-58000000D02*
X40350000Y-58950000D01*
X40350000Y-58950000D02*
X42050000Y-60650000D01*
X42050000Y-60650000D02*
X41950000Y-60650000D01*
X76420000Y-42870000D02*
X57290000Y-42870000D01*
X82150000Y-48600000D02*
X76420000Y-42870000D01*
X67550000Y-66500000D02*
X67550000Y-65800000D01*
X67550000Y-65800000D02*
X69950000Y-63400000D01*
X69950000Y-63400000D02*
X85150000Y-63400000D01*
X85150000Y-63400000D02*
X86450000Y-62100000D01*
X88550000Y-43500000D02*
X86450000Y-45600000D01*
X86450000Y-45600000D02*
X86450000Y-62100000D01*
X88850000Y-43500000D02*
X88550000Y-43500000D01*
X83850000Y-66500000D02*
X84950000Y-66500000D01*
X84950000Y-66500000D02*
X90850000Y-60600000D01*
X90850000Y-60600000D02*
X90850000Y-59500000D01*
X92750000Y-43500000D02*
X92450000Y-43500000D01*
X92450000Y-43500000D02*
X90850000Y-45100000D01*
X90850000Y-45100000D02*
X90850000Y-59500000D01*
M02*
