G04 #@! TF.FileFunction,Soldermask,Top*
%FSLAX46Y46*%
G04 Gerber Fmt 4.6, Leading zero omitted, Abs format (unit mm)*
G04 Created by KiCad (PCBNEW 4.0.7) date Wed Oct 25 19:06:34 2017*
%MOMM*%
%LPD*%
G01*
G04 APERTURE LIST*
%ADD10C,0.100000*%
%ADD11R,2.900000X1.600000*%
%ADD12C,2.000000*%
%ADD13R,2.400000X2.400000*%
%ADD14C,2.400000*%
%ADD15R,2.800000X2.800000*%
%ADD16C,2.800000*%
%ADD17R,1.460000X1.050000*%
%ADD18R,2.100000X2.100000*%
%ADD19O,2.100000X2.100000*%
%ADD20O,2.000000X2.000000*%
%ADD21R,2.000000X2.000000*%
%ADD22R,1.700000X1.100000*%
%ADD23C,3.600000*%
G04 APERTURE END LIST*
D10*
D11*
X63940000Y-46630000D03*
X63940000Y-48630000D03*
X63940000Y-50630000D03*
X63940000Y-52630000D03*
X63940000Y-54630000D03*
X63940000Y-56630000D03*
X63940000Y-58630000D03*
X79940000Y-58630000D03*
X79940000Y-56630000D03*
X79940000Y-54630000D03*
X79940000Y-52630000D03*
X79940000Y-50630000D03*
X79940000Y-48630000D03*
X79940000Y-46630000D03*
X79940000Y-44630000D03*
D12*
X23450000Y-31150000D03*
X23450000Y-33650000D03*
D13*
X30750000Y-23650000D03*
D14*
X30750000Y-28650000D03*
X23450000Y-37800000D03*
X23450000Y-42800000D03*
D15*
X32750000Y-63300000D03*
D16*
X32750000Y-68300000D03*
D15*
X24450000Y-52300000D03*
D16*
X24450000Y-57300000D03*
D12*
X81650000Y-35300000D03*
X81650000Y-37800000D03*
D13*
X74750000Y-34100000D03*
D14*
X74750000Y-39100000D03*
D12*
X74900000Y-25150000D03*
X74900000Y-22650000D03*
X71150000Y-25150000D03*
X71150000Y-22650000D03*
D17*
X86800000Y-26800000D03*
X86800000Y-25850000D03*
X86800000Y-24900000D03*
X84600000Y-24900000D03*
X84600000Y-26800000D03*
D18*
X29200000Y-37800000D03*
D19*
X29200000Y-40340000D03*
X29200000Y-42880000D03*
X29200000Y-45420000D03*
D12*
X33850000Y-51000000D03*
D20*
X33850000Y-38300000D03*
D12*
X88850000Y-43500000D03*
D20*
X88850000Y-30800000D03*
D12*
X88850000Y-58700000D03*
D20*
X88850000Y-46000000D03*
D12*
X92750000Y-43500000D03*
D20*
X92750000Y-30800000D03*
D12*
X92750000Y-58700000D03*
D20*
X92750000Y-46000000D03*
D15*
X62550000Y-66500000D03*
D16*
X67550000Y-66500000D03*
X72550000Y-66500000D03*
D15*
X78850000Y-66500000D03*
D16*
X83850000Y-66500000D03*
X88850000Y-66500000D03*
D21*
X42050000Y-22550000D03*
D20*
X57290000Y-70810000D03*
X42050000Y-25090000D03*
X57290000Y-68270000D03*
X42050000Y-27630000D03*
X57290000Y-65730000D03*
X42050000Y-30170000D03*
X57290000Y-63190000D03*
X42050000Y-32710000D03*
X57290000Y-60650000D03*
X42050000Y-35250000D03*
X57290000Y-58110000D03*
X42050000Y-37790000D03*
X57290000Y-55570000D03*
X42050000Y-40330000D03*
X57290000Y-53030000D03*
X42050000Y-42870000D03*
X57290000Y-50490000D03*
X42050000Y-45410000D03*
X57290000Y-47950000D03*
X42050000Y-47950000D03*
X57290000Y-45410000D03*
X42050000Y-50490000D03*
X57290000Y-42870000D03*
X42050000Y-53030000D03*
X57290000Y-40330000D03*
X42050000Y-55570000D03*
X57290000Y-37790000D03*
X42050000Y-58110000D03*
X57290000Y-35250000D03*
X42050000Y-60650000D03*
X57290000Y-32710000D03*
X42050000Y-63190000D03*
X57290000Y-30170000D03*
X42050000Y-65730000D03*
X57290000Y-27630000D03*
X42050000Y-68270000D03*
X57290000Y-25090000D03*
X42050000Y-70810000D03*
X57290000Y-22550000D03*
D22*
X79950000Y-27800000D03*
X79950000Y-25900000D03*
X79950000Y-24050000D03*
X79950000Y-22150000D03*
D23*
X95450000Y-24100000D03*
X95375000Y-66600000D03*
X21450000Y-24100000D03*
X21350000Y-66600000D03*
D18*
X37950000Y-58050000D03*
D19*
X37950000Y-55510000D03*
X37950000Y-52970000D03*
X37950000Y-50430000D03*
X37950000Y-47890000D03*
X37950000Y-45350000D03*
X37950000Y-42810000D03*
X37950000Y-40270000D03*
X37950000Y-37730000D03*
X37950000Y-35190000D03*
X37950000Y-32650000D03*
X37950000Y-30110000D03*
X37950000Y-27570000D03*
X37950000Y-25030000D03*
X37950000Y-22490000D03*
D18*
X60450000Y-25100000D03*
D19*
X60450000Y-27640000D03*
X60450000Y-30180000D03*
X60450000Y-32720000D03*
X60450000Y-35260000D03*
M02*
