G04 #@! TF.FileFunction,Legend,Top*
%FSLAX46Y46*%
G04 Gerber Fmt 4.6, Leading zero omitted, Abs format (unit mm)*
G04 Created by KiCad (PCBNEW 4.0.7) date Wed Oct 25 19:06:34 2017*
%MOMM*%
%LPD*%
G01*
G04 APERTURE LIST*
%ADD10C,0.100000*%
%ADD11C,0.150000*%
%ADD12C,0.120000*%
G04 APERTURE END LIST*
D10*
D11*
X63940000Y-43130000D02*
X63940000Y-60130000D01*
X63940000Y-60130000D02*
X79940000Y-60130000D01*
X79940000Y-60130000D02*
X79940000Y-43130000D01*
X79940000Y-43130000D02*
X63940000Y-43130000D01*
D12*
X24760000Y-29840000D02*
X24760000Y-34960000D01*
X22140000Y-29840000D02*
X22140000Y-34960000D01*
X24760000Y-29840000D02*
X22140000Y-29840000D01*
X24760000Y-34960000D02*
X22140000Y-34960000D01*
X32133264Y-31048437D02*
G75*
G03X32130000Y-21250643I-1383264J4898437D01*
G01*
X29366736Y-31048437D02*
G75*
G02X29370000Y-21250643I1383264J4898437D01*
G01*
X29366736Y-31048437D02*
G75*
G03X32130000Y-31049357I1383264J4898437D01*
G01*
X35800000Y-26150000D02*
X25700000Y-26150000D01*
X35800000Y-26190000D02*
X25700000Y-26190000D01*
X35800000Y-26230000D02*
X25700000Y-26230000D01*
X35799000Y-26270000D02*
X25701000Y-26270000D01*
X35798000Y-26310000D02*
X25702000Y-26310000D01*
X35797000Y-26350000D02*
X25703000Y-26350000D01*
X35795000Y-26390000D02*
X25705000Y-26390000D01*
X35793000Y-26430000D02*
X25707000Y-26430000D01*
X35790000Y-26470000D02*
X25710000Y-26470000D01*
X35788000Y-26510000D02*
X25712000Y-26510000D01*
X35785000Y-26550000D02*
X25715000Y-26550000D01*
X35781000Y-26590000D02*
X25719000Y-26590000D01*
X35778000Y-26630000D02*
X25722000Y-26630000D01*
X35774000Y-26670000D02*
X25726000Y-26670000D01*
X35770000Y-26710000D02*
X25730000Y-26710000D01*
X35765000Y-26750000D02*
X25735000Y-26750000D01*
X35760000Y-26790000D02*
X25740000Y-26790000D01*
X35755000Y-26830000D02*
X25745000Y-26830000D01*
X35749000Y-26871000D02*
X25751000Y-26871000D01*
X35743000Y-26911000D02*
X25757000Y-26911000D01*
X35737000Y-26951000D02*
X25763000Y-26951000D01*
X35731000Y-26991000D02*
X25769000Y-26991000D01*
X35724000Y-27031000D02*
X25776000Y-27031000D01*
X35717000Y-27071000D02*
X25783000Y-27071000D01*
X35709000Y-27111000D02*
X25791000Y-27111000D01*
X35701000Y-27151000D02*
X25799000Y-27151000D01*
X35693000Y-27191000D02*
X25807000Y-27191000D01*
X35685000Y-27231000D02*
X25815000Y-27231000D01*
X35676000Y-27271000D02*
X25824000Y-27271000D01*
X35667000Y-27311000D02*
X25833000Y-27311000D01*
X35657000Y-27351000D02*
X25843000Y-27351000D01*
X35647000Y-27391000D02*
X25853000Y-27391000D01*
X35637000Y-27431000D02*
X25863000Y-27431000D01*
X35626000Y-27471000D02*
X31931000Y-27471000D01*
X29569000Y-27471000D02*
X25874000Y-27471000D01*
X35615000Y-27511000D02*
X31931000Y-27511000D01*
X29569000Y-27511000D02*
X25885000Y-27511000D01*
X35604000Y-27551000D02*
X31931000Y-27551000D01*
X29569000Y-27551000D02*
X25896000Y-27551000D01*
X35593000Y-27591000D02*
X31931000Y-27591000D01*
X29569000Y-27591000D02*
X25907000Y-27591000D01*
X35581000Y-27631000D02*
X31931000Y-27631000D01*
X29569000Y-27631000D02*
X25919000Y-27631000D01*
X35568000Y-27671000D02*
X31931000Y-27671000D01*
X29569000Y-27671000D02*
X25932000Y-27671000D01*
X35556000Y-27711000D02*
X31931000Y-27711000D01*
X29569000Y-27711000D02*
X25944000Y-27711000D01*
X35542000Y-27751000D02*
X31931000Y-27751000D01*
X29569000Y-27751000D02*
X25958000Y-27751000D01*
X35529000Y-27791000D02*
X31931000Y-27791000D01*
X29569000Y-27791000D02*
X25971000Y-27791000D01*
X35515000Y-27831000D02*
X31931000Y-27831000D01*
X29569000Y-27831000D02*
X25985000Y-27831000D01*
X35501000Y-27871000D02*
X31931000Y-27871000D01*
X29569000Y-27871000D02*
X25999000Y-27871000D01*
X35487000Y-27911000D02*
X31931000Y-27911000D01*
X29569000Y-27911000D02*
X26013000Y-27911000D01*
X35472000Y-27951000D02*
X31931000Y-27951000D01*
X29569000Y-27951000D02*
X26028000Y-27951000D01*
X35456000Y-27991000D02*
X31931000Y-27991000D01*
X29569000Y-27991000D02*
X26044000Y-27991000D01*
X35441000Y-28031000D02*
X31931000Y-28031000D01*
X29569000Y-28031000D02*
X26059000Y-28031000D01*
X35424000Y-28071000D02*
X31931000Y-28071000D01*
X29569000Y-28071000D02*
X26076000Y-28071000D01*
X35408000Y-28111000D02*
X31931000Y-28111000D01*
X29569000Y-28111000D02*
X26092000Y-28111000D01*
X35391000Y-28151000D02*
X31931000Y-28151000D01*
X29569000Y-28151000D02*
X26109000Y-28151000D01*
X35374000Y-28191000D02*
X31931000Y-28191000D01*
X29569000Y-28191000D02*
X26126000Y-28191000D01*
X35356000Y-28231000D02*
X31931000Y-28231000D01*
X29569000Y-28231000D02*
X26144000Y-28231000D01*
X35338000Y-28271000D02*
X31931000Y-28271000D01*
X29569000Y-28271000D02*
X26162000Y-28271000D01*
X35319000Y-28311000D02*
X31931000Y-28311000D01*
X29569000Y-28311000D02*
X26181000Y-28311000D01*
X35300000Y-28351000D02*
X31931000Y-28351000D01*
X29569000Y-28351000D02*
X26200000Y-28351000D01*
X35281000Y-28391000D02*
X31931000Y-28391000D01*
X29569000Y-28391000D02*
X26219000Y-28391000D01*
X35261000Y-28431000D02*
X31931000Y-28431000D01*
X29569000Y-28431000D02*
X26239000Y-28431000D01*
X35241000Y-28471000D02*
X31931000Y-28471000D01*
X29569000Y-28471000D02*
X26259000Y-28471000D01*
X35220000Y-28511000D02*
X31931000Y-28511000D01*
X29569000Y-28511000D02*
X26280000Y-28511000D01*
X35199000Y-28551000D02*
X31931000Y-28551000D01*
X29569000Y-28551000D02*
X26301000Y-28551000D01*
X35178000Y-28591000D02*
X31931000Y-28591000D01*
X29569000Y-28591000D02*
X26322000Y-28591000D01*
X35155000Y-28631000D02*
X31931000Y-28631000D01*
X29569000Y-28631000D02*
X26345000Y-28631000D01*
X35133000Y-28671000D02*
X31931000Y-28671000D01*
X29569000Y-28671000D02*
X26367000Y-28671000D01*
X35110000Y-28711000D02*
X31931000Y-28711000D01*
X29569000Y-28711000D02*
X26390000Y-28711000D01*
X35086000Y-28751000D02*
X31931000Y-28751000D01*
X29569000Y-28751000D02*
X26414000Y-28751000D01*
X35062000Y-28791000D02*
X31931000Y-28791000D01*
X29569000Y-28791000D02*
X26438000Y-28791000D01*
X35038000Y-28831000D02*
X31931000Y-28831000D01*
X29569000Y-28831000D02*
X26462000Y-28831000D01*
X35013000Y-28871000D02*
X31931000Y-28871000D01*
X29569000Y-28871000D02*
X26487000Y-28871000D01*
X34987000Y-28911000D02*
X31931000Y-28911000D01*
X29569000Y-28911000D02*
X26513000Y-28911000D01*
X34961000Y-28951000D02*
X31931000Y-28951000D01*
X29569000Y-28951000D02*
X26539000Y-28951000D01*
X34935000Y-28991000D02*
X31931000Y-28991000D01*
X29569000Y-28991000D02*
X26565000Y-28991000D01*
X34907000Y-29031000D02*
X31931000Y-29031000D01*
X29569000Y-29031000D02*
X26593000Y-29031000D01*
X34880000Y-29071000D02*
X31931000Y-29071000D01*
X29569000Y-29071000D02*
X26620000Y-29071000D01*
X34851000Y-29111000D02*
X31931000Y-29111000D01*
X29569000Y-29111000D02*
X26649000Y-29111000D01*
X34822000Y-29151000D02*
X31931000Y-29151000D01*
X29569000Y-29151000D02*
X26678000Y-29151000D01*
X34793000Y-29191000D02*
X31931000Y-29191000D01*
X29569000Y-29191000D02*
X26707000Y-29191000D01*
X34763000Y-29231000D02*
X31931000Y-29231000D01*
X29569000Y-29231000D02*
X26737000Y-29231000D01*
X34732000Y-29271000D02*
X31931000Y-29271000D01*
X29569000Y-29271000D02*
X26768000Y-29271000D01*
X34701000Y-29311000D02*
X31931000Y-29311000D01*
X29569000Y-29311000D02*
X26799000Y-29311000D01*
X34669000Y-29351000D02*
X31931000Y-29351000D01*
X29569000Y-29351000D02*
X26831000Y-29351000D01*
X34636000Y-29391000D02*
X31931000Y-29391000D01*
X29569000Y-29391000D02*
X26864000Y-29391000D01*
X34603000Y-29431000D02*
X31931000Y-29431000D01*
X29569000Y-29431000D02*
X26897000Y-29431000D01*
X34569000Y-29471000D02*
X31931000Y-29471000D01*
X29569000Y-29471000D02*
X26931000Y-29471000D01*
X34534000Y-29511000D02*
X31931000Y-29511000D01*
X29569000Y-29511000D02*
X26966000Y-29511000D01*
X34498000Y-29551000D02*
X31931000Y-29551000D01*
X29569000Y-29551000D02*
X27002000Y-29551000D01*
X34462000Y-29591000D02*
X31931000Y-29591000D01*
X29569000Y-29591000D02*
X27038000Y-29591000D01*
X34425000Y-29631000D02*
X31931000Y-29631000D01*
X29569000Y-29631000D02*
X27075000Y-29631000D01*
X34387000Y-29671000D02*
X31931000Y-29671000D01*
X29569000Y-29671000D02*
X27113000Y-29671000D01*
X34348000Y-29711000D02*
X31931000Y-29711000D01*
X29569000Y-29711000D02*
X27152000Y-29711000D01*
X34309000Y-29751000D02*
X31931000Y-29751000D01*
X29569000Y-29751000D02*
X27191000Y-29751000D01*
X34268000Y-29791000D02*
X31931000Y-29791000D01*
X29569000Y-29791000D02*
X27232000Y-29791000D01*
X34227000Y-29831000D02*
X27273000Y-29831000D01*
X34185000Y-29871000D02*
X27315000Y-29871000D01*
X34141000Y-29911000D02*
X27359000Y-29911000D01*
X34097000Y-29951000D02*
X27403000Y-29951000D01*
X34052000Y-29991000D02*
X27448000Y-29991000D01*
X34005000Y-30031000D02*
X27495000Y-30031000D01*
X33957000Y-30071000D02*
X27543000Y-30071000D01*
X33908000Y-30111000D02*
X27592000Y-30111000D01*
X33858000Y-30151000D02*
X27642000Y-30151000D01*
X33807000Y-30191000D02*
X27693000Y-30191000D01*
X33754000Y-30231000D02*
X27746000Y-30231000D01*
X33699000Y-30271000D02*
X27801000Y-30271000D01*
X33644000Y-30311000D02*
X27856000Y-30311000D01*
X33586000Y-30351000D02*
X27914000Y-30351000D01*
X33527000Y-30391000D02*
X27973000Y-30391000D01*
X33465000Y-30431000D02*
X28035000Y-30431000D01*
X33402000Y-30471000D02*
X28098000Y-30471000D01*
X33337000Y-30511000D02*
X28163000Y-30511000D01*
X33269000Y-30551000D02*
X28231000Y-30551000D01*
X33199000Y-30591000D02*
X28301000Y-30591000D01*
X33127000Y-30631000D02*
X28373000Y-30631000D01*
X33051000Y-30671000D02*
X28449000Y-30671000D01*
X32972000Y-30711000D02*
X28528000Y-30711000D01*
X32890000Y-30751000D02*
X28610000Y-30751000D01*
X32803000Y-30791000D02*
X28697000Y-30791000D01*
X32712000Y-30831000D02*
X28788000Y-30831000D01*
X32616000Y-30871000D02*
X28884000Y-30871000D01*
X32513000Y-30911000D02*
X28987000Y-30911000D01*
X32404000Y-30951000D02*
X29096000Y-30951000D01*
X32286000Y-30991000D02*
X29214000Y-30991000D01*
X32157000Y-31031000D02*
X29343000Y-31031000D01*
X32015000Y-31071000D02*
X29485000Y-31071000D01*
X31854000Y-31111000D02*
X29646000Y-31111000D01*
X31663000Y-31151000D02*
X29837000Y-31151000D01*
X31422000Y-31191000D02*
X30078000Y-31191000D01*
X31029000Y-31231000D02*
X30471000Y-31231000D01*
X30750000Y-20950000D02*
X30750000Y-22450000D01*
X31500000Y-21700000D02*
X30000000Y-21700000D01*
X26010000Y-36490000D02*
X26010000Y-44110000D01*
X20890000Y-36490000D02*
X20890000Y-44110000D01*
X26010000Y-36490000D02*
X20890000Y-36490000D01*
X26010000Y-44110000D02*
X20890000Y-44110000D01*
X39090000Y-65800000D02*
G75*
G03X39090000Y-65800000I-6340000J0D01*
G01*
X39050000Y-65800000D02*
X26450000Y-65800000D01*
X39050000Y-65840000D02*
X26450000Y-65840000D01*
X39050000Y-65880000D02*
X26450000Y-65880000D01*
X39049000Y-65920000D02*
X26451000Y-65920000D01*
X39048000Y-65960000D02*
X26452000Y-65960000D01*
X39047000Y-66000000D02*
X26453000Y-66000000D01*
X39046000Y-66040000D02*
X26454000Y-66040000D01*
X39044000Y-66080000D02*
X26456000Y-66080000D01*
X39042000Y-66120000D02*
X26458000Y-66120000D01*
X39040000Y-66160000D02*
X26460000Y-66160000D01*
X39038000Y-66200000D02*
X26462000Y-66200000D01*
X39035000Y-66240000D02*
X26465000Y-66240000D01*
X39032000Y-66280000D02*
X26468000Y-66280000D01*
X39029000Y-66320000D02*
X26471000Y-66320000D01*
X39026000Y-66360000D02*
X26474000Y-66360000D01*
X39022000Y-66400000D02*
X26478000Y-66400000D01*
X39018000Y-66440000D02*
X26482000Y-66440000D01*
X39014000Y-66480000D02*
X26486000Y-66480000D01*
X39009000Y-66521000D02*
X26491000Y-66521000D01*
X39005000Y-66561000D02*
X26495000Y-66561000D01*
X39000000Y-66601000D02*
X26500000Y-66601000D01*
X38995000Y-66641000D02*
X26505000Y-66641000D01*
X38989000Y-66681000D02*
X26511000Y-66681000D01*
X38983000Y-66721000D02*
X26517000Y-66721000D01*
X38977000Y-66761000D02*
X26523000Y-66761000D01*
X38971000Y-66801000D02*
X26529000Y-66801000D01*
X38965000Y-66841000D02*
X26535000Y-66841000D01*
X38958000Y-66881000D02*
X26542000Y-66881000D01*
X38951000Y-66921000D02*
X34130000Y-66921000D01*
X31370000Y-66921000D02*
X26549000Y-66921000D01*
X38943000Y-66961000D02*
X34130000Y-66961000D01*
X31370000Y-66961000D02*
X26557000Y-66961000D01*
X38936000Y-67001000D02*
X34130000Y-67001000D01*
X31370000Y-67001000D02*
X26564000Y-67001000D01*
X38928000Y-67041000D02*
X34130000Y-67041000D01*
X31370000Y-67041000D02*
X26572000Y-67041000D01*
X38920000Y-67081000D02*
X34130000Y-67081000D01*
X31370000Y-67081000D02*
X26580000Y-67081000D01*
X38912000Y-67121000D02*
X34130000Y-67121000D01*
X31370000Y-67121000D02*
X26588000Y-67121000D01*
X38903000Y-67161000D02*
X34130000Y-67161000D01*
X31370000Y-67161000D02*
X26597000Y-67161000D01*
X38894000Y-67201000D02*
X34130000Y-67201000D01*
X31370000Y-67201000D02*
X26606000Y-67201000D01*
X38885000Y-67241000D02*
X34130000Y-67241000D01*
X31370000Y-67241000D02*
X26615000Y-67241000D01*
X38875000Y-67281000D02*
X34130000Y-67281000D01*
X31370000Y-67281000D02*
X26625000Y-67281000D01*
X38866000Y-67321000D02*
X34130000Y-67321000D01*
X31370000Y-67321000D02*
X26634000Y-67321000D01*
X38856000Y-67361000D02*
X34130000Y-67361000D01*
X31370000Y-67361000D02*
X26644000Y-67361000D01*
X38845000Y-67401000D02*
X34130000Y-67401000D01*
X31370000Y-67401000D02*
X26655000Y-67401000D01*
X38835000Y-67441000D02*
X34130000Y-67441000D01*
X31370000Y-67441000D02*
X26665000Y-67441000D01*
X38824000Y-67481000D02*
X34130000Y-67481000D01*
X31370000Y-67481000D02*
X26676000Y-67481000D01*
X38813000Y-67521000D02*
X34130000Y-67521000D01*
X31370000Y-67521000D02*
X26687000Y-67521000D01*
X38801000Y-67561000D02*
X34130000Y-67561000D01*
X31370000Y-67561000D02*
X26699000Y-67561000D01*
X38790000Y-67601000D02*
X34130000Y-67601000D01*
X31370000Y-67601000D02*
X26710000Y-67601000D01*
X38778000Y-67641000D02*
X34130000Y-67641000D01*
X31370000Y-67641000D02*
X26722000Y-67641000D01*
X38765000Y-67681000D02*
X34130000Y-67681000D01*
X31370000Y-67681000D02*
X26735000Y-67681000D01*
X38753000Y-67721000D02*
X34130000Y-67721000D01*
X31370000Y-67721000D02*
X26747000Y-67721000D01*
X38740000Y-67761000D02*
X34130000Y-67761000D01*
X31370000Y-67761000D02*
X26760000Y-67761000D01*
X38727000Y-67801000D02*
X34130000Y-67801000D01*
X31370000Y-67801000D02*
X26773000Y-67801000D01*
X38713000Y-67841000D02*
X34130000Y-67841000D01*
X31370000Y-67841000D02*
X26787000Y-67841000D01*
X38700000Y-67881000D02*
X34130000Y-67881000D01*
X31370000Y-67881000D02*
X26800000Y-67881000D01*
X38686000Y-67921000D02*
X34130000Y-67921000D01*
X31370000Y-67921000D02*
X26814000Y-67921000D01*
X38671000Y-67961000D02*
X34130000Y-67961000D01*
X31370000Y-67961000D02*
X26829000Y-67961000D01*
X38657000Y-68001000D02*
X34130000Y-68001000D01*
X31370000Y-68001000D02*
X26843000Y-68001000D01*
X38642000Y-68041000D02*
X34130000Y-68041000D01*
X31370000Y-68041000D02*
X26858000Y-68041000D01*
X38626000Y-68081000D02*
X34130000Y-68081000D01*
X31370000Y-68081000D02*
X26874000Y-68081000D01*
X38611000Y-68121000D02*
X34130000Y-68121000D01*
X31370000Y-68121000D02*
X26889000Y-68121000D01*
X38595000Y-68161000D02*
X34130000Y-68161000D01*
X31370000Y-68161000D02*
X26905000Y-68161000D01*
X38579000Y-68201000D02*
X34130000Y-68201000D01*
X31370000Y-68201000D02*
X26921000Y-68201000D01*
X38562000Y-68241000D02*
X34130000Y-68241000D01*
X31370000Y-68241000D02*
X26938000Y-68241000D01*
X38545000Y-68281000D02*
X34130000Y-68281000D01*
X31370000Y-68281000D02*
X26955000Y-68281000D01*
X38528000Y-68321000D02*
X34130000Y-68321000D01*
X31370000Y-68321000D02*
X26972000Y-68321000D01*
X38511000Y-68361000D02*
X34130000Y-68361000D01*
X31370000Y-68361000D02*
X26989000Y-68361000D01*
X38493000Y-68401000D02*
X34130000Y-68401000D01*
X31370000Y-68401000D02*
X27007000Y-68401000D01*
X38475000Y-68441000D02*
X34130000Y-68441000D01*
X31370000Y-68441000D02*
X27025000Y-68441000D01*
X38456000Y-68481000D02*
X34130000Y-68481000D01*
X31370000Y-68481000D02*
X27044000Y-68481000D01*
X38437000Y-68521000D02*
X34130000Y-68521000D01*
X31370000Y-68521000D02*
X27063000Y-68521000D01*
X38418000Y-68561000D02*
X34130000Y-68561000D01*
X31370000Y-68561000D02*
X27082000Y-68561000D01*
X38399000Y-68601000D02*
X34130000Y-68601000D01*
X31370000Y-68601000D02*
X27101000Y-68601000D01*
X38379000Y-68641000D02*
X34130000Y-68641000D01*
X31370000Y-68641000D02*
X27121000Y-68641000D01*
X38359000Y-68681000D02*
X34130000Y-68681000D01*
X31370000Y-68681000D02*
X27141000Y-68681000D01*
X38338000Y-68721000D02*
X34130000Y-68721000D01*
X31370000Y-68721000D02*
X27162000Y-68721000D01*
X38317000Y-68761000D02*
X34130000Y-68761000D01*
X31370000Y-68761000D02*
X27183000Y-68761000D01*
X38296000Y-68801000D02*
X34130000Y-68801000D01*
X31370000Y-68801000D02*
X27204000Y-68801000D01*
X38274000Y-68841000D02*
X34130000Y-68841000D01*
X31370000Y-68841000D02*
X27226000Y-68841000D01*
X38252000Y-68881000D02*
X34130000Y-68881000D01*
X31370000Y-68881000D02*
X27248000Y-68881000D01*
X38230000Y-68921000D02*
X34130000Y-68921000D01*
X31370000Y-68921000D02*
X27270000Y-68921000D01*
X38207000Y-68961000D02*
X34130000Y-68961000D01*
X31370000Y-68961000D02*
X27293000Y-68961000D01*
X38184000Y-69001000D02*
X34130000Y-69001000D01*
X31370000Y-69001000D02*
X27316000Y-69001000D01*
X38160000Y-69041000D02*
X34130000Y-69041000D01*
X31370000Y-69041000D02*
X27340000Y-69041000D01*
X38136000Y-69081000D02*
X34130000Y-69081000D01*
X31370000Y-69081000D02*
X27364000Y-69081000D01*
X38112000Y-69121000D02*
X34130000Y-69121000D01*
X31370000Y-69121000D02*
X27388000Y-69121000D01*
X38087000Y-69161000D02*
X34130000Y-69161000D01*
X31370000Y-69161000D02*
X27413000Y-69161000D01*
X38062000Y-69201000D02*
X34130000Y-69201000D01*
X31370000Y-69201000D02*
X27438000Y-69201000D01*
X38036000Y-69241000D02*
X34130000Y-69241000D01*
X31370000Y-69241000D02*
X27464000Y-69241000D01*
X38010000Y-69281000D02*
X34130000Y-69281000D01*
X31370000Y-69281000D02*
X27490000Y-69281000D01*
X37984000Y-69321000D02*
X34130000Y-69321000D01*
X31370000Y-69321000D02*
X27516000Y-69321000D01*
X37957000Y-69361000D02*
X34130000Y-69361000D01*
X31370000Y-69361000D02*
X27543000Y-69361000D01*
X37929000Y-69401000D02*
X34130000Y-69401000D01*
X31370000Y-69401000D02*
X27571000Y-69401000D01*
X37901000Y-69441000D02*
X34130000Y-69441000D01*
X31370000Y-69441000D02*
X27599000Y-69441000D01*
X37873000Y-69481000D02*
X34130000Y-69481000D01*
X31370000Y-69481000D02*
X27627000Y-69481000D01*
X37844000Y-69521000D02*
X34130000Y-69521000D01*
X31370000Y-69521000D02*
X27656000Y-69521000D01*
X37815000Y-69561000D02*
X34130000Y-69561000D01*
X31370000Y-69561000D02*
X27685000Y-69561000D01*
X37785000Y-69601000D02*
X34130000Y-69601000D01*
X31370000Y-69601000D02*
X27715000Y-69601000D01*
X37755000Y-69641000D02*
X34130000Y-69641000D01*
X31370000Y-69641000D02*
X27745000Y-69641000D01*
X37725000Y-69681000D02*
X27775000Y-69681000D01*
X37693000Y-69721000D02*
X27807000Y-69721000D01*
X37662000Y-69761000D02*
X27838000Y-69761000D01*
X37629000Y-69801000D02*
X27871000Y-69801000D01*
X37597000Y-69841000D02*
X27903000Y-69841000D01*
X37563000Y-69881000D02*
X27937000Y-69881000D01*
X37529000Y-69921000D02*
X27971000Y-69921000D01*
X37495000Y-69961000D02*
X28005000Y-69961000D01*
X37460000Y-70001000D02*
X28040000Y-70001000D01*
X37424000Y-70041000D02*
X28076000Y-70041000D01*
X37388000Y-70081000D02*
X28112000Y-70081000D01*
X37351000Y-70121000D02*
X28149000Y-70121000D01*
X37313000Y-70161000D02*
X28187000Y-70161000D01*
X37275000Y-70201000D02*
X28225000Y-70201000D01*
X37236000Y-70241000D02*
X28264000Y-70241000D01*
X37197000Y-70281000D02*
X28303000Y-70281000D01*
X37156000Y-70321000D02*
X28344000Y-70321000D01*
X37115000Y-70361000D02*
X28385000Y-70361000D01*
X37073000Y-70401000D02*
X28427000Y-70401000D01*
X37031000Y-70441000D02*
X28469000Y-70441000D01*
X36988000Y-70481000D02*
X28512000Y-70481000D01*
X36943000Y-70521000D02*
X28557000Y-70521000D01*
X36898000Y-70561000D02*
X28602000Y-70561000D01*
X36852000Y-70601000D02*
X28648000Y-70601000D01*
X36806000Y-70641000D02*
X28694000Y-70641000D01*
X36758000Y-70681000D02*
X28742000Y-70681000D01*
X36709000Y-70721000D02*
X28791000Y-70721000D01*
X36659000Y-70761000D02*
X28841000Y-70761000D01*
X36609000Y-70801000D02*
X28891000Y-70801000D01*
X36557000Y-70841000D02*
X28943000Y-70841000D01*
X36504000Y-70881000D02*
X28996000Y-70881000D01*
X36450000Y-70921000D02*
X29050000Y-70921000D01*
X36394000Y-70961000D02*
X29106000Y-70961000D01*
X36338000Y-71001000D02*
X29162000Y-71001000D01*
X36280000Y-71041000D02*
X29220000Y-71041000D01*
X36220000Y-71081000D02*
X29280000Y-71081000D01*
X36159000Y-71121000D02*
X29341000Y-71121000D01*
X36097000Y-71161000D02*
X29403000Y-71161000D01*
X36032000Y-71201000D02*
X29468000Y-71201000D01*
X35967000Y-71241000D02*
X29533000Y-71241000D01*
X35899000Y-71281000D02*
X29601000Y-71281000D01*
X35829000Y-71321000D02*
X29671000Y-71321000D01*
X35757000Y-71361000D02*
X29743000Y-71361000D01*
X35683000Y-71401000D02*
X29817000Y-71401000D01*
X35606000Y-71441000D02*
X29894000Y-71441000D01*
X35527000Y-71481000D02*
X29973000Y-71481000D01*
X35445000Y-71521000D02*
X30055000Y-71521000D01*
X35360000Y-71561000D02*
X30140000Y-71561000D01*
X35271000Y-71601000D02*
X30229000Y-71601000D01*
X35178000Y-71641000D02*
X30322000Y-71641000D01*
X35081000Y-71681000D02*
X30419000Y-71681000D01*
X34980000Y-71721000D02*
X30520000Y-71721000D01*
X34872000Y-71761000D02*
X30628000Y-71761000D01*
X34759000Y-71801000D02*
X30741000Y-71801000D01*
X34638000Y-71841000D02*
X30862000Y-71841000D01*
X34507000Y-71881000D02*
X30993000Y-71881000D01*
X34366000Y-71921000D02*
X31134000Y-71921000D01*
X34210000Y-71961000D02*
X31290000Y-71961000D01*
X34035000Y-72001000D02*
X31465000Y-72001000D01*
X33832000Y-72041000D02*
X31668000Y-72041000D01*
X33581000Y-72081000D02*
X31919000Y-72081000D01*
X33214000Y-72121000D02*
X32286000Y-72121000D01*
X32750000Y-60100000D02*
X32750000Y-61900000D01*
X33650000Y-61000000D02*
X31850000Y-61000000D01*
X30790000Y-54800000D02*
G75*
G03X30790000Y-54800000I-6340000J0D01*
G01*
X30750000Y-54800000D02*
X18150000Y-54800000D01*
X30750000Y-54840000D02*
X18150000Y-54840000D01*
X30750000Y-54880000D02*
X18150000Y-54880000D01*
X30749000Y-54920000D02*
X18151000Y-54920000D01*
X30748000Y-54960000D02*
X18152000Y-54960000D01*
X30747000Y-55000000D02*
X18153000Y-55000000D01*
X30746000Y-55040000D02*
X18154000Y-55040000D01*
X30744000Y-55080000D02*
X18156000Y-55080000D01*
X30742000Y-55120000D02*
X18158000Y-55120000D01*
X30740000Y-55160000D02*
X18160000Y-55160000D01*
X30738000Y-55200000D02*
X18162000Y-55200000D01*
X30735000Y-55240000D02*
X18165000Y-55240000D01*
X30732000Y-55280000D02*
X18168000Y-55280000D01*
X30729000Y-55320000D02*
X18171000Y-55320000D01*
X30726000Y-55360000D02*
X18174000Y-55360000D01*
X30722000Y-55400000D02*
X18178000Y-55400000D01*
X30718000Y-55440000D02*
X18182000Y-55440000D01*
X30714000Y-55480000D02*
X18186000Y-55480000D01*
X30709000Y-55521000D02*
X18191000Y-55521000D01*
X30705000Y-55561000D02*
X18195000Y-55561000D01*
X30700000Y-55601000D02*
X18200000Y-55601000D01*
X30695000Y-55641000D02*
X18205000Y-55641000D01*
X30689000Y-55681000D02*
X18211000Y-55681000D01*
X30683000Y-55721000D02*
X18217000Y-55721000D01*
X30677000Y-55761000D02*
X18223000Y-55761000D01*
X30671000Y-55801000D02*
X18229000Y-55801000D01*
X30665000Y-55841000D02*
X18235000Y-55841000D01*
X30658000Y-55881000D02*
X18242000Y-55881000D01*
X30651000Y-55921000D02*
X25830000Y-55921000D01*
X23070000Y-55921000D02*
X18249000Y-55921000D01*
X30643000Y-55961000D02*
X25830000Y-55961000D01*
X23070000Y-55961000D02*
X18257000Y-55961000D01*
X30636000Y-56001000D02*
X25830000Y-56001000D01*
X23070000Y-56001000D02*
X18264000Y-56001000D01*
X30628000Y-56041000D02*
X25830000Y-56041000D01*
X23070000Y-56041000D02*
X18272000Y-56041000D01*
X30620000Y-56081000D02*
X25830000Y-56081000D01*
X23070000Y-56081000D02*
X18280000Y-56081000D01*
X30612000Y-56121000D02*
X25830000Y-56121000D01*
X23070000Y-56121000D02*
X18288000Y-56121000D01*
X30603000Y-56161000D02*
X25830000Y-56161000D01*
X23070000Y-56161000D02*
X18297000Y-56161000D01*
X30594000Y-56201000D02*
X25830000Y-56201000D01*
X23070000Y-56201000D02*
X18306000Y-56201000D01*
X30585000Y-56241000D02*
X25830000Y-56241000D01*
X23070000Y-56241000D02*
X18315000Y-56241000D01*
X30575000Y-56281000D02*
X25830000Y-56281000D01*
X23070000Y-56281000D02*
X18325000Y-56281000D01*
X30566000Y-56321000D02*
X25830000Y-56321000D01*
X23070000Y-56321000D02*
X18334000Y-56321000D01*
X30556000Y-56361000D02*
X25830000Y-56361000D01*
X23070000Y-56361000D02*
X18344000Y-56361000D01*
X30545000Y-56401000D02*
X25830000Y-56401000D01*
X23070000Y-56401000D02*
X18355000Y-56401000D01*
X30535000Y-56441000D02*
X25830000Y-56441000D01*
X23070000Y-56441000D02*
X18365000Y-56441000D01*
X30524000Y-56481000D02*
X25830000Y-56481000D01*
X23070000Y-56481000D02*
X18376000Y-56481000D01*
X30513000Y-56521000D02*
X25830000Y-56521000D01*
X23070000Y-56521000D02*
X18387000Y-56521000D01*
X30501000Y-56561000D02*
X25830000Y-56561000D01*
X23070000Y-56561000D02*
X18399000Y-56561000D01*
X30490000Y-56601000D02*
X25830000Y-56601000D01*
X23070000Y-56601000D02*
X18410000Y-56601000D01*
X30478000Y-56641000D02*
X25830000Y-56641000D01*
X23070000Y-56641000D02*
X18422000Y-56641000D01*
X30465000Y-56681000D02*
X25830000Y-56681000D01*
X23070000Y-56681000D02*
X18435000Y-56681000D01*
X30453000Y-56721000D02*
X25830000Y-56721000D01*
X23070000Y-56721000D02*
X18447000Y-56721000D01*
X30440000Y-56761000D02*
X25830000Y-56761000D01*
X23070000Y-56761000D02*
X18460000Y-56761000D01*
X30427000Y-56801000D02*
X25830000Y-56801000D01*
X23070000Y-56801000D02*
X18473000Y-56801000D01*
X30413000Y-56841000D02*
X25830000Y-56841000D01*
X23070000Y-56841000D02*
X18487000Y-56841000D01*
X30400000Y-56881000D02*
X25830000Y-56881000D01*
X23070000Y-56881000D02*
X18500000Y-56881000D01*
X30386000Y-56921000D02*
X25830000Y-56921000D01*
X23070000Y-56921000D02*
X18514000Y-56921000D01*
X30371000Y-56961000D02*
X25830000Y-56961000D01*
X23070000Y-56961000D02*
X18529000Y-56961000D01*
X30357000Y-57001000D02*
X25830000Y-57001000D01*
X23070000Y-57001000D02*
X18543000Y-57001000D01*
X30342000Y-57041000D02*
X25830000Y-57041000D01*
X23070000Y-57041000D02*
X18558000Y-57041000D01*
X30326000Y-57081000D02*
X25830000Y-57081000D01*
X23070000Y-57081000D02*
X18574000Y-57081000D01*
X30311000Y-57121000D02*
X25830000Y-57121000D01*
X23070000Y-57121000D02*
X18589000Y-57121000D01*
X30295000Y-57161000D02*
X25830000Y-57161000D01*
X23070000Y-57161000D02*
X18605000Y-57161000D01*
X30279000Y-57201000D02*
X25830000Y-57201000D01*
X23070000Y-57201000D02*
X18621000Y-57201000D01*
X30262000Y-57241000D02*
X25830000Y-57241000D01*
X23070000Y-57241000D02*
X18638000Y-57241000D01*
X30245000Y-57281000D02*
X25830000Y-57281000D01*
X23070000Y-57281000D02*
X18655000Y-57281000D01*
X30228000Y-57321000D02*
X25830000Y-57321000D01*
X23070000Y-57321000D02*
X18672000Y-57321000D01*
X30211000Y-57361000D02*
X25830000Y-57361000D01*
X23070000Y-57361000D02*
X18689000Y-57361000D01*
X30193000Y-57401000D02*
X25830000Y-57401000D01*
X23070000Y-57401000D02*
X18707000Y-57401000D01*
X30175000Y-57441000D02*
X25830000Y-57441000D01*
X23070000Y-57441000D02*
X18725000Y-57441000D01*
X30156000Y-57481000D02*
X25830000Y-57481000D01*
X23070000Y-57481000D02*
X18744000Y-57481000D01*
X30137000Y-57521000D02*
X25830000Y-57521000D01*
X23070000Y-57521000D02*
X18763000Y-57521000D01*
X30118000Y-57561000D02*
X25830000Y-57561000D01*
X23070000Y-57561000D02*
X18782000Y-57561000D01*
X30099000Y-57601000D02*
X25830000Y-57601000D01*
X23070000Y-57601000D02*
X18801000Y-57601000D01*
X30079000Y-57641000D02*
X25830000Y-57641000D01*
X23070000Y-57641000D02*
X18821000Y-57641000D01*
X30059000Y-57681000D02*
X25830000Y-57681000D01*
X23070000Y-57681000D02*
X18841000Y-57681000D01*
X30038000Y-57721000D02*
X25830000Y-57721000D01*
X23070000Y-57721000D02*
X18862000Y-57721000D01*
X30017000Y-57761000D02*
X25830000Y-57761000D01*
X23070000Y-57761000D02*
X18883000Y-57761000D01*
X29996000Y-57801000D02*
X25830000Y-57801000D01*
X23070000Y-57801000D02*
X18904000Y-57801000D01*
X29974000Y-57841000D02*
X25830000Y-57841000D01*
X23070000Y-57841000D02*
X18926000Y-57841000D01*
X29952000Y-57881000D02*
X25830000Y-57881000D01*
X23070000Y-57881000D02*
X18948000Y-57881000D01*
X29930000Y-57921000D02*
X25830000Y-57921000D01*
X23070000Y-57921000D02*
X18970000Y-57921000D01*
X29907000Y-57961000D02*
X25830000Y-57961000D01*
X23070000Y-57961000D02*
X18993000Y-57961000D01*
X29884000Y-58001000D02*
X25830000Y-58001000D01*
X23070000Y-58001000D02*
X19016000Y-58001000D01*
X29860000Y-58041000D02*
X25830000Y-58041000D01*
X23070000Y-58041000D02*
X19040000Y-58041000D01*
X29836000Y-58081000D02*
X25830000Y-58081000D01*
X23070000Y-58081000D02*
X19064000Y-58081000D01*
X29812000Y-58121000D02*
X25830000Y-58121000D01*
X23070000Y-58121000D02*
X19088000Y-58121000D01*
X29787000Y-58161000D02*
X25830000Y-58161000D01*
X23070000Y-58161000D02*
X19113000Y-58161000D01*
X29762000Y-58201000D02*
X25830000Y-58201000D01*
X23070000Y-58201000D02*
X19138000Y-58201000D01*
X29736000Y-58241000D02*
X25830000Y-58241000D01*
X23070000Y-58241000D02*
X19164000Y-58241000D01*
X29710000Y-58281000D02*
X25830000Y-58281000D01*
X23070000Y-58281000D02*
X19190000Y-58281000D01*
X29684000Y-58321000D02*
X25830000Y-58321000D01*
X23070000Y-58321000D02*
X19216000Y-58321000D01*
X29657000Y-58361000D02*
X25830000Y-58361000D01*
X23070000Y-58361000D02*
X19243000Y-58361000D01*
X29629000Y-58401000D02*
X25830000Y-58401000D01*
X23070000Y-58401000D02*
X19271000Y-58401000D01*
X29601000Y-58441000D02*
X25830000Y-58441000D01*
X23070000Y-58441000D02*
X19299000Y-58441000D01*
X29573000Y-58481000D02*
X25830000Y-58481000D01*
X23070000Y-58481000D02*
X19327000Y-58481000D01*
X29544000Y-58521000D02*
X25830000Y-58521000D01*
X23070000Y-58521000D02*
X19356000Y-58521000D01*
X29515000Y-58561000D02*
X25830000Y-58561000D01*
X23070000Y-58561000D02*
X19385000Y-58561000D01*
X29485000Y-58601000D02*
X25830000Y-58601000D01*
X23070000Y-58601000D02*
X19415000Y-58601000D01*
X29455000Y-58641000D02*
X25830000Y-58641000D01*
X23070000Y-58641000D02*
X19445000Y-58641000D01*
X29425000Y-58681000D02*
X19475000Y-58681000D01*
X29393000Y-58721000D02*
X19507000Y-58721000D01*
X29362000Y-58761000D02*
X19538000Y-58761000D01*
X29329000Y-58801000D02*
X19571000Y-58801000D01*
X29297000Y-58841000D02*
X19603000Y-58841000D01*
X29263000Y-58881000D02*
X19637000Y-58881000D01*
X29229000Y-58921000D02*
X19671000Y-58921000D01*
X29195000Y-58961000D02*
X19705000Y-58961000D01*
X29160000Y-59001000D02*
X19740000Y-59001000D01*
X29124000Y-59041000D02*
X19776000Y-59041000D01*
X29088000Y-59081000D02*
X19812000Y-59081000D01*
X29051000Y-59121000D02*
X19849000Y-59121000D01*
X29013000Y-59161000D02*
X19887000Y-59161000D01*
X28975000Y-59201000D02*
X19925000Y-59201000D01*
X28936000Y-59241000D02*
X19964000Y-59241000D01*
X28897000Y-59281000D02*
X20003000Y-59281000D01*
X28856000Y-59321000D02*
X20044000Y-59321000D01*
X28815000Y-59361000D02*
X20085000Y-59361000D01*
X28773000Y-59401000D02*
X20127000Y-59401000D01*
X28731000Y-59441000D02*
X20169000Y-59441000D01*
X28688000Y-59481000D02*
X20212000Y-59481000D01*
X28643000Y-59521000D02*
X20257000Y-59521000D01*
X28598000Y-59561000D02*
X20302000Y-59561000D01*
X28552000Y-59601000D02*
X20348000Y-59601000D01*
X28506000Y-59641000D02*
X20394000Y-59641000D01*
X28458000Y-59681000D02*
X20442000Y-59681000D01*
X28409000Y-59721000D02*
X20491000Y-59721000D01*
X28359000Y-59761000D02*
X20541000Y-59761000D01*
X28309000Y-59801000D02*
X20591000Y-59801000D01*
X28257000Y-59841000D02*
X20643000Y-59841000D01*
X28204000Y-59881000D02*
X20696000Y-59881000D01*
X28150000Y-59921000D02*
X20750000Y-59921000D01*
X28094000Y-59961000D02*
X20806000Y-59961000D01*
X28038000Y-60001000D02*
X20862000Y-60001000D01*
X27980000Y-60041000D02*
X20920000Y-60041000D01*
X27920000Y-60081000D02*
X20980000Y-60081000D01*
X27859000Y-60121000D02*
X21041000Y-60121000D01*
X27797000Y-60161000D02*
X21103000Y-60161000D01*
X27732000Y-60201000D02*
X21168000Y-60201000D01*
X27667000Y-60241000D02*
X21233000Y-60241000D01*
X27599000Y-60281000D02*
X21301000Y-60281000D01*
X27529000Y-60321000D02*
X21371000Y-60321000D01*
X27457000Y-60361000D02*
X21443000Y-60361000D01*
X27383000Y-60401000D02*
X21517000Y-60401000D01*
X27306000Y-60441000D02*
X21594000Y-60441000D01*
X27227000Y-60481000D02*
X21673000Y-60481000D01*
X27145000Y-60521000D02*
X21755000Y-60521000D01*
X27060000Y-60561000D02*
X21840000Y-60561000D01*
X26971000Y-60601000D02*
X21929000Y-60601000D01*
X26878000Y-60641000D02*
X22022000Y-60641000D01*
X26781000Y-60681000D02*
X22119000Y-60681000D01*
X26680000Y-60721000D02*
X22220000Y-60721000D01*
X26572000Y-60761000D02*
X22328000Y-60761000D01*
X26459000Y-60801000D02*
X22441000Y-60801000D01*
X26338000Y-60841000D02*
X22562000Y-60841000D01*
X26207000Y-60881000D02*
X22693000Y-60881000D01*
X26066000Y-60921000D02*
X22834000Y-60921000D01*
X25910000Y-60961000D02*
X22990000Y-60961000D01*
X25735000Y-61001000D02*
X23165000Y-61001000D01*
X25532000Y-61041000D02*
X23368000Y-61041000D01*
X25281000Y-61081000D02*
X23619000Y-61081000D01*
X24914000Y-61121000D02*
X23986000Y-61121000D01*
X24450000Y-49100000D02*
X24450000Y-50900000D01*
X25350000Y-50000000D02*
X23550000Y-50000000D01*
X82960000Y-33990000D02*
X82960000Y-39110000D01*
X80340000Y-33990000D02*
X80340000Y-39110000D01*
X82960000Y-33990000D02*
X80340000Y-33990000D01*
X82960000Y-39110000D02*
X80340000Y-39110000D01*
X76133264Y-41498437D02*
G75*
G03X76130000Y-31700643I-1383264J4898437D01*
G01*
X73366736Y-41498437D02*
G75*
G02X73370000Y-31700643I1383264J4898437D01*
G01*
X73366736Y-41498437D02*
G75*
G03X76130000Y-41499357I1383264J4898437D01*
G01*
X79800000Y-36600000D02*
X69700000Y-36600000D01*
X79800000Y-36640000D02*
X69700000Y-36640000D01*
X79800000Y-36680000D02*
X69700000Y-36680000D01*
X79799000Y-36720000D02*
X69701000Y-36720000D01*
X79798000Y-36760000D02*
X69702000Y-36760000D01*
X79797000Y-36800000D02*
X69703000Y-36800000D01*
X79795000Y-36840000D02*
X69705000Y-36840000D01*
X79793000Y-36880000D02*
X69707000Y-36880000D01*
X79790000Y-36920000D02*
X69710000Y-36920000D01*
X79788000Y-36960000D02*
X69712000Y-36960000D01*
X79785000Y-37000000D02*
X69715000Y-37000000D01*
X79781000Y-37040000D02*
X69719000Y-37040000D01*
X79778000Y-37080000D02*
X69722000Y-37080000D01*
X79774000Y-37120000D02*
X69726000Y-37120000D01*
X79770000Y-37160000D02*
X69730000Y-37160000D01*
X79765000Y-37200000D02*
X69735000Y-37200000D01*
X79760000Y-37240000D02*
X69740000Y-37240000D01*
X79755000Y-37280000D02*
X69745000Y-37280000D01*
X79749000Y-37321000D02*
X69751000Y-37321000D01*
X79743000Y-37361000D02*
X69757000Y-37361000D01*
X79737000Y-37401000D02*
X69763000Y-37401000D01*
X79731000Y-37441000D02*
X69769000Y-37441000D01*
X79724000Y-37481000D02*
X69776000Y-37481000D01*
X79717000Y-37521000D02*
X69783000Y-37521000D01*
X79709000Y-37561000D02*
X69791000Y-37561000D01*
X79701000Y-37601000D02*
X69799000Y-37601000D01*
X79693000Y-37641000D02*
X69807000Y-37641000D01*
X79685000Y-37681000D02*
X69815000Y-37681000D01*
X79676000Y-37721000D02*
X69824000Y-37721000D01*
X79667000Y-37761000D02*
X69833000Y-37761000D01*
X79657000Y-37801000D02*
X69843000Y-37801000D01*
X79647000Y-37841000D02*
X69853000Y-37841000D01*
X79637000Y-37881000D02*
X69863000Y-37881000D01*
X79626000Y-37921000D02*
X75931000Y-37921000D01*
X73569000Y-37921000D02*
X69874000Y-37921000D01*
X79615000Y-37961000D02*
X75931000Y-37961000D01*
X73569000Y-37961000D02*
X69885000Y-37961000D01*
X79604000Y-38001000D02*
X75931000Y-38001000D01*
X73569000Y-38001000D02*
X69896000Y-38001000D01*
X79593000Y-38041000D02*
X75931000Y-38041000D01*
X73569000Y-38041000D02*
X69907000Y-38041000D01*
X79581000Y-38081000D02*
X75931000Y-38081000D01*
X73569000Y-38081000D02*
X69919000Y-38081000D01*
X79568000Y-38121000D02*
X75931000Y-38121000D01*
X73569000Y-38121000D02*
X69932000Y-38121000D01*
X79556000Y-38161000D02*
X75931000Y-38161000D01*
X73569000Y-38161000D02*
X69944000Y-38161000D01*
X79542000Y-38201000D02*
X75931000Y-38201000D01*
X73569000Y-38201000D02*
X69958000Y-38201000D01*
X79529000Y-38241000D02*
X75931000Y-38241000D01*
X73569000Y-38241000D02*
X69971000Y-38241000D01*
X79515000Y-38281000D02*
X75931000Y-38281000D01*
X73569000Y-38281000D02*
X69985000Y-38281000D01*
X79501000Y-38321000D02*
X75931000Y-38321000D01*
X73569000Y-38321000D02*
X69999000Y-38321000D01*
X79487000Y-38361000D02*
X75931000Y-38361000D01*
X73569000Y-38361000D02*
X70013000Y-38361000D01*
X79472000Y-38401000D02*
X75931000Y-38401000D01*
X73569000Y-38401000D02*
X70028000Y-38401000D01*
X79456000Y-38441000D02*
X75931000Y-38441000D01*
X73569000Y-38441000D02*
X70044000Y-38441000D01*
X79441000Y-38481000D02*
X75931000Y-38481000D01*
X73569000Y-38481000D02*
X70059000Y-38481000D01*
X79424000Y-38521000D02*
X75931000Y-38521000D01*
X73569000Y-38521000D02*
X70076000Y-38521000D01*
X79408000Y-38561000D02*
X75931000Y-38561000D01*
X73569000Y-38561000D02*
X70092000Y-38561000D01*
X79391000Y-38601000D02*
X75931000Y-38601000D01*
X73569000Y-38601000D02*
X70109000Y-38601000D01*
X79374000Y-38641000D02*
X75931000Y-38641000D01*
X73569000Y-38641000D02*
X70126000Y-38641000D01*
X79356000Y-38681000D02*
X75931000Y-38681000D01*
X73569000Y-38681000D02*
X70144000Y-38681000D01*
X79338000Y-38721000D02*
X75931000Y-38721000D01*
X73569000Y-38721000D02*
X70162000Y-38721000D01*
X79319000Y-38761000D02*
X75931000Y-38761000D01*
X73569000Y-38761000D02*
X70181000Y-38761000D01*
X79300000Y-38801000D02*
X75931000Y-38801000D01*
X73569000Y-38801000D02*
X70200000Y-38801000D01*
X79281000Y-38841000D02*
X75931000Y-38841000D01*
X73569000Y-38841000D02*
X70219000Y-38841000D01*
X79261000Y-38881000D02*
X75931000Y-38881000D01*
X73569000Y-38881000D02*
X70239000Y-38881000D01*
X79241000Y-38921000D02*
X75931000Y-38921000D01*
X73569000Y-38921000D02*
X70259000Y-38921000D01*
X79220000Y-38961000D02*
X75931000Y-38961000D01*
X73569000Y-38961000D02*
X70280000Y-38961000D01*
X79199000Y-39001000D02*
X75931000Y-39001000D01*
X73569000Y-39001000D02*
X70301000Y-39001000D01*
X79178000Y-39041000D02*
X75931000Y-39041000D01*
X73569000Y-39041000D02*
X70322000Y-39041000D01*
X79155000Y-39081000D02*
X75931000Y-39081000D01*
X73569000Y-39081000D02*
X70345000Y-39081000D01*
X79133000Y-39121000D02*
X75931000Y-39121000D01*
X73569000Y-39121000D02*
X70367000Y-39121000D01*
X79110000Y-39161000D02*
X75931000Y-39161000D01*
X73569000Y-39161000D02*
X70390000Y-39161000D01*
X79086000Y-39201000D02*
X75931000Y-39201000D01*
X73569000Y-39201000D02*
X70414000Y-39201000D01*
X79062000Y-39241000D02*
X75931000Y-39241000D01*
X73569000Y-39241000D02*
X70438000Y-39241000D01*
X79038000Y-39281000D02*
X75931000Y-39281000D01*
X73569000Y-39281000D02*
X70462000Y-39281000D01*
X79013000Y-39321000D02*
X75931000Y-39321000D01*
X73569000Y-39321000D02*
X70487000Y-39321000D01*
X78987000Y-39361000D02*
X75931000Y-39361000D01*
X73569000Y-39361000D02*
X70513000Y-39361000D01*
X78961000Y-39401000D02*
X75931000Y-39401000D01*
X73569000Y-39401000D02*
X70539000Y-39401000D01*
X78935000Y-39441000D02*
X75931000Y-39441000D01*
X73569000Y-39441000D02*
X70565000Y-39441000D01*
X78907000Y-39481000D02*
X75931000Y-39481000D01*
X73569000Y-39481000D02*
X70593000Y-39481000D01*
X78880000Y-39521000D02*
X75931000Y-39521000D01*
X73569000Y-39521000D02*
X70620000Y-39521000D01*
X78851000Y-39561000D02*
X75931000Y-39561000D01*
X73569000Y-39561000D02*
X70649000Y-39561000D01*
X78822000Y-39601000D02*
X75931000Y-39601000D01*
X73569000Y-39601000D02*
X70678000Y-39601000D01*
X78793000Y-39641000D02*
X75931000Y-39641000D01*
X73569000Y-39641000D02*
X70707000Y-39641000D01*
X78763000Y-39681000D02*
X75931000Y-39681000D01*
X73569000Y-39681000D02*
X70737000Y-39681000D01*
X78732000Y-39721000D02*
X75931000Y-39721000D01*
X73569000Y-39721000D02*
X70768000Y-39721000D01*
X78701000Y-39761000D02*
X75931000Y-39761000D01*
X73569000Y-39761000D02*
X70799000Y-39761000D01*
X78669000Y-39801000D02*
X75931000Y-39801000D01*
X73569000Y-39801000D02*
X70831000Y-39801000D01*
X78636000Y-39841000D02*
X75931000Y-39841000D01*
X73569000Y-39841000D02*
X70864000Y-39841000D01*
X78603000Y-39881000D02*
X75931000Y-39881000D01*
X73569000Y-39881000D02*
X70897000Y-39881000D01*
X78569000Y-39921000D02*
X75931000Y-39921000D01*
X73569000Y-39921000D02*
X70931000Y-39921000D01*
X78534000Y-39961000D02*
X75931000Y-39961000D01*
X73569000Y-39961000D02*
X70966000Y-39961000D01*
X78498000Y-40001000D02*
X75931000Y-40001000D01*
X73569000Y-40001000D02*
X71002000Y-40001000D01*
X78462000Y-40041000D02*
X75931000Y-40041000D01*
X73569000Y-40041000D02*
X71038000Y-40041000D01*
X78425000Y-40081000D02*
X75931000Y-40081000D01*
X73569000Y-40081000D02*
X71075000Y-40081000D01*
X78387000Y-40121000D02*
X75931000Y-40121000D01*
X73569000Y-40121000D02*
X71113000Y-40121000D01*
X78348000Y-40161000D02*
X75931000Y-40161000D01*
X73569000Y-40161000D02*
X71152000Y-40161000D01*
X78309000Y-40201000D02*
X75931000Y-40201000D01*
X73569000Y-40201000D02*
X71191000Y-40201000D01*
X78268000Y-40241000D02*
X75931000Y-40241000D01*
X73569000Y-40241000D02*
X71232000Y-40241000D01*
X78227000Y-40281000D02*
X71273000Y-40281000D01*
X78185000Y-40321000D02*
X71315000Y-40321000D01*
X78141000Y-40361000D02*
X71359000Y-40361000D01*
X78097000Y-40401000D02*
X71403000Y-40401000D01*
X78052000Y-40441000D02*
X71448000Y-40441000D01*
X78005000Y-40481000D02*
X71495000Y-40481000D01*
X77957000Y-40521000D02*
X71543000Y-40521000D01*
X77908000Y-40561000D02*
X71592000Y-40561000D01*
X77858000Y-40601000D02*
X71642000Y-40601000D01*
X77807000Y-40641000D02*
X71693000Y-40641000D01*
X77754000Y-40681000D02*
X71746000Y-40681000D01*
X77699000Y-40721000D02*
X71801000Y-40721000D01*
X77644000Y-40761000D02*
X71856000Y-40761000D01*
X77586000Y-40801000D02*
X71914000Y-40801000D01*
X77527000Y-40841000D02*
X71973000Y-40841000D01*
X77465000Y-40881000D02*
X72035000Y-40881000D01*
X77402000Y-40921000D02*
X72098000Y-40921000D01*
X77337000Y-40961000D02*
X72163000Y-40961000D01*
X77269000Y-41001000D02*
X72231000Y-41001000D01*
X77199000Y-41041000D02*
X72301000Y-41041000D01*
X77127000Y-41081000D02*
X72373000Y-41081000D01*
X77051000Y-41121000D02*
X72449000Y-41121000D01*
X76972000Y-41161000D02*
X72528000Y-41161000D01*
X76890000Y-41201000D02*
X72610000Y-41201000D01*
X76803000Y-41241000D02*
X72697000Y-41241000D01*
X76712000Y-41281000D02*
X72788000Y-41281000D01*
X76616000Y-41321000D02*
X72884000Y-41321000D01*
X76513000Y-41361000D02*
X72987000Y-41361000D01*
X76404000Y-41401000D02*
X73096000Y-41401000D01*
X76286000Y-41441000D02*
X73214000Y-41441000D01*
X76157000Y-41481000D02*
X73343000Y-41481000D01*
X76015000Y-41521000D02*
X73485000Y-41521000D01*
X75854000Y-41561000D02*
X73646000Y-41561000D01*
X75663000Y-41601000D02*
X73837000Y-41601000D01*
X75422000Y-41641000D02*
X74078000Y-41641000D01*
X75029000Y-41681000D02*
X74471000Y-41681000D01*
X74750000Y-31400000D02*
X74750000Y-32900000D01*
X75500000Y-32150000D02*
X74000000Y-32150000D01*
X73590000Y-26460000D02*
X73590000Y-21340000D01*
X76210000Y-26460000D02*
X76210000Y-21340000D01*
X73590000Y-26460000D02*
X76210000Y-26460000D01*
X73590000Y-21340000D02*
X76210000Y-21340000D01*
X69840000Y-26460000D02*
X69840000Y-21340000D01*
X72460000Y-26460000D02*
X72460000Y-21340000D01*
X69840000Y-26460000D02*
X72460000Y-26460000D01*
X69840000Y-21340000D02*
X72460000Y-21340000D01*
X86600000Y-24240000D02*
X84800000Y-24240000D01*
X84800000Y-27460000D02*
X87250000Y-27460000D01*
X27870000Y-46750000D02*
X30530000Y-46750000D01*
X27870000Y-39070000D02*
X27870000Y-46750000D01*
X30530000Y-39070000D02*
X30530000Y-46750000D01*
X27870000Y-39070000D02*
X30530000Y-39070000D01*
X27870000Y-37800000D02*
X27870000Y-36470000D01*
X27870000Y-36470000D02*
X29200000Y-36470000D01*
X32190000Y-49210000D02*
X35510000Y-49210000D01*
X35510000Y-49210000D02*
X35510000Y-40090000D01*
X35510000Y-40090000D02*
X32190000Y-40090000D01*
X32190000Y-40090000D02*
X32190000Y-49210000D01*
X33850000Y-50020000D02*
X33850000Y-49210000D01*
X33850000Y-39280000D02*
X33850000Y-40090000D01*
X87190000Y-41710000D02*
X90510000Y-41710000D01*
X90510000Y-41710000D02*
X90510000Y-32590000D01*
X90510000Y-32590000D02*
X87190000Y-32590000D01*
X87190000Y-32590000D02*
X87190000Y-41710000D01*
X88850000Y-42520000D02*
X88850000Y-41710000D01*
X88850000Y-31780000D02*
X88850000Y-32590000D01*
X87190000Y-56910000D02*
X90510000Y-56910000D01*
X90510000Y-56910000D02*
X90510000Y-47790000D01*
X90510000Y-47790000D02*
X87190000Y-47790000D01*
X87190000Y-47790000D02*
X87190000Y-56910000D01*
X88850000Y-57720000D02*
X88850000Y-56910000D01*
X88850000Y-46980000D02*
X88850000Y-47790000D01*
X91090000Y-41710000D02*
X94410000Y-41710000D01*
X94410000Y-41710000D02*
X94410000Y-32590000D01*
X94410000Y-32590000D02*
X91090000Y-32590000D01*
X91090000Y-32590000D02*
X91090000Y-41710000D01*
X92750000Y-42520000D02*
X92750000Y-41710000D01*
X92750000Y-31780000D02*
X92750000Y-32590000D01*
X91090000Y-56910000D02*
X94410000Y-56910000D01*
X94410000Y-56910000D02*
X94410000Y-47790000D01*
X94410000Y-47790000D02*
X91090000Y-47790000D01*
X91090000Y-47790000D02*
X91090000Y-56910000D01*
X92750000Y-57720000D02*
X92750000Y-56910000D01*
X92750000Y-46980000D02*
X92750000Y-47790000D01*
X59950000Y-70400000D02*
X75150000Y-70400000D01*
X59950000Y-71500000D02*
X75150000Y-71500000D01*
X59950000Y-72000000D02*
X59950000Y-61600000D01*
X59950000Y-61600000D02*
X75150000Y-61600000D01*
X75150000Y-61600000D02*
X75150000Y-72000000D01*
X65050000Y-71500000D02*
X65050000Y-71900000D01*
X70050000Y-71500000D02*
X70050000Y-71900000D01*
X59710000Y-69400000D02*
X59710000Y-72240000D01*
X59710000Y-72240000D02*
X62550000Y-72240000D01*
X76250000Y-70400000D02*
X91450000Y-70400000D01*
X76250000Y-71500000D02*
X91450000Y-71500000D01*
X76250000Y-72000000D02*
X76250000Y-61600000D01*
X76250000Y-61600000D02*
X91450000Y-61600000D01*
X91450000Y-61600000D02*
X91450000Y-72000000D01*
X81350000Y-71500000D02*
X81350000Y-71900000D01*
X86350000Y-71500000D02*
X86350000Y-71900000D01*
X76010000Y-69400000D02*
X76010000Y-72240000D01*
X76010000Y-72240000D02*
X78850000Y-72240000D01*
X50670000Y-21220000D02*
G75*
G02X48670000Y-21220000I-1000000J0D01*
G01*
X48670000Y-21220000D02*
X43210000Y-21220000D01*
X43210000Y-21220000D02*
X43210000Y-72140000D01*
X43210000Y-72140000D02*
X56130000Y-72140000D01*
X56130000Y-72140000D02*
X56130000Y-21220000D01*
X56130000Y-21220000D02*
X50670000Y-21220000D01*
X80830000Y-26250000D02*
X80830000Y-27450000D01*
X79070000Y-27450000D02*
X79070000Y-26250000D01*
X80830000Y-22500000D02*
X80830000Y-23700000D01*
X79070000Y-23700000D02*
X79070000Y-22500000D01*
X39280000Y-21160000D02*
X36620000Y-21160000D01*
X39280000Y-56780000D02*
X39280000Y-21160000D01*
X36620000Y-56780000D02*
X36620000Y-21160000D01*
X39280000Y-56780000D02*
X36620000Y-56780000D01*
X39280000Y-58050000D02*
X39280000Y-59380000D01*
X39280000Y-59380000D02*
X37950000Y-59380000D01*
X59120000Y-36590000D02*
X61780000Y-36590000D01*
X59120000Y-26370000D02*
X59120000Y-36590000D01*
X61780000Y-26370000D02*
X61780000Y-36590000D01*
X59120000Y-26370000D02*
X61780000Y-26370000D01*
X59120000Y-25100000D02*
X59120000Y-23770000D01*
X59120000Y-23770000D02*
X60450000Y-23770000D01*
D11*
X70963810Y-52582381D02*
X70963810Y-51582381D01*
X72011429Y-52487143D02*
X71963810Y-52534762D01*
X71820953Y-52582381D01*
X71725715Y-52582381D01*
X71582857Y-52534762D01*
X71487619Y-52439524D01*
X71440000Y-52344286D01*
X71392381Y-52153810D01*
X71392381Y-52010952D01*
X71440000Y-51820476D01*
X71487619Y-51725238D01*
X71582857Y-51630000D01*
X71725715Y-51582381D01*
X71820953Y-51582381D01*
X71963810Y-51630000D01*
X72011429Y-51677619D01*
X72392381Y-51677619D02*
X72440000Y-51630000D01*
X72535238Y-51582381D01*
X72773334Y-51582381D01*
X72868572Y-51630000D01*
X72916191Y-51677619D01*
X72963810Y-51772857D01*
X72963810Y-51868095D01*
X72916191Y-52010952D01*
X72344762Y-52582381D01*
X72963810Y-52582381D01*
X26367143Y-32566666D02*
X26414762Y-32614285D01*
X26462381Y-32757142D01*
X26462381Y-32852380D01*
X26414762Y-32995238D01*
X26319524Y-33090476D01*
X26224286Y-33138095D01*
X26033810Y-33185714D01*
X25890952Y-33185714D01*
X25700476Y-33138095D01*
X25605238Y-33090476D01*
X25510000Y-32995238D01*
X25462381Y-32852380D01*
X25462381Y-32757142D01*
X25510000Y-32614285D01*
X25557619Y-32566666D01*
X26462381Y-31614285D02*
X26462381Y-32185714D01*
X26462381Y-31900000D02*
X25462381Y-31900000D01*
X25605238Y-31995238D01*
X25700476Y-32090476D01*
X25748095Y-32185714D01*
X37417143Y-26316666D02*
X37464762Y-26364285D01*
X37512381Y-26507142D01*
X37512381Y-26602380D01*
X37464762Y-26745238D01*
X37369524Y-26840476D01*
X37274286Y-26888095D01*
X37083810Y-26935714D01*
X36940952Y-26935714D01*
X36750476Y-26888095D01*
X36655238Y-26840476D01*
X36560000Y-26745238D01*
X36512381Y-26602380D01*
X36512381Y-26507142D01*
X36560000Y-26364285D01*
X36607619Y-26316666D01*
X36607619Y-25935714D02*
X36560000Y-25888095D01*
X36512381Y-25792857D01*
X36512381Y-25554761D01*
X36560000Y-25459523D01*
X36607619Y-25411904D01*
X36702857Y-25364285D01*
X36798095Y-25364285D01*
X36940952Y-25411904D01*
X37512381Y-25983333D01*
X37512381Y-25364285D01*
X23807143Y-40466666D02*
X23854762Y-40514285D01*
X23902381Y-40657142D01*
X23902381Y-40752380D01*
X23854762Y-40895238D01*
X23759524Y-40990476D01*
X23664286Y-41038095D01*
X23473810Y-41085714D01*
X23330952Y-41085714D01*
X23140476Y-41038095D01*
X23045238Y-40990476D01*
X22950000Y-40895238D01*
X22902381Y-40752380D01*
X22902381Y-40657142D01*
X22950000Y-40514285D01*
X22997619Y-40466666D01*
X22902381Y-40133333D02*
X22902381Y-39514285D01*
X23283333Y-39847619D01*
X23283333Y-39704761D01*
X23330952Y-39609523D01*
X23378571Y-39561904D01*
X23473810Y-39514285D01*
X23711905Y-39514285D01*
X23807143Y-39561904D01*
X23854762Y-39609523D01*
X23902381Y-39704761D01*
X23902381Y-39990476D01*
X23854762Y-40085714D01*
X23807143Y-40133333D01*
X40667143Y-65966666D02*
X40714762Y-66014285D01*
X40762381Y-66157142D01*
X40762381Y-66252380D01*
X40714762Y-66395238D01*
X40619524Y-66490476D01*
X40524286Y-66538095D01*
X40333810Y-66585714D01*
X40190952Y-66585714D01*
X40000476Y-66538095D01*
X39905238Y-66490476D01*
X39810000Y-66395238D01*
X39762381Y-66252380D01*
X39762381Y-66157142D01*
X39810000Y-66014285D01*
X39857619Y-65966666D01*
X40095714Y-65109523D02*
X40762381Y-65109523D01*
X39714762Y-65347619D02*
X40429048Y-65585714D01*
X40429048Y-64966666D01*
X32367143Y-54966666D02*
X32414762Y-55014285D01*
X32462381Y-55157142D01*
X32462381Y-55252380D01*
X32414762Y-55395238D01*
X32319524Y-55490476D01*
X32224286Y-55538095D01*
X32033810Y-55585714D01*
X31890952Y-55585714D01*
X31700476Y-55538095D01*
X31605238Y-55490476D01*
X31510000Y-55395238D01*
X31462381Y-55252380D01*
X31462381Y-55157142D01*
X31510000Y-55014285D01*
X31557619Y-54966666D01*
X31462381Y-54061904D02*
X31462381Y-54538095D01*
X31938571Y-54585714D01*
X31890952Y-54538095D01*
X31843333Y-54442857D01*
X31843333Y-54204761D01*
X31890952Y-54109523D01*
X31938571Y-54061904D01*
X32033810Y-54014285D01*
X32271905Y-54014285D01*
X32367143Y-54061904D01*
X32414762Y-54109523D01*
X32462381Y-54204761D01*
X32462381Y-54442857D01*
X32414762Y-54538095D01*
X32367143Y-54585714D01*
X84567143Y-36716666D02*
X84614762Y-36764285D01*
X84662381Y-36907142D01*
X84662381Y-37002380D01*
X84614762Y-37145238D01*
X84519524Y-37240476D01*
X84424286Y-37288095D01*
X84233810Y-37335714D01*
X84090952Y-37335714D01*
X83900476Y-37288095D01*
X83805238Y-37240476D01*
X83710000Y-37145238D01*
X83662381Y-37002380D01*
X83662381Y-36907142D01*
X83710000Y-36764285D01*
X83757619Y-36716666D01*
X83662381Y-35859523D02*
X83662381Y-36050000D01*
X83710000Y-36145238D01*
X83757619Y-36192857D01*
X83900476Y-36288095D01*
X84090952Y-36335714D01*
X84471905Y-36335714D01*
X84567143Y-36288095D01*
X84614762Y-36240476D01*
X84662381Y-36145238D01*
X84662381Y-35954761D01*
X84614762Y-35859523D01*
X84567143Y-35811904D01*
X84471905Y-35764285D01*
X84233810Y-35764285D01*
X84138571Y-35811904D01*
X84090952Y-35859523D01*
X84043333Y-35954761D01*
X84043333Y-36145238D01*
X84090952Y-36240476D01*
X84138571Y-36288095D01*
X84233810Y-36335714D01*
X81417143Y-36766666D02*
X81464762Y-36814285D01*
X81512381Y-36957142D01*
X81512381Y-37052380D01*
X81464762Y-37195238D01*
X81369524Y-37290476D01*
X81274286Y-37338095D01*
X81083810Y-37385714D01*
X80940952Y-37385714D01*
X80750476Y-37338095D01*
X80655238Y-37290476D01*
X80560000Y-37195238D01*
X80512381Y-37052380D01*
X80512381Y-36957142D01*
X80560000Y-36814285D01*
X80607619Y-36766666D01*
X80512381Y-36433333D02*
X80512381Y-35766666D01*
X81512381Y-36195238D01*
X72697143Y-24066666D02*
X72744762Y-24114285D01*
X72792381Y-24257142D01*
X72792381Y-24352380D01*
X72744762Y-24495238D01*
X72649524Y-24590476D01*
X72554286Y-24638095D01*
X72363810Y-24685714D01*
X72220952Y-24685714D01*
X72030476Y-24638095D01*
X71935238Y-24590476D01*
X71840000Y-24495238D01*
X71792381Y-24352380D01*
X71792381Y-24257142D01*
X71840000Y-24114285D01*
X71887619Y-24066666D01*
X72220952Y-23495238D02*
X72173333Y-23590476D01*
X72125714Y-23638095D01*
X72030476Y-23685714D01*
X71982857Y-23685714D01*
X71887619Y-23638095D01*
X71840000Y-23590476D01*
X71792381Y-23495238D01*
X71792381Y-23304761D01*
X71840000Y-23209523D01*
X71887619Y-23161904D01*
X71982857Y-23114285D01*
X72030476Y-23114285D01*
X72125714Y-23161904D01*
X72173333Y-23209523D01*
X72220952Y-23304761D01*
X72220952Y-23495238D01*
X72268571Y-23590476D01*
X72316190Y-23638095D01*
X72411429Y-23685714D01*
X72601905Y-23685714D01*
X72697143Y-23638095D01*
X72744762Y-23590476D01*
X72792381Y-23495238D01*
X72792381Y-23304761D01*
X72744762Y-23209523D01*
X72697143Y-23161904D01*
X72601905Y-23114285D01*
X72411429Y-23114285D01*
X72316190Y-23161904D01*
X72268571Y-23209523D01*
X72220952Y-23304761D01*
X68947143Y-24066666D02*
X68994762Y-24114285D01*
X69042381Y-24257142D01*
X69042381Y-24352380D01*
X68994762Y-24495238D01*
X68899524Y-24590476D01*
X68804286Y-24638095D01*
X68613810Y-24685714D01*
X68470952Y-24685714D01*
X68280476Y-24638095D01*
X68185238Y-24590476D01*
X68090000Y-24495238D01*
X68042381Y-24352380D01*
X68042381Y-24257142D01*
X68090000Y-24114285D01*
X68137619Y-24066666D01*
X69042381Y-23590476D02*
X69042381Y-23400000D01*
X68994762Y-23304761D01*
X68947143Y-23257142D01*
X68804286Y-23161904D01*
X68613810Y-23114285D01*
X68232857Y-23114285D01*
X68137619Y-23161904D01*
X68090000Y-23209523D01*
X68042381Y-23304761D01*
X68042381Y-23495238D01*
X68090000Y-23590476D01*
X68137619Y-23638095D01*
X68232857Y-23685714D01*
X68470952Y-23685714D01*
X68566190Y-23638095D01*
X68613810Y-23590476D01*
X68661429Y-23495238D01*
X68661429Y-23304761D01*
X68613810Y-23209523D01*
X68566190Y-23161904D01*
X68470952Y-23114285D01*
X84723810Y-29202381D02*
X84723810Y-28202381D01*
X85771429Y-29107143D02*
X85723810Y-29154762D01*
X85580953Y-29202381D01*
X85485715Y-29202381D01*
X85342857Y-29154762D01*
X85247619Y-29059524D01*
X85200000Y-28964286D01*
X85152381Y-28773810D01*
X85152381Y-28630952D01*
X85200000Y-28440476D01*
X85247619Y-28345238D01*
X85342857Y-28250000D01*
X85485715Y-28202381D01*
X85580953Y-28202381D01*
X85723810Y-28250000D01*
X85771429Y-28297619D01*
X86104762Y-28202381D02*
X86723810Y-28202381D01*
X86390476Y-28583333D01*
X86533334Y-28583333D01*
X86628572Y-28630952D01*
X86676191Y-28678571D01*
X86723810Y-28773810D01*
X86723810Y-29011905D01*
X86676191Y-29107143D01*
X86628572Y-29154762D01*
X86533334Y-29202381D01*
X86247619Y-29202381D01*
X86152381Y-29154762D01*
X86104762Y-29107143D01*
X28866667Y-34922381D02*
X28866667Y-35636667D01*
X28819047Y-35779524D01*
X28723809Y-35874762D01*
X28580952Y-35922381D01*
X28485714Y-35922381D01*
X29866667Y-35922381D02*
X29295238Y-35922381D01*
X29580952Y-35922381D02*
X29580952Y-34922381D01*
X29485714Y-35065238D01*
X29390476Y-35160476D01*
X29295238Y-35208095D01*
X34277381Y-44816666D02*
X33801190Y-45150000D01*
X34277381Y-45388095D02*
X33277381Y-45388095D01*
X33277381Y-45007142D01*
X33325000Y-44911904D01*
X33372619Y-44864285D01*
X33467857Y-44816666D01*
X33610714Y-44816666D01*
X33705952Y-44864285D01*
X33753571Y-44911904D01*
X33801190Y-45007142D01*
X33801190Y-45388095D01*
X34277381Y-43864285D02*
X34277381Y-44435714D01*
X34277381Y-44150000D02*
X33277381Y-44150000D01*
X33420238Y-44245238D01*
X33515476Y-44340476D01*
X33563095Y-44435714D01*
X89302381Y-37316666D02*
X88826190Y-37650000D01*
X89302381Y-37888095D02*
X88302381Y-37888095D01*
X88302381Y-37507142D01*
X88350000Y-37411904D01*
X88397619Y-37364285D01*
X88492857Y-37316666D01*
X88635714Y-37316666D01*
X88730952Y-37364285D01*
X88778571Y-37411904D01*
X88826190Y-37507142D01*
X88826190Y-37888095D01*
X88635714Y-36459523D02*
X89302381Y-36459523D01*
X88254762Y-36697619D02*
X88969048Y-36935714D01*
X88969048Y-36316666D01*
X89302381Y-52516666D02*
X88826190Y-52850000D01*
X89302381Y-53088095D02*
X88302381Y-53088095D01*
X88302381Y-52707142D01*
X88350000Y-52611904D01*
X88397619Y-52564285D01*
X88492857Y-52516666D01*
X88635714Y-52516666D01*
X88730952Y-52564285D01*
X88778571Y-52611904D01*
X88826190Y-52707142D01*
X88826190Y-53088095D01*
X88302381Y-51611904D02*
X88302381Y-52088095D01*
X88778571Y-52135714D01*
X88730952Y-52088095D01*
X88683333Y-51992857D01*
X88683333Y-51754761D01*
X88730952Y-51659523D01*
X88778571Y-51611904D01*
X88873810Y-51564285D01*
X89111905Y-51564285D01*
X89207143Y-51611904D01*
X89254762Y-51659523D01*
X89302381Y-51754761D01*
X89302381Y-51992857D01*
X89254762Y-52088095D01*
X89207143Y-52135714D01*
X93202381Y-37316666D02*
X92726190Y-37650000D01*
X93202381Y-37888095D02*
X92202381Y-37888095D01*
X92202381Y-37507142D01*
X92250000Y-37411904D01*
X92297619Y-37364285D01*
X92392857Y-37316666D01*
X92535714Y-37316666D01*
X92630952Y-37364285D01*
X92678571Y-37411904D01*
X92726190Y-37507142D01*
X92726190Y-37888095D01*
X92202381Y-36459523D02*
X92202381Y-36650000D01*
X92250000Y-36745238D01*
X92297619Y-36792857D01*
X92440476Y-36888095D01*
X92630952Y-36935714D01*
X93011905Y-36935714D01*
X93107143Y-36888095D01*
X93154762Y-36840476D01*
X93202381Y-36745238D01*
X93202381Y-36554761D01*
X93154762Y-36459523D01*
X93107143Y-36411904D01*
X93011905Y-36364285D01*
X92773810Y-36364285D01*
X92678571Y-36411904D01*
X92630952Y-36459523D01*
X92583333Y-36554761D01*
X92583333Y-36745238D01*
X92630952Y-36840476D01*
X92678571Y-36888095D01*
X92773810Y-36935714D01*
X93177381Y-52516666D02*
X92701190Y-52850000D01*
X93177381Y-53088095D02*
X92177381Y-53088095D01*
X92177381Y-52707142D01*
X92225000Y-52611904D01*
X92272619Y-52564285D01*
X92367857Y-52516666D01*
X92510714Y-52516666D01*
X92605952Y-52564285D01*
X92653571Y-52611904D01*
X92701190Y-52707142D01*
X92701190Y-53088095D01*
X92177381Y-52183333D02*
X92177381Y-51516666D01*
X93177381Y-51945238D01*
X67216667Y-59952381D02*
X67216667Y-60666667D01*
X67169047Y-60809524D01*
X67073809Y-60904762D01*
X66930952Y-60952381D01*
X66835714Y-60952381D01*
X67645238Y-60047619D02*
X67692857Y-60000000D01*
X67788095Y-59952381D01*
X68026191Y-59952381D01*
X68121429Y-60000000D01*
X68169048Y-60047619D01*
X68216667Y-60142857D01*
X68216667Y-60238095D01*
X68169048Y-60380952D01*
X67597619Y-60952381D01*
X68216667Y-60952381D01*
X83516667Y-59952381D02*
X83516667Y-60666667D01*
X83469047Y-60809524D01*
X83373809Y-60904762D01*
X83230952Y-60952381D01*
X83135714Y-60952381D01*
X83897619Y-59952381D02*
X84516667Y-59952381D01*
X84183333Y-60333333D01*
X84326191Y-60333333D01*
X84421429Y-60380952D01*
X84469048Y-60428571D01*
X84516667Y-60523810D01*
X84516667Y-60761905D01*
X84469048Y-60857143D01*
X84421429Y-60904762D01*
X84326191Y-60952381D01*
X84040476Y-60952381D01*
X83945238Y-60904762D01*
X83897619Y-60857143D01*
X48693810Y-20672381D02*
X48693810Y-19672381D01*
X49741429Y-20577143D02*
X49693810Y-20624762D01*
X49550953Y-20672381D01*
X49455715Y-20672381D01*
X49312857Y-20624762D01*
X49217619Y-20529524D01*
X49170000Y-20434286D01*
X49122381Y-20243810D01*
X49122381Y-20100952D01*
X49170000Y-19910476D01*
X49217619Y-19815238D01*
X49312857Y-19720000D01*
X49455715Y-19672381D01*
X49550953Y-19672381D01*
X49693810Y-19720000D01*
X49741429Y-19767619D01*
X50693810Y-20672381D02*
X50122381Y-20672381D01*
X50408095Y-20672381D02*
X50408095Y-19672381D01*
X50312857Y-19815238D01*
X50217619Y-19910476D01*
X50122381Y-19958095D01*
X78752381Y-27016666D02*
X78276190Y-27350000D01*
X78752381Y-27588095D02*
X77752381Y-27588095D01*
X77752381Y-27207142D01*
X77800000Y-27111904D01*
X77847619Y-27064285D01*
X77942857Y-27016666D01*
X78085714Y-27016666D01*
X78180952Y-27064285D01*
X78228571Y-27111904D01*
X78276190Y-27207142D01*
X78276190Y-27588095D01*
X77847619Y-26635714D02*
X77800000Y-26588095D01*
X77752381Y-26492857D01*
X77752381Y-26254761D01*
X77800000Y-26159523D01*
X77847619Y-26111904D01*
X77942857Y-26064285D01*
X78038095Y-26064285D01*
X78180952Y-26111904D01*
X78752381Y-26683333D01*
X78752381Y-26064285D01*
X78752381Y-23266666D02*
X78276190Y-23600000D01*
X78752381Y-23838095D02*
X77752381Y-23838095D01*
X77752381Y-23457142D01*
X77800000Y-23361904D01*
X77847619Y-23314285D01*
X77942857Y-23266666D01*
X78085714Y-23266666D01*
X78180952Y-23314285D01*
X78228571Y-23361904D01*
X78276190Y-23457142D01*
X78276190Y-23838095D01*
X77752381Y-22933333D02*
X77752381Y-22314285D01*
X78133333Y-22647619D01*
X78133333Y-22504761D01*
X78180952Y-22409523D01*
X78228571Y-22361904D01*
X78323810Y-22314285D01*
X78561905Y-22314285D01*
X78657143Y-22361904D01*
X78704762Y-22409523D01*
X78752381Y-22504761D01*
X78752381Y-22790476D01*
X78704762Y-22885714D01*
X78657143Y-22933333D01*
X37616667Y-59832381D02*
X37616667Y-60546667D01*
X37569047Y-60689524D01*
X37473809Y-60784762D01*
X37330952Y-60832381D01*
X37235714Y-60832381D01*
X38521429Y-60165714D02*
X38521429Y-60832381D01*
X38283333Y-59784762D02*
X38045238Y-60499048D01*
X38664286Y-60499048D01*
X60116667Y-22222381D02*
X60116667Y-22936667D01*
X60069047Y-23079524D01*
X59973809Y-23174762D01*
X59830952Y-23222381D01*
X59735714Y-23222381D01*
X61069048Y-22222381D02*
X60592857Y-22222381D01*
X60545238Y-22698571D01*
X60592857Y-22650952D01*
X60688095Y-22603333D01*
X60926191Y-22603333D01*
X61021429Y-22650952D01*
X61069048Y-22698571D01*
X61116667Y-22793810D01*
X61116667Y-23031905D01*
X61069048Y-23127143D01*
X61021429Y-23174762D01*
X60926191Y-23222381D01*
X60688095Y-23222381D01*
X60592857Y-23174762D01*
X60545238Y-23127143D01*
M02*
