G04 #@! TF.GenerationSoftware,KiCad,Pcbnew,5.0.0*
G04 #@! TF.CreationDate,2018-07-21T14:27:13+02:00*
G04 #@! TF.ProjectId,node_1,6E6F64655F312E6B696361645F706362,rev?*
G04 #@! TF.SameCoordinates,Original*
G04 #@! TF.FileFunction,Legend,Bot*
G04 #@! TF.FilePolarity,Positive*
%FSLAX46Y46*%
G04 Gerber Fmt 4.6, Leading zero omitted, Abs format (unit mm)*
G04 Created by KiCad (PCBNEW 5.0.0) date Sat Jul 21 14:27:13 2018*
%MOMM*%
%LPD*%
G01*
G04 APERTURE LIST*
%ADD10C,0.300000*%
%ADD11C,0.120000*%
%ADD12C,0.150000*%
G04 APERTURE END LIST*
D10*
X79903571Y-44035714D02*
X81403571Y-44392857D01*
X80332142Y-44678571D01*
X81403571Y-44964285D01*
X79903571Y-45321428D01*
X81403571Y-46535714D02*
X80617857Y-46535714D01*
X80475000Y-46464285D01*
X80403571Y-46321428D01*
X80403571Y-46035714D01*
X80475000Y-45892857D01*
X81332142Y-46535714D02*
X81403571Y-46392857D01*
X81403571Y-46035714D01*
X81332142Y-45892857D01*
X81189285Y-45821428D01*
X81046428Y-45821428D01*
X80903571Y-45892857D01*
X80832142Y-46035714D01*
X80832142Y-46392857D01*
X80760714Y-46535714D01*
X81332142Y-47178571D02*
X81403571Y-47321428D01*
X81403571Y-47607142D01*
X81332142Y-47750000D01*
X81189285Y-47821428D01*
X81117857Y-47821428D01*
X80975000Y-47750000D01*
X80903571Y-47607142D01*
X80903571Y-47392857D01*
X80832142Y-47250000D01*
X80689285Y-47178571D01*
X80617857Y-47178571D01*
X80475000Y-47250000D01*
X80403571Y-47392857D01*
X80403571Y-47607142D01*
X80475000Y-47750000D01*
X81332142Y-49107142D02*
X81403571Y-48964285D01*
X81403571Y-48678571D01*
X81332142Y-48535714D01*
X81260714Y-48464285D01*
X81117857Y-48392857D01*
X80689285Y-48392857D01*
X80546428Y-48464285D01*
X80475000Y-48535714D01*
X80403571Y-48678571D01*
X80403571Y-48964285D01*
X80475000Y-49107142D01*
X81403571Y-49750000D02*
X79903571Y-49750000D01*
X81403571Y-50392857D02*
X80617857Y-50392857D01*
X80475000Y-50321428D01*
X80403571Y-50178571D01*
X80403571Y-49964285D01*
X80475000Y-49821428D01*
X80546428Y-49750000D01*
X81403571Y-51107142D02*
X79903571Y-51107142D01*
X81403571Y-51964285D01*
X79903571Y-51964285D01*
X81403571Y-52892857D02*
X81332142Y-52750000D01*
X81260714Y-52678571D01*
X81117857Y-52607142D01*
X80689285Y-52607142D01*
X80546428Y-52678571D01*
X80475000Y-52750000D01*
X80403571Y-52892857D01*
X80403571Y-53107142D01*
X80475000Y-53250000D01*
X80546428Y-53321428D01*
X80689285Y-53392857D01*
X81117857Y-53392857D01*
X81260714Y-53321428D01*
X81332142Y-53250000D01*
X81403571Y-53107142D01*
X81403571Y-52892857D01*
X81403571Y-54678571D02*
X79903571Y-54678571D01*
X81332142Y-54678571D02*
X81403571Y-54535714D01*
X81403571Y-54250000D01*
X81332142Y-54107142D01*
X81260714Y-54035714D01*
X81117857Y-53964285D01*
X80689285Y-53964285D01*
X80546428Y-54035714D01*
X80475000Y-54107142D01*
X80403571Y-54250000D01*
X80403571Y-54535714D01*
X80475000Y-54678571D01*
X81332142Y-55964285D02*
X81403571Y-55821428D01*
X81403571Y-55535714D01*
X81332142Y-55392857D01*
X81189285Y-55321428D01*
X80617857Y-55321428D01*
X80475000Y-55392857D01*
X80403571Y-55535714D01*
X80403571Y-55821428D01*
X80475000Y-55964285D01*
X80617857Y-56035714D01*
X80760714Y-56035714D01*
X80903571Y-55321428D01*
X80403571Y-57678571D02*
X81403571Y-58035714D01*
X80403571Y-58392857D01*
X80046428Y-58892857D02*
X79975000Y-58964285D01*
X79903571Y-59107142D01*
X79903571Y-59464285D01*
X79975000Y-59607142D01*
X80046428Y-59678571D01*
X80189285Y-59750000D01*
X80332142Y-59750000D01*
X80546428Y-59678571D01*
X81403571Y-58821428D01*
X81403571Y-59750000D01*
X81260714Y-60392857D02*
X81332142Y-60464285D01*
X81403571Y-60392857D01*
X81332142Y-60321428D01*
X81260714Y-60392857D01*
X81403571Y-60392857D01*
X79903571Y-61392857D02*
X79903571Y-61535714D01*
X79975000Y-61678571D01*
X80046428Y-61750000D01*
X80189285Y-61821428D01*
X80475000Y-61892857D01*
X80832142Y-61892857D01*
X81117857Y-61821428D01*
X81260714Y-61750000D01*
X81332142Y-61678571D01*
X81403571Y-61535714D01*
X81403571Y-61392857D01*
X81332142Y-61250000D01*
X81260714Y-61178571D01*
X81117857Y-61107142D01*
X80832142Y-61035714D01*
X80475000Y-61035714D01*
X80189285Y-61107142D01*
X80046428Y-61178571D01*
X79975000Y-61250000D01*
X79903571Y-61392857D01*
X83882142Y-47785714D02*
X83953571Y-48000000D01*
X83953571Y-48357142D01*
X83882142Y-48500000D01*
X83810714Y-48571428D01*
X83667857Y-48642857D01*
X83525000Y-48642857D01*
X83382142Y-48571428D01*
X83310714Y-48500000D01*
X83239285Y-48357142D01*
X83167857Y-48071428D01*
X83096428Y-47928571D01*
X83025000Y-47857142D01*
X82882142Y-47785714D01*
X82739285Y-47785714D01*
X82596428Y-47857142D01*
X82525000Y-47928571D01*
X82453571Y-48071428D01*
X82453571Y-48428571D01*
X82525000Y-48642857D01*
X82953571Y-49071428D02*
X82953571Y-49642857D01*
X82453571Y-49285714D02*
X83739285Y-49285714D01*
X83882142Y-49357142D01*
X83953571Y-49500000D01*
X83953571Y-49642857D01*
X82953571Y-50785714D02*
X83953571Y-50785714D01*
X82953571Y-50142857D02*
X83739285Y-50142857D01*
X83882142Y-50214285D01*
X83953571Y-50357142D01*
X83953571Y-50571428D01*
X83882142Y-50714285D01*
X83810714Y-50785714D01*
X83882142Y-51428571D02*
X83953571Y-51642857D01*
X83953571Y-52000000D01*
X83882142Y-52142857D01*
X83810714Y-52214285D01*
X83667857Y-52285714D01*
X83525000Y-52285714D01*
X83382142Y-52214285D01*
X83310714Y-52142857D01*
X83239285Y-52000000D01*
X83167857Y-51714285D01*
X83096428Y-51571428D01*
X83025000Y-51500000D01*
X82882142Y-51428571D01*
X82739285Y-51428571D01*
X82596428Y-51500000D01*
X82525000Y-51571428D01*
X82453571Y-51714285D01*
X82453571Y-52071428D01*
X82525000Y-52285714D01*
X82953571Y-52714285D02*
X82953571Y-53285714D01*
X82453571Y-52928571D02*
X83739285Y-52928571D01*
X83882142Y-53000000D01*
X83953571Y-53142857D01*
X83953571Y-53285714D01*
X83953571Y-54428571D02*
X83167857Y-54428571D01*
X83025000Y-54357142D01*
X82953571Y-54214285D01*
X82953571Y-53928571D01*
X83025000Y-53785714D01*
X83882142Y-54428571D02*
X83953571Y-54285714D01*
X83953571Y-53928571D01*
X83882142Y-53785714D01*
X83739285Y-53714285D01*
X83596428Y-53714285D01*
X83453571Y-53785714D01*
X83382142Y-53928571D01*
X83382142Y-54285714D01*
X83310714Y-54428571D01*
X83953571Y-55142857D02*
X82453571Y-55142857D01*
X83953571Y-56000000D01*
X82453571Y-56000000D01*
X83882142Y-57285714D02*
X83953571Y-57142857D01*
X83953571Y-56857142D01*
X83882142Y-56714285D01*
X83739285Y-56642857D01*
X83167857Y-56642857D01*
X83025000Y-56714285D01*
X82953571Y-56857142D01*
X82953571Y-57142857D01*
X83025000Y-57285714D01*
X83167857Y-57357142D01*
X83310714Y-57357142D01*
X83453571Y-56642857D01*
X82953571Y-57785714D02*
X82953571Y-58357142D01*
X82453571Y-58000000D02*
X83739285Y-58000000D01*
X83882142Y-58071428D01*
X83953571Y-58214285D01*
X83953571Y-58357142D01*
X19096428Y-96964285D02*
X17596428Y-96607142D01*
X18667857Y-96321428D01*
X17596428Y-96035714D01*
X19096428Y-95678571D01*
X17596428Y-94464285D02*
X18382142Y-94464285D01*
X18525000Y-94535714D01*
X18596428Y-94678571D01*
X18596428Y-94964285D01*
X18525000Y-95107142D01*
X17667857Y-94464285D02*
X17596428Y-94607142D01*
X17596428Y-94964285D01*
X17667857Y-95107142D01*
X17810714Y-95178571D01*
X17953571Y-95178571D01*
X18096428Y-95107142D01*
X18167857Y-94964285D01*
X18167857Y-94607142D01*
X18239285Y-94464285D01*
X17667857Y-93821428D02*
X17596428Y-93678571D01*
X17596428Y-93392857D01*
X17667857Y-93250000D01*
X17810714Y-93178571D01*
X17882142Y-93178571D01*
X18025000Y-93250000D01*
X18096428Y-93392857D01*
X18096428Y-93607142D01*
X18167857Y-93750000D01*
X18310714Y-93821428D01*
X18382142Y-93821428D01*
X18525000Y-93750000D01*
X18596428Y-93607142D01*
X18596428Y-93392857D01*
X18525000Y-93250000D01*
X17667857Y-91892857D02*
X17596428Y-92035714D01*
X17596428Y-92321428D01*
X17667857Y-92464285D01*
X17739285Y-92535714D01*
X17882142Y-92607142D01*
X18310714Y-92607142D01*
X18453571Y-92535714D01*
X18525000Y-92464285D01*
X18596428Y-92321428D01*
X18596428Y-92035714D01*
X18525000Y-91892857D01*
X17596428Y-91250000D02*
X19096428Y-91250000D01*
X17596428Y-90607142D02*
X18382142Y-90607142D01*
X18525000Y-90678571D01*
X18596428Y-90821428D01*
X18596428Y-91035714D01*
X18525000Y-91178571D01*
X18453571Y-91250000D01*
X17596428Y-89892857D02*
X19096428Y-89892857D01*
X17596428Y-89035714D01*
X19096428Y-89035714D01*
X17596428Y-88107142D02*
X17667857Y-88250000D01*
X17739285Y-88321428D01*
X17882142Y-88392857D01*
X18310714Y-88392857D01*
X18453571Y-88321428D01*
X18525000Y-88250000D01*
X18596428Y-88107142D01*
X18596428Y-87892857D01*
X18525000Y-87750000D01*
X18453571Y-87678571D01*
X18310714Y-87607142D01*
X17882142Y-87607142D01*
X17739285Y-87678571D01*
X17667857Y-87750000D01*
X17596428Y-87892857D01*
X17596428Y-88107142D01*
X17596428Y-86321428D02*
X19096428Y-86321428D01*
X17667857Y-86321428D02*
X17596428Y-86464285D01*
X17596428Y-86750000D01*
X17667857Y-86892857D01*
X17739285Y-86964285D01*
X17882142Y-87035714D01*
X18310714Y-87035714D01*
X18453571Y-86964285D01*
X18525000Y-86892857D01*
X18596428Y-86750000D01*
X18596428Y-86464285D01*
X18525000Y-86321428D01*
X17667857Y-85035714D02*
X17596428Y-85178571D01*
X17596428Y-85464285D01*
X17667857Y-85607142D01*
X17810714Y-85678571D01*
X18382142Y-85678571D01*
X18525000Y-85607142D01*
X18596428Y-85464285D01*
X18596428Y-85178571D01*
X18525000Y-85035714D01*
X18382142Y-84964285D01*
X18239285Y-84964285D01*
X18096428Y-85678571D01*
X18596428Y-83321428D02*
X17596428Y-82964285D01*
X18596428Y-82607142D01*
X18953571Y-82107142D02*
X19025000Y-82035714D01*
X19096428Y-81892857D01*
X19096428Y-81535714D01*
X19025000Y-81392857D01*
X18953571Y-81321428D01*
X18810714Y-81250000D01*
X18667857Y-81250000D01*
X18453571Y-81321428D01*
X17596428Y-82178571D01*
X17596428Y-81250000D01*
X17739285Y-80607142D02*
X17667857Y-80535714D01*
X17596428Y-80607142D01*
X17667857Y-80678571D01*
X17739285Y-80607142D01*
X17596428Y-80607142D01*
X19096428Y-79607142D02*
X19096428Y-79464285D01*
X19025000Y-79321428D01*
X18953571Y-79250000D01*
X18810714Y-79178571D01*
X18525000Y-79107142D01*
X18167857Y-79107142D01*
X17882142Y-79178571D01*
X17739285Y-79250000D01*
X17667857Y-79321428D01*
X17596428Y-79464285D01*
X17596428Y-79607142D01*
X17667857Y-79750000D01*
X17739285Y-79821428D01*
X17882142Y-79892857D01*
X18167857Y-79964285D01*
X18525000Y-79964285D01*
X18810714Y-79892857D01*
X18953571Y-79821428D01*
X19025000Y-79750000D01*
X19096428Y-79607142D01*
X15117857Y-93214285D02*
X15046428Y-93000000D01*
X15046428Y-92642857D01*
X15117857Y-92500000D01*
X15189285Y-92428571D01*
X15332142Y-92357142D01*
X15475000Y-92357142D01*
X15617857Y-92428571D01*
X15689285Y-92500000D01*
X15760714Y-92642857D01*
X15832142Y-92928571D01*
X15903571Y-93071428D01*
X15975000Y-93142857D01*
X16117857Y-93214285D01*
X16260714Y-93214285D01*
X16403571Y-93142857D01*
X16475000Y-93071428D01*
X16546428Y-92928571D01*
X16546428Y-92571428D01*
X16475000Y-92357142D01*
X16046428Y-91928571D02*
X16046428Y-91357142D01*
X16546428Y-91714285D02*
X15260714Y-91714285D01*
X15117857Y-91642857D01*
X15046428Y-91500000D01*
X15046428Y-91357142D01*
X16046428Y-90214285D02*
X15046428Y-90214285D01*
X16046428Y-90857142D02*
X15260714Y-90857142D01*
X15117857Y-90785714D01*
X15046428Y-90642857D01*
X15046428Y-90428571D01*
X15117857Y-90285714D01*
X15189285Y-90214285D01*
X15117857Y-89571428D02*
X15046428Y-89357142D01*
X15046428Y-89000000D01*
X15117857Y-88857142D01*
X15189285Y-88785714D01*
X15332142Y-88714285D01*
X15475000Y-88714285D01*
X15617857Y-88785714D01*
X15689285Y-88857142D01*
X15760714Y-89000000D01*
X15832142Y-89285714D01*
X15903571Y-89428571D01*
X15975000Y-89500000D01*
X16117857Y-89571428D01*
X16260714Y-89571428D01*
X16403571Y-89500000D01*
X16475000Y-89428571D01*
X16546428Y-89285714D01*
X16546428Y-88928571D01*
X16475000Y-88714285D01*
X16046428Y-88285714D02*
X16046428Y-87714285D01*
X16546428Y-88071428D02*
X15260714Y-88071428D01*
X15117857Y-88000000D01*
X15046428Y-87857142D01*
X15046428Y-87714285D01*
X15046428Y-86571428D02*
X15832142Y-86571428D01*
X15975000Y-86642857D01*
X16046428Y-86785714D01*
X16046428Y-87071428D01*
X15975000Y-87214285D01*
X15117857Y-86571428D02*
X15046428Y-86714285D01*
X15046428Y-87071428D01*
X15117857Y-87214285D01*
X15260714Y-87285714D01*
X15403571Y-87285714D01*
X15546428Y-87214285D01*
X15617857Y-87071428D01*
X15617857Y-86714285D01*
X15689285Y-86571428D01*
X15046428Y-85857142D02*
X16546428Y-85857142D01*
X15046428Y-85000000D01*
X16546428Y-85000000D01*
X15117857Y-83714285D02*
X15046428Y-83857142D01*
X15046428Y-84142857D01*
X15117857Y-84285714D01*
X15260714Y-84357142D01*
X15832142Y-84357142D01*
X15975000Y-84285714D01*
X16046428Y-84142857D01*
X16046428Y-83857142D01*
X15975000Y-83714285D01*
X15832142Y-83642857D01*
X15689285Y-83642857D01*
X15546428Y-84357142D01*
X16046428Y-83214285D02*
X16046428Y-82642857D01*
X16546428Y-83000000D02*
X15260714Y-83000000D01*
X15117857Y-82928571D01*
X15046428Y-82785714D01*
X15046428Y-82642857D01*
D11*
G04 #@! TO.C,C2*
X53500000Y-31200000D02*
X53500000Y-32200000D01*
X51800000Y-32200000D02*
X51800000Y-31200000D01*
G04 #@! TO.C,C3*
X44798649Y-23650426D02*
X43798649Y-23650426D01*
X43798649Y-21950426D02*
X44798649Y-21950426D01*
G04 #@! TO.C,C4*
X45348649Y-21720426D02*
X43348649Y-21720426D01*
X43348649Y-19680426D02*
X45348649Y-19680426D01*
G04 #@! TO.C,C8*
X83020000Y-90000000D02*
X83020000Y-92000000D01*
X80980000Y-92000000D02*
X80980000Y-90000000D01*
G04 #@! TO.C,C9*
X39500000Y-74930000D02*
X41500000Y-74930000D01*
X41500000Y-76970000D02*
X39500000Y-76970000D01*
G04 #@! TO.C,C14*
X42500000Y-71575000D02*
X43500000Y-71575000D01*
X43500000Y-73275000D02*
X42500000Y-73275000D01*
G04 #@! TO.C,D4*
X42848649Y-25650426D02*
X42848649Y-23950426D01*
X42848649Y-23950426D02*
X45398649Y-23950426D01*
X42848649Y-25650426D02*
X45398649Y-25650426D01*
G04 #@! TO.C,D5*
X26170000Y-69990000D02*
X27100000Y-69990000D01*
X29330000Y-69990000D02*
X28400000Y-69990000D01*
X29330000Y-69990000D02*
X29330000Y-72150000D01*
X26170000Y-69990000D02*
X26170000Y-71450000D01*
G04 #@! TO.C,D6*
X26170000Y-55240000D02*
X27100000Y-55240000D01*
X29330000Y-55240000D02*
X28400000Y-55240000D01*
X29330000Y-55240000D02*
X29330000Y-57400000D01*
X26170000Y-55240000D02*
X26170000Y-56700000D01*
G04 #@! TO.C,D7*
X26170000Y-39740000D02*
X27100000Y-39740000D01*
X29330000Y-39740000D02*
X28400000Y-39740000D01*
X29330000Y-39740000D02*
X29330000Y-41900000D01*
X26170000Y-39740000D02*
X26170000Y-41200000D01*
G04 #@! TO.C,D8*
X26170000Y-23740000D02*
X27100000Y-23740000D01*
X29330000Y-23740000D02*
X28400000Y-23740000D01*
X29330000Y-23740000D02*
X29330000Y-25900000D01*
X26170000Y-23740000D02*
X26170000Y-25200000D01*
D12*
G04 #@! TO.C,L2*
X55001180Y-29500100D02*
X53949620Y-29500100D01*
X53898820Y-27899900D02*
X54950380Y-27899900D01*
D11*
G04 #@! TO.C,U1*
X59510000Y-47660000D02*
X58250000Y-47660000D01*
X52690000Y-47660000D02*
X53950000Y-47660000D01*
X59510000Y-43900000D02*
X59510000Y-47660000D01*
X52690000Y-41650000D02*
X52690000Y-47660000D01*
G04 #@! TO.C,D9*
X51540000Y-92630000D02*
X51540000Y-91700000D01*
X51540000Y-89470000D02*
X51540000Y-90400000D01*
X51540000Y-89470000D02*
X53700000Y-89470000D01*
X51540000Y-92630000D02*
X53000000Y-92630000D01*
G04 #@! TO.C,D10*
X59740000Y-91880000D02*
X59740000Y-90950000D01*
X59740000Y-88720000D02*
X59740000Y-89650000D01*
X59740000Y-88720000D02*
X61900000Y-88720000D01*
X59740000Y-91880000D02*
X61200000Y-91880000D01*
D12*
G04 #@! TO.C,L1*
X55152040Y-35400100D02*
X54100480Y-35400100D01*
X54049680Y-33799900D02*
X55101240Y-33799900D01*
G04 #@! TO.C,L3*
X40298820Y-77699900D02*
X41350380Y-77699900D01*
X41401180Y-79300100D02*
X40349620Y-79300100D01*
D11*
G04 #@! TO.C,R1*
X39800000Y-35330000D02*
X41000000Y-35330000D01*
X41000000Y-33570000D02*
X39800000Y-33570000D01*
G04 #@! TO.C,R2*
X36550000Y-35330000D02*
X37750000Y-35330000D01*
X37750000Y-33570000D02*
X36550000Y-33570000D01*
G04 #@! TO.C,R3*
X76170000Y-73550000D02*
X76170000Y-74750000D01*
X77930000Y-74750000D02*
X77930000Y-73550000D01*
G04 #@! TO.C,R4*
X76400000Y-90870000D02*
X75200000Y-90870000D01*
X75200000Y-92630000D02*
X76400000Y-92630000D01*
G04 #@! TO.C,R5*
X76400000Y-88870000D02*
X75200000Y-88870000D01*
X75200000Y-90630000D02*
X76400000Y-90630000D01*
G04 #@! TO.C,R6*
X24850000Y-53870000D02*
X23650000Y-53870000D01*
X23650000Y-55630000D02*
X24850000Y-55630000D01*
G04 #@! TO.C,R7*
X24850000Y-38620000D02*
X23650000Y-38620000D01*
X23650000Y-40380000D02*
X24850000Y-40380000D01*
G04 #@! TO.C,R8*
X81920000Y-33650000D02*
X81920000Y-34850000D01*
X83680000Y-34850000D02*
X83680000Y-33650000D01*
G04 #@! TO.C,R10*
X81320000Y-23150000D02*
X81320000Y-24350000D01*
X83080000Y-24350000D02*
X83080000Y-23150000D01*
G04 #@! TO.C,R11*
X59150000Y-97280000D02*
X60350000Y-97280000D01*
X60350000Y-95520000D02*
X59150000Y-95520000D01*
G04 #@! TO.C,R12*
X59150000Y-94730000D02*
X60350000Y-94730000D01*
X60350000Y-92970000D02*
X59150000Y-92970000D01*
G04 #@! TO.C,R13*
X24850000Y-68870000D02*
X23650000Y-68870000D01*
X23650000Y-70630000D02*
X24850000Y-70630000D01*
G04 #@! TO.C,R14*
X24850000Y-22620000D02*
X23650000Y-22620000D01*
X23650000Y-24380000D02*
X24850000Y-24380000D01*
G04 #@! TO.C,R15*
X51350000Y-97230000D02*
X52550000Y-97230000D01*
X52550000Y-95470000D02*
X51350000Y-95470000D01*
G04 #@! TO.C,R16*
X51350000Y-94730000D02*
X52550000Y-94730000D01*
X52550000Y-92970000D02*
X51350000Y-92970000D01*
G04 #@! TO.C,U4*
X76210000Y-84900000D02*
X76210000Y-86700000D01*
X72990000Y-86700000D02*
X72990000Y-84250000D01*
G04 #@! TO.C,C21*
X21425000Y-87000000D02*
X21425000Y-88000000D01*
X19725000Y-88000000D02*
X19725000Y-87000000D01*
G04 #@! TO.C,D13*
X77770000Y-78790000D02*
X77770000Y-80250000D01*
X80930000Y-78790000D02*
X80930000Y-80950000D01*
X80930000Y-78790000D02*
X80000000Y-78790000D01*
X77770000Y-78790000D02*
X78700000Y-78790000D01*
G04 #@! TO.C,D14*
X81570000Y-78790000D02*
X82500000Y-78790000D01*
X84730000Y-78790000D02*
X83800000Y-78790000D01*
X84730000Y-78790000D02*
X84730000Y-80950000D01*
X81570000Y-78790000D02*
X81570000Y-80250000D01*
G04 #@! TO.C,C2*
D12*
X54507142Y-31533333D02*
X54554761Y-31485714D01*
X54602380Y-31342857D01*
X54602380Y-31247619D01*
X54554761Y-31104761D01*
X54459523Y-31009523D01*
X54364285Y-30961904D01*
X54173809Y-30914285D01*
X54030952Y-30914285D01*
X53840476Y-30961904D01*
X53745238Y-31009523D01*
X53650000Y-31104761D01*
X53602380Y-31247619D01*
X53602380Y-31342857D01*
X53650000Y-31485714D01*
X53697619Y-31533333D01*
X53697619Y-31914285D02*
X53650000Y-31961904D01*
X53602380Y-32057142D01*
X53602380Y-32295238D01*
X53650000Y-32390476D01*
X53697619Y-32438095D01*
X53792857Y-32485714D01*
X53888095Y-32485714D01*
X54030952Y-32438095D01*
X54602380Y-31866666D01*
X54602380Y-32485714D01*
G04 #@! TO.C,C3*
X44465315Y-24657568D02*
X44512934Y-24705187D01*
X44655791Y-24752806D01*
X44751029Y-24752806D01*
X44893887Y-24705187D01*
X44989125Y-24609949D01*
X45036744Y-24514711D01*
X45084363Y-24324235D01*
X45084363Y-24181378D01*
X45036744Y-23990902D01*
X44989125Y-23895664D01*
X44893887Y-23800426D01*
X44751029Y-23752806D01*
X44655791Y-23752806D01*
X44512934Y-23800426D01*
X44465315Y-23848045D01*
X44131982Y-23752806D02*
X43512934Y-23752806D01*
X43846268Y-24133759D01*
X43703410Y-24133759D01*
X43608172Y-24181378D01*
X43560553Y-24228997D01*
X43512934Y-24324235D01*
X43512934Y-24562330D01*
X43560553Y-24657568D01*
X43608172Y-24705187D01*
X43703410Y-24752806D01*
X43989125Y-24752806D01*
X44084363Y-24705187D01*
X44131982Y-24657568D01*
G04 #@! TO.C,C4*
X44515315Y-22807568D02*
X44562934Y-22855187D01*
X44705791Y-22902806D01*
X44801029Y-22902806D01*
X44943887Y-22855187D01*
X45039125Y-22759949D01*
X45086744Y-22664711D01*
X45134363Y-22474235D01*
X45134363Y-22331378D01*
X45086744Y-22140902D01*
X45039125Y-22045664D01*
X44943887Y-21950426D01*
X44801029Y-21902806D01*
X44705791Y-21902806D01*
X44562934Y-21950426D01*
X44515315Y-21998045D01*
X43658172Y-22236140D02*
X43658172Y-22902806D01*
X43896268Y-21855187D02*
X44134363Y-22569473D01*
X43515315Y-22569473D01*
G04 #@! TO.C,C8*
X84107142Y-90833333D02*
X84154761Y-90785714D01*
X84202380Y-90642857D01*
X84202380Y-90547619D01*
X84154761Y-90404761D01*
X84059523Y-90309523D01*
X83964285Y-90261904D01*
X83773809Y-90214285D01*
X83630952Y-90214285D01*
X83440476Y-90261904D01*
X83345238Y-90309523D01*
X83250000Y-90404761D01*
X83202380Y-90547619D01*
X83202380Y-90642857D01*
X83250000Y-90785714D01*
X83297619Y-90833333D01*
X83630952Y-91404761D02*
X83583333Y-91309523D01*
X83535714Y-91261904D01*
X83440476Y-91214285D01*
X83392857Y-91214285D01*
X83297619Y-91261904D01*
X83250000Y-91309523D01*
X83202380Y-91404761D01*
X83202380Y-91595238D01*
X83250000Y-91690476D01*
X83297619Y-91738095D01*
X83392857Y-91785714D01*
X83440476Y-91785714D01*
X83535714Y-91738095D01*
X83583333Y-91690476D01*
X83630952Y-91595238D01*
X83630952Y-91404761D01*
X83678571Y-91309523D01*
X83726190Y-91261904D01*
X83821428Y-91214285D01*
X84011904Y-91214285D01*
X84107142Y-91261904D01*
X84154761Y-91309523D01*
X84202380Y-91404761D01*
X84202380Y-91595238D01*
X84154761Y-91690476D01*
X84107142Y-91738095D01*
X84011904Y-91785714D01*
X83821428Y-91785714D01*
X83726190Y-91738095D01*
X83678571Y-91690476D01*
X83630952Y-91595238D01*
G04 #@! TO.C,C9*
X37466666Y-76357142D02*
X37514285Y-76404761D01*
X37657142Y-76452380D01*
X37752380Y-76452380D01*
X37895238Y-76404761D01*
X37990476Y-76309523D01*
X38038095Y-76214285D01*
X38085714Y-76023809D01*
X38085714Y-75880952D01*
X38038095Y-75690476D01*
X37990476Y-75595238D01*
X37895238Y-75500000D01*
X37752380Y-75452380D01*
X37657142Y-75452380D01*
X37514285Y-75500000D01*
X37466666Y-75547619D01*
X36990476Y-76452380D02*
X36800000Y-76452380D01*
X36704761Y-76404761D01*
X36657142Y-76357142D01*
X36561904Y-76214285D01*
X36514285Y-76023809D01*
X36514285Y-75642857D01*
X36561904Y-75547619D01*
X36609523Y-75500000D01*
X36704761Y-75452380D01*
X36895238Y-75452380D01*
X36990476Y-75500000D01*
X37038095Y-75547619D01*
X37085714Y-75642857D01*
X37085714Y-75880952D01*
X37038095Y-75976190D01*
X36990476Y-76023809D01*
X36895238Y-76071428D01*
X36704761Y-76071428D01*
X36609523Y-76023809D01*
X36561904Y-75976190D01*
X36514285Y-75880952D01*
G04 #@! TO.C,C14*
X43642857Y-71282142D02*
X43690476Y-71329761D01*
X43833333Y-71377380D01*
X43928571Y-71377380D01*
X44071428Y-71329761D01*
X44166666Y-71234523D01*
X44214285Y-71139285D01*
X44261904Y-70948809D01*
X44261904Y-70805952D01*
X44214285Y-70615476D01*
X44166666Y-70520238D01*
X44071428Y-70425000D01*
X43928571Y-70377380D01*
X43833333Y-70377380D01*
X43690476Y-70425000D01*
X43642857Y-70472619D01*
X42690476Y-71377380D02*
X43261904Y-71377380D01*
X42976190Y-71377380D02*
X42976190Y-70377380D01*
X43071428Y-70520238D01*
X43166666Y-70615476D01*
X43261904Y-70663095D01*
X41833333Y-70710714D02*
X41833333Y-71377380D01*
X42071428Y-70329761D02*
X42309523Y-71044047D01*
X41690476Y-71044047D01*
G04 #@! TO.C,D4*
X45086744Y-27102806D02*
X45086744Y-26102806D01*
X44848649Y-26102806D01*
X44705791Y-26150426D01*
X44610553Y-26245664D01*
X44562934Y-26340902D01*
X44515315Y-26531378D01*
X44515315Y-26674235D01*
X44562934Y-26864711D01*
X44610553Y-26959949D01*
X44705791Y-27055187D01*
X44848649Y-27102806D01*
X45086744Y-27102806D01*
X43658172Y-26436140D02*
X43658172Y-27102806D01*
X43896268Y-26055187D02*
X44134363Y-26769473D01*
X43515315Y-26769473D01*
G04 #@! TO.C,D5*
X30702380Y-70011904D02*
X29702380Y-70011904D01*
X29702380Y-70250000D01*
X29750000Y-70392857D01*
X29845238Y-70488095D01*
X29940476Y-70535714D01*
X30130952Y-70583333D01*
X30273809Y-70583333D01*
X30464285Y-70535714D01*
X30559523Y-70488095D01*
X30654761Y-70392857D01*
X30702380Y-70250000D01*
X30702380Y-70011904D01*
X29702380Y-71488095D02*
X29702380Y-71011904D01*
X30178571Y-70964285D01*
X30130952Y-71011904D01*
X30083333Y-71107142D01*
X30083333Y-71345238D01*
X30130952Y-71440476D01*
X30178571Y-71488095D01*
X30273809Y-71535714D01*
X30511904Y-71535714D01*
X30607142Y-71488095D01*
X30654761Y-71440476D01*
X30702380Y-71345238D01*
X30702380Y-71107142D01*
X30654761Y-71011904D01*
X30607142Y-70964285D01*
G04 #@! TO.C,D6*
X30702380Y-55261904D02*
X29702380Y-55261904D01*
X29702380Y-55500000D01*
X29750000Y-55642857D01*
X29845238Y-55738095D01*
X29940476Y-55785714D01*
X30130952Y-55833333D01*
X30273809Y-55833333D01*
X30464285Y-55785714D01*
X30559523Y-55738095D01*
X30654761Y-55642857D01*
X30702380Y-55500000D01*
X30702380Y-55261904D01*
X29702380Y-56690476D02*
X29702380Y-56500000D01*
X29750000Y-56404761D01*
X29797619Y-56357142D01*
X29940476Y-56261904D01*
X30130952Y-56214285D01*
X30511904Y-56214285D01*
X30607142Y-56261904D01*
X30654761Y-56309523D01*
X30702380Y-56404761D01*
X30702380Y-56595238D01*
X30654761Y-56690476D01*
X30607142Y-56738095D01*
X30511904Y-56785714D01*
X30273809Y-56785714D01*
X30178571Y-56738095D01*
X30130952Y-56690476D01*
X30083333Y-56595238D01*
X30083333Y-56404761D01*
X30130952Y-56309523D01*
X30178571Y-56261904D01*
X30273809Y-56214285D01*
G04 #@! TO.C,D7*
X30702380Y-39761904D02*
X29702380Y-39761904D01*
X29702380Y-40000000D01*
X29750000Y-40142857D01*
X29845238Y-40238095D01*
X29940476Y-40285714D01*
X30130952Y-40333333D01*
X30273809Y-40333333D01*
X30464285Y-40285714D01*
X30559523Y-40238095D01*
X30654761Y-40142857D01*
X30702380Y-40000000D01*
X30702380Y-39761904D01*
X29702380Y-40666666D02*
X29702380Y-41333333D01*
X30702380Y-40904761D01*
G04 #@! TO.C,D8*
X30702380Y-23761904D02*
X29702380Y-23761904D01*
X29702380Y-24000000D01*
X29750000Y-24142857D01*
X29845238Y-24238095D01*
X29940476Y-24285714D01*
X30130952Y-24333333D01*
X30273809Y-24333333D01*
X30464285Y-24285714D01*
X30559523Y-24238095D01*
X30654761Y-24142857D01*
X30702380Y-24000000D01*
X30702380Y-23761904D01*
X30130952Y-24904761D02*
X30083333Y-24809523D01*
X30035714Y-24761904D01*
X29940476Y-24714285D01*
X29892857Y-24714285D01*
X29797619Y-24761904D01*
X29750000Y-24809523D01*
X29702380Y-24904761D01*
X29702380Y-25095238D01*
X29750000Y-25190476D01*
X29797619Y-25238095D01*
X29892857Y-25285714D01*
X29940476Y-25285714D01*
X30035714Y-25238095D01*
X30083333Y-25190476D01*
X30130952Y-25095238D01*
X30130952Y-24904761D01*
X30178571Y-24809523D01*
X30226190Y-24761904D01*
X30321428Y-24714285D01*
X30511904Y-24714285D01*
X30607142Y-24761904D01*
X30654761Y-24809523D01*
X30702380Y-24904761D01*
X30702380Y-25095238D01*
X30654761Y-25190476D01*
X30607142Y-25238095D01*
X30511904Y-25285714D01*
X30321428Y-25285714D01*
X30226190Y-25238095D01*
X30178571Y-25190476D01*
X30130952Y-25095238D01*
G04 #@! TO.C,L2*
X54616666Y-26612380D02*
X55092857Y-26612380D01*
X55092857Y-25612380D01*
X54330952Y-25707619D02*
X54283333Y-25660000D01*
X54188095Y-25612380D01*
X53950000Y-25612380D01*
X53854761Y-25660000D01*
X53807142Y-25707619D01*
X53759523Y-25802857D01*
X53759523Y-25898095D01*
X53807142Y-26040952D01*
X54378571Y-26612380D01*
X53759523Y-26612380D01*
G04 #@! TO.C,U1*
X51052380Y-44988095D02*
X51861904Y-44988095D01*
X51957142Y-45035714D01*
X52004761Y-45083333D01*
X52052380Y-45178571D01*
X52052380Y-45369047D01*
X52004761Y-45464285D01*
X51957142Y-45511904D01*
X51861904Y-45559523D01*
X51052380Y-45559523D01*
X52052380Y-46559523D02*
X52052380Y-45988095D01*
X52052380Y-46273809D02*
X51052380Y-46273809D01*
X51195238Y-46178571D01*
X51290476Y-46083333D01*
X51338095Y-45988095D01*
G04 #@! TO.C,D9*
X53038095Y-89002380D02*
X53038095Y-88002380D01*
X52800000Y-88002380D01*
X52657142Y-88050000D01*
X52561904Y-88145238D01*
X52514285Y-88240476D01*
X52466666Y-88430952D01*
X52466666Y-88573809D01*
X52514285Y-88764285D01*
X52561904Y-88859523D01*
X52657142Y-88954761D01*
X52800000Y-89002380D01*
X53038095Y-89002380D01*
X51990476Y-89002380D02*
X51800000Y-89002380D01*
X51704761Y-88954761D01*
X51657142Y-88907142D01*
X51561904Y-88764285D01*
X51514285Y-88573809D01*
X51514285Y-88192857D01*
X51561904Y-88097619D01*
X51609523Y-88050000D01*
X51704761Y-88002380D01*
X51895238Y-88002380D01*
X51990476Y-88050000D01*
X52038095Y-88097619D01*
X52085714Y-88192857D01*
X52085714Y-88430952D01*
X52038095Y-88526190D01*
X51990476Y-88573809D01*
X51895238Y-88621428D01*
X51704761Y-88621428D01*
X51609523Y-88573809D01*
X51561904Y-88526190D01*
X51514285Y-88430952D01*
G04 #@! TO.C,D10*
X61714285Y-88252380D02*
X61714285Y-87252380D01*
X61476190Y-87252380D01*
X61333333Y-87300000D01*
X61238095Y-87395238D01*
X61190476Y-87490476D01*
X61142857Y-87680952D01*
X61142857Y-87823809D01*
X61190476Y-88014285D01*
X61238095Y-88109523D01*
X61333333Y-88204761D01*
X61476190Y-88252380D01*
X61714285Y-88252380D01*
X60190476Y-88252380D02*
X60761904Y-88252380D01*
X60476190Y-88252380D02*
X60476190Y-87252380D01*
X60571428Y-87395238D01*
X60666666Y-87490476D01*
X60761904Y-87538095D01*
X59571428Y-87252380D02*
X59476190Y-87252380D01*
X59380952Y-87300000D01*
X59333333Y-87347619D01*
X59285714Y-87442857D01*
X59238095Y-87633333D01*
X59238095Y-87871428D01*
X59285714Y-88061904D01*
X59333333Y-88157142D01*
X59380952Y-88204761D01*
X59476190Y-88252380D01*
X59571428Y-88252380D01*
X59666666Y-88204761D01*
X59714285Y-88157142D01*
X59761904Y-88061904D01*
X59809523Y-87871428D01*
X59809523Y-87633333D01*
X59761904Y-87442857D01*
X59714285Y-87347619D01*
X59666666Y-87300000D01*
X59571428Y-87252380D01*
G04 #@! TO.C,L1*
X54767526Y-32512380D02*
X55243717Y-32512380D01*
X55243717Y-31512380D01*
X53910383Y-32512380D02*
X54481812Y-32512380D01*
X54196098Y-32512380D02*
X54196098Y-31512380D01*
X54291336Y-31655238D01*
X54386574Y-31750476D01*
X54481812Y-31798095D01*
G04 #@! TO.C,L3*
X37316666Y-79002380D02*
X37792857Y-79002380D01*
X37792857Y-78002380D01*
X37078571Y-78002380D02*
X36459523Y-78002380D01*
X36792857Y-78383333D01*
X36650000Y-78383333D01*
X36554761Y-78430952D01*
X36507142Y-78478571D01*
X36459523Y-78573809D01*
X36459523Y-78811904D01*
X36507142Y-78907142D01*
X36554761Y-78954761D01*
X36650000Y-79002380D01*
X36935714Y-79002380D01*
X37030952Y-78954761D01*
X37078571Y-78907142D01*
G04 #@! TO.C,R1*
X40566666Y-33252380D02*
X40900000Y-32776190D01*
X41138095Y-33252380D02*
X41138095Y-32252380D01*
X40757142Y-32252380D01*
X40661904Y-32300000D01*
X40614285Y-32347619D01*
X40566666Y-32442857D01*
X40566666Y-32585714D01*
X40614285Y-32680952D01*
X40661904Y-32728571D01*
X40757142Y-32776190D01*
X41138095Y-32776190D01*
X39614285Y-33252380D02*
X40185714Y-33252380D01*
X39900000Y-33252380D02*
X39900000Y-32252380D01*
X39995238Y-32395238D01*
X40090476Y-32490476D01*
X40185714Y-32538095D01*
G04 #@! TO.C,R2*
X37316666Y-33252380D02*
X37650000Y-32776190D01*
X37888095Y-33252380D02*
X37888095Y-32252380D01*
X37507142Y-32252380D01*
X37411904Y-32300000D01*
X37364285Y-32347619D01*
X37316666Y-32442857D01*
X37316666Y-32585714D01*
X37364285Y-32680952D01*
X37411904Y-32728571D01*
X37507142Y-32776190D01*
X37888095Y-32776190D01*
X36935714Y-32347619D02*
X36888095Y-32300000D01*
X36792857Y-32252380D01*
X36554761Y-32252380D01*
X36459523Y-32300000D01*
X36411904Y-32347619D01*
X36364285Y-32442857D01*
X36364285Y-32538095D01*
X36411904Y-32680952D01*
X36983333Y-33252380D01*
X36364285Y-33252380D01*
G04 #@! TO.C,R3*
X79152380Y-73983333D02*
X78676190Y-73650000D01*
X79152380Y-73411904D02*
X78152380Y-73411904D01*
X78152380Y-73792857D01*
X78200000Y-73888095D01*
X78247619Y-73935714D01*
X78342857Y-73983333D01*
X78485714Y-73983333D01*
X78580952Y-73935714D01*
X78628571Y-73888095D01*
X78676190Y-73792857D01*
X78676190Y-73411904D01*
X78152380Y-74316666D02*
X78152380Y-74935714D01*
X78533333Y-74602380D01*
X78533333Y-74745238D01*
X78580952Y-74840476D01*
X78628571Y-74888095D01*
X78723809Y-74935714D01*
X78961904Y-74935714D01*
X79057142Y-74888095D01*
X79104761Y-74840476D01*
X79152380Y-74745238D01*
X79152380Y-74459523D01*
X79104761Y-74364285D01*
X79057142Y-74316666D01*
G04 #@! TO.C,R4*
X75966666Y-93852380D02*
X76300000Y-93376190D01*
X76538095Y-93852380D02*
X76538095Y-92852380D01*
X76157142Y-92852380D01*
X76061904Y-92900000D01*
X76014285Y-92947619D01*
X75966666Y-93042857D01*
X75966666Y-93185714D01*
X76014285Y-93280952D01*
X76061904Y-93328571D01*
X76157142Y-93376190D01*
X76538095Y-93376190D01*
X75109523Y-93185714D02*
X75109523Y-93852380D01*
X75347619Y-92804761D02*
X75585714Y-93519047D01*
X74966666Y-93519047D01*
G04 #@! TO.C,R5*
X75966666Y-91852380D02*
X76300000Y-91376190D01*
X76538095Y-91852380D02*
X76538095Y-90852380D01*
X76157142Y-90852380D01*
X76061904Y-90900000D01*
X76014285Y-90947619D01*
X75966666Y-91042857D01*
X75966666Y-91185714D01*
X76014285Y-91280952D01*
X76061904Y-91328571D01*
X76157142Y-91376190D01*
X76538095Y-91376190D01*
X75061904Y-90852380D02*
X75538095Y-90852380D01*
X75585714Y-91328571D01*
X75538095Y-91280952D01*
X75442857Y-91233333D01*
X75204761Y-91233333D01*
X75109523Y-91280952D01*
X75061904Y-91328571D01*
X75014285Y-91423809D01*
X75014285Y-91661904D01*
X75061904Y-91757142D01*
X75109523Y-91804761D01*
X75204761Y-91852380D01*
X75442857Y-91852380D01*
X75538095Y-91804761D01*
X75585714Y-91757142D01*
G04 #@! TO.C,R6*
X24416666Y-56852380D02*
X24750000Y-56376190D01*
X24988095Y-56852380D02*
X24988095Y-55852380D01*
X24607142Y-55852380D01*
X24511904Y-55900000D01*
X24464285Y-55947619D01*
X24416666Y-56042857D01*
X24416666Y-56185714D01*
X24464285Y-56280952D01*
X24511904Y-56328571D01*
X24607142Y-56376190D01*
X24988095Y-56376190D01*
X23559523Y-55852380D02*
X23750000Y-55852380D01*
X23845238Y-55900000D01*
X23892857Y-55947619D01*
X23988095Y-56090476D01*
X24035714Y-56280952D01*
X24035714Y-56661904D01*
X23988095Y-56757142D01*
X23940476Y-56804761D01*
X23845238Y-56852380D01*
X23654761Y-56852380D01*
X23559523Y-56804761D01*
X23511904Y-56757142D01*
X23464285Y-56661904D01*
X23464285Y-56423809D01*
X23511904Y-56328571D01*
X23559523Y-56280952D01*
X23654761Y-56233333D01*
X23845238Y-56233333D01*
X23940476Y-56280952D01*
X23988095Y-56328571D01*
X24035714Y-56423809D01*
G04 #@! TO.C,R7*
X24416666Y-41602380D02*
X24750000Y-41126190D01*
X24988095Y-41602380D02*
X24988095Y-40602380D01*
X24607142Y-40602380D01*
X24511904Y-40650000D01*
X24464285Y-40697619D01*
X24416666Y-40792857D01*
X24416666Y-40935714D01*
X24464285Y-41030952D01*
X24511904Y-41078571D01*
X24607142Y-41126190D01*
X24988095Y-41126190D01*
X24083333Y-40602380D02*
X23416666Y-40602380D01*
X23845238Y-41602380D01*
G04 #@! TO.C,R8*
X84902380Y-34083333D02*
X84426190Y-33750000D01*
X84902380Y-33511904D02*
X83902380Y-33511904D01*
X83902380Y-33892857D01*
X83950000Y-33988095D01*
X83997619Y-34035714D01*
X84092857Y-34083333D01*
X84235714Y-34083333D01*
X84330952Y-34035714D01*
X84378571Y-33988095D01*
X84426190Y-33892857D01*
X84426190Y-33511904D01*
X84330952Y-34654761D02*
X84283333Y-34559523D01*
X84235714Y-34511904D01*
X84140476Y-34464285D01*
X84092857Y-34464285D01*
X83997619Y-34511904D01*
X83950000Y-34559523D01*
X83902380Y-34654761D01*
X83902380Y-34845238D01*
X83950000Y-34940476D01*
X83997619Y-34988095D01*
X84092857Y-35035714D01*
X84140476Y-35035714D01*
X84235714Y-34988095D01*
X84283333Y-34940476D01*
X84330952Y-34845238D01*
X84330952Y-34654761D01*
X84378571Y-34559523D01*
X84426190Y-34511904D01*
X84521428Y-34464285D01*
X84711904Y-34464285D01*
X84807142Y-34511904D01*
X84854761Y-34559523D01*
X84902380Y-34654761D01*
X84902380Y-34845238D01*
X84854761Y-34940476D01*
X84807142Y-34988095D01*
X84711904Y-35035714D01*
X84521428Y-35035714D01*
X84426190Y-34988095D01*
X84378571Y-34940476D01*
X84330952Y-34845238D01*
G04 #@! TO.C,R10*
X84302380Y-23107142D02*
X83826190Y-22773809D01*
X84302380Y-22535714D02*
X83302380Y-22535714D01*
X83302380Y-22916666D01*
X83350000Y-23011904D01*
X83397619Y-23059523D01*
X83492857Y-23107142D01*
X83635714Y-23107142D01*
X83730952Y-23059523D01*
X83778571Y-23011904D01*
X83826190Y-22916666D01*
X83826190Y-22535714D01*
X84302380Y-24059523D02*
X84302380Y-23488095D01*
X84302380Y-23773809D02*
X83302380Y-23773809D01*
X83445238Y-23678571D01*
X83540476Y-23583333D01*
X83588095Y-23488095D01*
X83302380Y-24678571D02*
X83302380Y-24773809D01*
X83350000Y-24869047D01*
X83397619Y-24916666D01*
X83492857Y-24964285D01*
X83683333Y-25011904D01*
X83921428Y-25011904D01*
X84111904Y-24964285D01*
X84207142Y-24916666D01*
X84254761Y-24869047D01*
X84302380Y-24773809D01*
X84302380Y-24678571D01*
X84254761Y-24583333D01*
X84207142Y-24535714D01*
X84111904Y-24488095D01*
X83921428Y-24440476D01*
X83683333Y-24440476D01*
X83492857Y-24488095D01*
X83397619Y-24535714D01*
X83350000Y-24583333D01*
X83302380Y-24678571D01*
G04 #@! TO.C,R11*
X60492857Y-98452380D02*
X60826190Y-97976190D01*
X61064285Y-98452380D02*
X61064285Y-97452380D01*
X60683333Y-97452380D01*
X60588095Y-97500000D01*
X60540476Y-97547619D01*
X60492857Y-97642857D01*
X60492857Y-97785714D01*
X60540476Y-97880952D01*
X60588095Y-97928571D01*
X60683333Y-97976190D01*
X61064285Y-97976190D01*
X59540476Y-98452380D02*
X60111904Y-98452380D01*
X59826190Y-98452380D02*
X59826190Y-97452380D01*
X59921428Y-97595238D01*
X60016666Y-97690476D01*
X60111904Y-97738095D01*
X58588095Y-98452380D02*
X59159523Y-98452380D01*
X58873809Y-98452380D02*
X58873809Y-97452380D01*
X58969047Y-97595238D01*
X59064285Y-97690476D01*
X59159523Y-97738095D01*
G04 #@! TO.C,R12*
X62352380Y-93207142D02*
X61876190Y-92873809D01*
X62352380Y-92635714D02*
X61352380Y-92635714D01*
X61352380Y-93016666D01*
X61400000Y-93111904D01*
X61447619Y-93159523D01*
X61542857Y-93207142D01*
X61685714Y-93207142D01*
X61780952Y-93159523D01*
X61828571Y-93111904D01*
X61876190Y-93016666D01*
X61876190Y-92635714D01*
X62352380Y-94159523D02*
X62352380Y-93588095D01*
X62352380Y-93873809D02*
X61352380Y-93873809D01*
X61495238Y-93778571D01*
X61590476Y-93683333D01*
X61638095Y-93588095D01*
X61447619Y-94540476D02*
X61400000Y-94588095D01*
X61352380Y-94683333D01*
X61352380Y-94921428D01*
X61400000Y-95016666D01*
X61447619Y-95064285D01*
X61542857Y-95111904D01*
X61638095Y-95111904D01*
X61780952Y-95064285D01*
X62352380Y-94492857D01*
X62352380Y-95111904D01*
G04 #@! TO.C,R13*
X24892857Y-71852380D02*
X25226190Y-71376190D01*
X25464285Y-71852380D02*
X25464285Y-70852380D01*
X25083333Y-70852380D01*
X24988095Y-70900000D01*
X24940476Y-70947619D01*
X24892857Y-71042857D01*
X24892857Y-71185714D01*
X24940476Y-71280952D01*
X24988095Y-71328571D01*
X25083333Y-71376190D01*
X25464285Y-71376190D01*
X23940476Y-71852380D02*
X24511904Y-71852380D01*
X24226190Y-71852380D02*
X24226190Y-70852380D01*
X24321428Y-70995238D01*
X24416666Y-71090476D01*
X24511904Y-71138095D01*
X23607142Y-70852380D02*
X22988095Y-70852380D01*
X23321428Y-71233333D01*
X23178571Y-71233333D01*
X23083333Y-71280952D01*
X23035714Y-71328571D01*
X22988095Y-71423809D01*
X22988095Y-71661904D01*
X23035714Y-71757142D01*
X23083333Y-71804761D01*
X23178571Y-71852380D01*
X23464285Y-71852380D01*
X23559523Y-71804761D01*
X23607142Y-71757142D01*
G04 #@! TO.C,R14*
X24892857Y-25602380D02*
X25226190Y-25126190D01*
X25464285Y-25602380D02*
X25464285Y-24602380D01*
X25083333Y-24602380D01*
X24988095Y-24650000D01*
X24940476Y-24697619D01*
X24892857Y-24792857D01*
X24892857Y-24935714D01*
X24940476Y-25030952D01*
X24988095Y-25078571D01*
X25083333Y-25126190D01*
X25464285Y-25126190D01*
X23940476Y-25602380D02*
X24511904Y-25602380D01*
X24226190Y-25602380D02*
X24226190Y-24602380D01*
X24321428Y-24745238D01*
X24416666Y-24840476D01*
X24511904Y-24888095D01*
X23083333Y-24935714D02*
X23083333Y-25602380D01*
X23321428Y-24554761D02*
X23559523Y-25269047D01*
X22940476Y-25269047D01*
G04 #@! TO.C,R15*
X52642857Y-98452380D02*
X52976190Y-97976190D01*
X53214285Y-98452380D02*
X53214285Y-97452380D01*
X52833333Y-97452380D01*
X52738095Y-97500000D01*
X52690476Y-97547619D01*
X52642857Y-97642857D01*
X52642857Y-97785714D01*
X52690476Y-97880952D01*
X52738095Y-97928571D01*
X52833333Y-97976190D01*
X53214285Y-97976190D01*
X51690476Y-98452380D02*
X52261904Y-98452380D01*
X51976190Y-98452380D02*
X51976190Y-97452380D01*
X52071428Y-97595238D01*
X52166666Y-97690476D01*
X52261904Y-97738095D01*
X50785714Y-97452380D02*
X51261904Y-97452380D01*
X51309523Y-97928571D01*
X51261904Y-97880952D01*
X51166666Y-97833333D01*
X50928571Y-97833333D01*
X50833333Y-97880952D01*
X50785714Y-97928571D01*
X50738095Y-98023809D01*
X50738095Y-98261904D01*
X50785714Y-98357142D01*
X50833333Y-98404761D01*
X50928571Y-98452380D01*
X51166666Y-98452380D01*
X51261904Y-98404761D01*
X51309523Y-98357142D01*
G04 #@! TO.C,R16*
X54752380Y-93607142D02*
X54276190Y-93273809D01*
X54752380Y-93035714D02*
X53752380Y-93035714D01*
X53752380Y-93416666D01*
X53800000Y-93511904D01*
X53847619Y-93559523D01*
X53942857Y-93607142D01*
X54085714Y-93607142D01*
X54180952Y-93559523D01*
X54228571Y-93511904D01*
X54276190Y-93416666D01*
X54276190Y-93035714D01*
X54752380Y-94559523D02*
X54752380Y-93988095D01*
X54752380Y-94273809D02*
X53752380Y-94273809D01*
X53895238Y-94178571D01*
X53990476Y-94083333D01*
X54038095Y-93988095D01*
X53752380Y-95416666D02*
X53752380Y-95226190D01*
X53800000Y-95130952D01*
X53847619Y-95083333D01*
X53990476Y-94988095D01*
X54180952Y-94940476D01*
X54561904Y-94940476D01*
X54657142Y-94988095D01*
X54704761Y-95035714D01*
X54752380Y-95130952D01*
X54752380Y-95321428D01*
X54704761Y-95416666D01*
X54657142Y-95464285D01*
X54561904Y-95511904D01*
X54323809Y-95511904D01*
X54228571Y-95464285D01*
X54180952Y-95416666D01*
X54133333Y-95321428D01*
X54133333Y-95130952D01*
X54180952Y-95035714D01*
X54228571Y-94988095D01*
X54323809Y-94940476D01*
G04 #@! TO.C,U4*
X71152380Y-85038095D02*
X71961904Y-85038095D01*
X72057142Y-85085714D01*
X72104761Y-85133333D01*
X72152380Y-85228571D01*
X72152380Y-85419047D01*
X72104761Y-85514285D01*
X72057142Y-85561904D01*
X71961904Y-85609523D01*
X71152380Y-85609523D01*
X71485714Y-86514285D02*
X72152380Y-86514285D01*
X71104761Y-86276190D02*
X71819047Y-86038095D01*
X71819047Y-86657142D01*
G04 #@! TO.C,C21*
X22432142Y-86857142D02*
X22479761Y-86809523D01*
X22527380Y-86666666D01*
X22527380Y-86571428D01*
X22479761Y-86428571D01*
X22384523Y-86333333D01*
X22289285Y-86285714D01*
X22098809Y-86238095D01*
X21955952Y-86238095D01*
X21765476Y-86285714D01*
X21670238Y-86333333D01*
X21575000Y-86428571D01*
X21527380Y-86571428D01*
X21527380Y-86666666D01*
X21575000Y-86809523D01*
X21622619Y-86857142D01*
X21622619Y-87238095D02*
X21575000Y-87285714D01*
X21527380Y-87380952D01*
X21527380Y-87619047D01*
X21575000Y-87714285D01*
X21622619Y-87761904D01*
X21717857Y-87809523D01*
X21813095Y-87809523D01*
X21955952Y-87761904D01*
X22527380Y-87190476D01*
X22527380Y-87809523D01*
X22527380Y-88761904D02*
X22527380Y-88190476D01*
X22527380Y-88476190D02*
X21527380Y-88476190D01*
X21670238Y-88380952D01*
X21765476Y-88285714D01*
X21813095Y-88190476D01*
G04 #@! TO.C,D13*
X82302380Y-78335714D02*
X81302380Y-78335714D01*
X81302380Y-78573809D01*
X81350000Y-78716666D01*
X81445238Y-78811904D01*
X81540476Y-78859523D01*
X81730952Y-78907142D01*
X81873809Y-78907142D01*
X82064285Y-78859523D01*
X82159523Y-78811904D01*
X82254761Y-78716666D01*
X82302380Y-78573809D01*
X82302380Y-78335714D01*
X82302380Y-79859523D02*
X82302380Y-79288095D01*
X82302380Y-79573809D02*
X81302380Y-79573809D01*
X81445238Y-79478571D01*
X81540476Y-79383333D01*
X81588095Y-79288095D01*
X81302380Y-80192857D02*
X81302380Y-80811904D01*
X81683333Y-80478571D01*
X81683333Y-80621428D01*
X81730952Y-80716666D01*
X81778571Y-80764285D01*
X81873809Y-80811904D01*
X82111904Y-80811904D01*
X82207142Y-80764285D01*
X82254761Y-80716666D01*
X82302380Y-80621428D01*
X82302380Y-80335714D01*
X82254761Y-80240476D01*
X82207142Y-80192857D01*
G04 #@! TO.C,D14*
X86102380Y-78335714D02*
X85102380Y-78335714D01*
X85102380Y-78573809D01*
X85150000Y-78716666D01*
X85245238Y-78811904D01*
X85340476Y-78859523D01*
X85530952Y-78907142D01*
X85673809Y-78907142D01*
X85864285Y-78859523D01*
X85959523Y-78811904D01*
X86054761Y-78716666D01*
X86102380Y-78573809D01*
X86102380Y-78335714D01*
X86102380Y-79859523D02*
X86102380Y-79288095D01*
X86102380Y-79573809D02*
X85102380Y-79573809D01*
X85245238Y-79478571D01*
X85340476Y-79383333D01*
X85388095Y-79288095D01*
X85435714Y-80716666D02*
X86102380Y-80716666D01*
X85054761Y-80478571D02*
X85769047Y-80240476D01*
X85769047Y-80859523D01*
G04 #@! TD*
M02*
