M48
;DRILL file {KiCad 5.0.0} date Sat Jul 21 14:27:52 2018
;FORMAT={-:-/ absolute / inch / decimal}
FMAT,2
INCH,TZ
T1C0.0118
T2C0.0256
T3C0.0276
T4C0.0354
T5C0.0394
T6C0.0433
T7C0.0472
T8C0.0906
%
G90
G05
M72
T1
X0.7874Y-3.3543
X0.7972Y-3.2697
X0.876Y-3.6398
X0.9547Y-3.5453
X0.9596Y-3.6831
X1.0335Y-3.6142
X1.0472Y-0.8228
X1.0492Y-1.189
X1.0925Y-1.6358
X1.1024Y-1.8504
X1.122Y-2.4508
X1.1516Y-2.2813
X1.1575Y-1.0472
X1.1594Y-2.8602
X1.2106Y-1.8406
X1.2106Y-2.4409
X1.249Y-1.1152
X1.2697Y-3.3898
X1.2835Y-0.9173
X1.2874Y-1.2638
X1.3012Y-2.9331
X1.3031Y-3.0315
X1.3179Y-0.7785
X1.3224Y-2.9616
X1.4232Y-1.4193
X1.4232Y-3.4252
X1.4705Y-3.6831
X1.4862Y-3.0433
X1.5059Y-3.5039
X1.5098Y-3.6378
X1.5157Y-1.314
X1.5315Y-1.1142
X1.5315Y-1.2441
X1.5413Y-2.6614
X1.565Y-3.5728
X1.5886Y-2.9941
X1.6083Y-3.6142
X1.6093Y-3.4341
X1.628Y-1.4173
X1.6299Y-3.3898
X1.6516Y-0.9793
X1.6594Y-3.5453
X1.6811Y-2.6417
X1.6988Y-2.8878
X1.7028Y-3.5925
X1.7087Y-3.6348
X1.7129Y-3.3714
X1.7164Y-3.1849
X1.7362Y-2.5886
X1.7382Y-3.4144
X1.7559Y-2.9469
X1.7618Y-3.1299
X1.7805Y-3.4449
X1.7886Y-2.4317
X1.812Y-2.9075
X1.812Y-3.0974
X1.8228Y-2.7382
X1.8268Y-2.9449
X1.8376Y-2.8071
X1.8406Y-3.0709
X1.8445Y-2.6654
X1.8453Y-2.6901
X1.8524Y-2.8652
X1.8563Y-2.9252
X1.8612Y-3.3238
X1.8661Y-2.626
X1.8661Y-2.7256
X1.8701Y-3.1004
X1.8898Y-3.1594
X1.8898Y-3.2963
X1.9173Y-3.252
X1.9208Y-3.3314
X1.939Y-2.0079
X1.939Y-2.6909
X1.939Y-3.2421
X1.9459Y-3.063
X1.9465Y-3.341
X1.9547Y-1.8602
X1.9646Y-2.7844
X1.9734Y-3.1585
X1.9742Y-2.8071
X1.9783Y-3.2402
X1.9921Y-2.6348
X1.998Y-3.1713
X2.0079Y-3.3071
X2.0157Y-2.7067
X2.0167Y-2.6604
X2.0177Y-3.1909
X2.0279Y-2.6834
X2.0346Y-2.7276
X2.0346Y-3.1713
X2.0374Y-2.5197
X2.0472Y-3.4252
X2.0542Y-2.8222
X2.0669Y-2.6604
X2.0728Y-2.8335
X2.0728Y-3.2087
X2.0768Y-1.9587
X2.0897Y-3.111
X2.0897Y-3.2244
X2.0945Y-3.0856
X2.0965Y-2.9055
X2.0965Y-2.9724
X2.1024Y-2.8701
X2.1161Y-3.2421
X2.1181Y-1.9951
X2.1191Y-2.6604
X2.1201Y-1.7461
X2.1319Y-2.6388
X2.1339Y-2.5453
X2.1467Y-2.8691
X2.1545Y-3.0915
X2.1555Y-2.5384
X2.1713Y-1.5984
X2.1732Y-2.9183
X2.1732Y-3.4882
X2.2116Y-2.9843
X2.2244Y-2.7953
X2.2303Y-2.9459
X2.2323Y-2.7283
X2.2364Y-2.64
X2.2441Y-2.8642
X2.2476Y-3.0053
X2.2539Y-2.9844
X2.2618Y-1.4134
X2.2628Y-2.6713
X2.2628Y-3.0915
X2.2736Y-2.5541
X2.2795Y-2.937
X2.2795Y-3.311
X2.2805Y-3.2272
X2.2933Y-2.7362
X2.2954Y-2.5541
X2.3002Y-3.0561
X2.3031Y-2.8022
X2.312Y-2.5315
X2.315Y-2.6388
X2.3278Y-3.0746
X2.3278Y-3.1142
X2.3327Y-1.0197
X2.3622Y-1.8504
X2.3839Y-2.6506
X2.4085Y-2.5295
X2.4085Y-2.8661
X2.439Y-3.1909
X2.4409Y-2.0266
X2.4508Y-2.7264
X2.4528Y-2.8858
X2.4705Y-2.7461
X2.4951Y-2.3622
X2.4994Y-3.061
X2.501Y-2.7874
X2.5059Y-2.998
X2.5177Y-3.0187
X2.5344Y-2.7953
X2.5413Y-3.311
X2.5551Y-2.8878
X2.5886Y-3.062
X2.6181Y-2.5679
X2.622Y-1.8051
X2.6772Y-2.1654
X2.6939Y-1.4882
X2.7008Y-2.373
X2.7116Y-1.688
X2.7126Y-2.2047
X2.7224Y-3.4724
X2.7264Y-1.9213
X2.748Y-3.3071
X2.8012Y-2.3819
X2.8209Y-3.4528
X2.8307Y-3.287
X2.8346Y-1.5669
X2.8524Y-2.5217
X2.8622Y-3.3031
X2.878Y-3.4793
X2.8789Y-2.5689
X2.8976Y-3.1752
X2.9134Y-1.815
X2.9252Y-2.6171
X2.9301Y-3.2701
X2.9321Y-2.6535
X2.9665Y-2.7461
X2.9665Y-2.9567
X2.9685Y-3.1496
X2.9764Y-2.6161
X3.1201Y-3.1437
X3.1535Y-0.7783
X3.1555Y-2.2717
X3.1555Y-2.439
X3.1555Y-3.1319
X3.2156Y-2.25
X3.2283Y-2.4409
X3.2283Y-2.5197
X3.2362Y-1.0472
X3.249Y-2.6673
X3.2598Y-1.25
X3.3248Y-1.439
T4
X3.0894Y-3.4425
X3.0894Y-3.5417
X3.0894Y-3.6197
X3.0894Y-3.7189
T5
X3.1358Y-2.7657
X3.1358Y-2.8657
X3.1358Y-2.9657
X3.2358Y-2.7657
X3.2358Y-2.8657
X3.2358Y-2.9657
X0.8268Y-2.0177
X0.8268Y-2.1555
X0.8268Y-2.6083
X0.8268Y-2.7461
X1.6645Y-2.0206
X1.6645Y-2.1206
X1.6645Y-2.2206
X1.6645Y-2.3206
X1.7645Y-2.0206
X1.7645Y-2.1206
X1.7645Y-2.2206
X1.7645Y-2.3206
X1.9528Y-1.2618
X1.9528Y-1.4587
X1.9114Y-0.7705
X1.9114Y-0.8705
X1.9114Y-0.9705
X2.9075Y-2.128
X2.9075Y-2.228
X2.9075Y-2.328
X2.9075Y-2.428
X1.4469Y-0.7646
X1.4469Y-0.8646
X1.4469Y-0.9646
X0.8268Y-1.4173
X0.8268Y-1.5551
X2.6476Y-2.6535
X2.6476Y-2.7535
X2.6476Y-2.8535
X2.6476Y-2.9535
X2.6476Y-3.0535
X2.6476Y-3.1535
X2.7476Y-2.6535
X2.7476Y-2.7535
X2.7476Y-2.8535
X2.7476Y-2.9535
X2.7476Y-3.0535
X2.7476Y-3.1535
X0.8268Y-0.7874
X0.8268Y-0.9252
X2.2441Y-3.5945
X2.2441Y-3.6945
X2.2441Y-3.7945
X2.0177Y-2.1717
X2.0177Y-2.2717
X2.1177Y-2.1717
X2.1177Y-2.2717
X2.2177Y-2.1717
X2.2177Y-2.2717
X2.3177Y-2.1717
X2.3177Y-2.2717
X1.935Y-3.5945
X1.935Y-3.6945
X1.935Y-3.7945
T6
X0.8268Y-2.2933
X0.8268Y-2.8839
X0.8268Y-1.6929
X0.8268Y-1.063
T7
X2.248Y-0.874
X2.3858Y-0.874
T8
X3.1976Y-3.3228
X3.1976Y-3.8386
T2
X2.5386Y-3.7433G85X2.5386Y-3.7276
G05
X2.7291Y-3.7433G85X2.7291Y-3.7276
G05
T3
X2.5264Y-3.8634G85X2.5264Y-3.8437
G05
X2.7413Y-3.8634G85X2.7413Y-3.8437
G05
T5
X2.6201Y-0.8878G85X2.6201Y-0.9665
G05
X2.8445Y-0.8091G85X2.7657Y-0.8091
G05
X2.8445Y-1.0453G85X2.7657Y-1.0453
G05
T0
M30
