<?xml version="1.0" encoding="UTF-8" standalone="no"?>
<svg
   xmlns:dc="http://purl.org/dc/elements/1.1/"
   xmlns:cc="http://creativecommons.org/ns#"
   xmlns:rdf="http://www.w3.org/1999/02/22-rdf-syntax-ns#"
   xmlns:svg="http://www.w3.org/2000/svg"
   xmlns="http://www.w3.org/2000/svg"
   xmlns:sodipodi="http://sodipodi.sourceforge.net/DTD/sodipodi-0.dtd"
   xmlns:inkscape="http://www.inkscape.org/namespaces/inkscape"
   version="1.1"
   width="7.406846cm"
   height="4.1810484cm"
   viewBox="0 0 29160.832 16460.836"
   id="svg608"
   sodipodi:docname="amp.sch.svg"
   inkscape:version="0.92.1 r">
  <metadata
     id="metadata614">
    <rdf:RDF>
      <cc:Work
         rdf:about="">
        <dc:format>image/svg+xml</dc:format>
        <dc:type
           rdf:resource="http://purl.org/dc/dcmitype/StillImage" />
      </cc:Work>
    </rdf:RDF>
  </metadata>
  <defs
     id="defs612" />
  <sodipodi:namedview
     pagecolor="#ffffff"
     bordercolor="#666666"
     borderopacity="1"
     objecttolerance="10"
     gridtolerance="10"
     guidetolerance="10"
     inkscape:pageopacity="0"
     inkscape:pageshadow="2"
     inkscape:window-width="1920"
     inkscape:window-height="1043"
     id="namedview610"
     showgrid="false"
     inkscape:zoom="0.29733136"
     inkscape:cx="509.14608"
     inkscape:cy="-182.8757"
     inkscape:window-x="0"
     inkscape:window-y="37"
     inkscape:window-maximized="0"
     inkscape:current-layer="svg608" />
  <title
     id="title2">SVG Picture created as amp.sch.svg date 2017/07/22 19:54:59 </title>
  <desc
     id="desc4">Picture generated by Eeschema-SVG </desc>
  <g
     style="fill:#000000;fill-opacity:1;stroke:#000000;stroke-linecap:round;stroke-linejoin:round;stroke-opacity:1"
     id="g6"
     transform="translate(-6129.5912,-5829.5929)" />
  <g
     style="fill:#000000;fill-opacity:0;stroke:#000000;stroke-width:0;stroke-linecap:round;stroke-linejoin:round;stroke-opacity:1"
     id="g8"
     transform="translate(-6129.5912,-5829.5929)" />
  <g
     style="fill:#840000;fill-opacity:0;stroke:#840000;stroke-width:0;stroke-linecap:round;stroke-linejoin:round;stroke-opacity:1"
     id="g10"
     transform="translate(-6129.5912,-5829.5929)" />
  <g
     style="fill:#840000;fill-opacity:0;stroke:#840000;stroke-width:60;stroke-linecap:round;stroke-linejoin:round;stroke-opacity:1"
     id="g34"
     transform="translate(-6129.5912,-5829.5929)">
    <rect
       x="7400"
       y="10450"
       width="600"
       height="100"
       rx="0"
       id="rect12" />
    <rect
       x="7400"
       y="9450"
       width="600"
       height="100"
       rx="0"
       id="rect14" />
    <rect
       x="7400"
       y="8450"
       width="600"
       height="100"
       rx="0"
       id="rect16" />
    <rect
       x="7000"
       y="8000"
       width="1000"
       height="3000"
       rx="0"
       id="rect18" />
    <path
       d="M 8000,8500 H 9500"
       id="path20"
       inkscape:connector-curvature="0" />
    <path
       d="M 8890,8380 H 8610"
       id="path22"
       inkscape:connector-curvature="0" />
    <path
       d="m 8750,8380 v -500 l -50,70 -50,50 -40,20"
       id="path24"
       inkscape:connector-curvature="0" />
    <path
       d="M 8000,9500 H 9500"
       id="path26"
       inkscape:connector-curvature="0" />
    <path
       d="m 8610,8920 20,-20 50,-20 h 120 l 40,20 30,20 20,50 v 50 l -20,70 -290,290 h 310"
       id="path28"
       inkscape:connector-curvature="0" />
    <path
       d="M 8000,10500 H 9500"
       id="path30"
       inkscape:connector-curvature="0" />
    <path
       d="m 8580,9880 h 310 l -170,190 h 80 l 40,20 30,20 20,50 v 120 l -20,50 -30,20 -40,30 h -150 l -40,-30 -30,-20"
       id="path32"
       inkscape:connector-curvature="0" />
  </g>
  <g
     style="fill:#008484;fill-opacity:0;stroke:#008484;stroke-width:60;stroke-linecap:round;stroke-linejoin:round;stroke-opacity:1"
     id="g54"
     transform="translate(-6129.5912,-5829.5929)">
    <path
       d="M 7010,7760 V 7260"
       id="path36"
       inkscape:connector-curvature="0" />
    <path
       d="m 7530,7710 -20,20 -70,30 h -50 l -70,-30 -50,-50 -20,-40 -20,-100 v -70 l 20,-90 20,-50 50,-50 70,-20 h 50 l 70,20 20,20"
       id="path38"
       inkscape:connector-curvature="0" />
    <path
       d="M 8010,7760 H 7730"
       id="path40"
       inkscape:connector-curvature="0" />
    <path
       d="m 7870,7760 v -500 l -50,70 -50,50 -40,20"
       id="path42"
       inkscape:connector-curvature="0" />
    <path
       d="m 6350,9860 h 340"
       id="path44"
       inkscape:connector-curvature="0" />
    <path
       d="m 6160,9980 360,110 v -300"
       id="path46"
       inkscape:connector-curvature="0" />
    <path
       d="m 6690,9570 v -100 l -30,-50 -20,-20 -70,-50 -100,-20 h -190 l -50,20 -20,30 -20,40 v 100 l 20,50 20,20 50,20 h 120 l 50,-20 20,-20 30,-50 v -100 l -30,-40 -20,-30 -50,-20"
       id="path48"
       inkscape:connector-curvature="0" />
    <path
       d="M 6420,9110 V 8940"
       id="path50"
       inkscape:connector-curvature="0" />
    <path
       d="m 6690,8870 v 240 h -500 v -240"
       id="path52"
       inkscape:connector-curvature="0" />
  </g>
  <g
     style="fill:#008484;fill-opacity:0;stroke:#008484;stroke-width:0;stroke-linecap:round;stroke-linejoin:round;stroke-opacity:1"
     id="g56"
     transform="translate(-6129.5912,-5829.5929)" />
  <g
     style="fill:#840000;fill-opacity:0;stroke:#840000;stroke-width:0;stroke-linecap:round;stroke-linejoin:round;stroke-opacity:1"
     id="g58"
     transform="translate(-6129.5912,-5829.5929)" />
  <g
     style="fill:#ffffc2;fill-opacity:0;stroke:#ffffc2;stroke-width:0;stroke-linecap:round;stroke-linejoin:round;stroke-opacity:1"
     id="g60"
     transform="translate(-6129.5912,-5829.5929)" />
  <g
     style="fill:#ffffc2;fill-opacity:0.6;stroke:#ffffc2;stroke-width:0;stroke-linecap:round;stroke-linejoin:round;stroke-opacity:1"
     id="g64"
     transform="translate(-6129.5912,-5829.5929)">
    <polyline
       style="fill-rule:evenodd"
       points="13500,9500 17500,11500 13500,13500 13500,9500 "
       id="polyline62" />
  </g>
  <g
     style="fill:#840000;fill-opacity:0.6;stroke:#840000;stroke-width:0;stroke-linecap:round;stroke-linejoin:round;stroke-opacity:1"
     id="g66"
     transform="translate(-6129.5912,-5829.5929)" />
  <g
     style="fill:#840000;fill-opacity:0;stroke:#840000;stroke-width:100;stroke-linecap:round;stroke-linejoin:round;stroke-opacity:1"
     id="g70"
     transform="translate(-6129.5912,-5829.5929)">
    <polyline
       fill="none;"
       points="13500,9500 17500,11500 13500,13500 13500,9500 "
       id="polyline68" />
  </g>
  <g
     style="fill:#840000;fill-opacity:0;stroke:#840000;stroke-width:60;stroke-linecap:round;stroke-linejoin:round;stroke-opacity:1"
     id="g74"
     transform="translate(-6129.5912,-5829.5929)">
    <path
       d="m 14500,13000 v 1500"
       id="path72"
       inkscape:connector-curvature="0" />
  </g>
  <g
     style="fill:#008484;fill-opacity:0;stroke:#008484;stroke-width:60;stroke-linecap:round;stroke-linejoin:round;stroke-opacity:1"
     id="g80"
     transform="translate(-6129.5912,-5829.5929)">
    <path
       d="m 14230,12750 500,-160 -500,-170"
       id="path76"
       inkscape:connector-curvature="0" />
    <path
       d="m 14540,12250 v -380"
       id="path78"
       inkscape:connector-curvature="0" />
  </g>
  <g
     style="fill:#840000;fill-opacity:0;stroke:#840000;stroke-width:60;stroke-linecap:round;stroke-linejoin:round;stroke-opacity:1"
     id="g88"
     transform="translate(-6129.5912,-5829.5929)">
    <path
       d="m 14040,13660 h 340"
       id="path82"
       inkscape:connector-curvature="0" />
    <path
       d="m 13850,13780 360,110 v -300"
       id="path84"
       inkscape:connector-curvature="0" />
    <path
       d="M 14500,10000 V 8500"
       id="path86"
       inkscape:connector-curvature="0" />
  </g>
  <g
     style="fill:#008484;fill-opacity:0;stroke:#008484;stroke-width:60;stroke-linecap:round;stroke-linejoin:round;stroke-opacity:1"
     id="g96"
     transform="translate(-6129.5912,-5829.5929)">
    <path
       d="m 14230,11200 500,-160 -500,-170"
       id="path90"
       inkscape:connector-curvature="0" />
    <path
       d="m 14540,10700 v -380"
       id="path92"
       inkscape:connector-curvature="0" />
    <path
       d="m 14730,10510 h -380"
       id="path94"
       inkscape:connector-curvature="0" />
  </g>
  <g
     style="fill:#840000;fill-opacity:0;stroke:#840000;stroke-width:60;stroke-linecap:round;stroke-linejoin:round;stroke-opacity:1"
     id="g108"
     transform="translate(-6129.5912,-5829.5929)">
    <path
       d="m 14090,9300 -20,50 -30,20 -40,20 h -30 l -50,-20 -20,-20 -20,-50 v -100 l 20,-40 20,-30 50,-20 h 30 l 40,20 30,30 20,40 v 100 l 20,50 30,20 50,20 h 90 l 50,-20 20,-20 30,-50 v -100 l -30,-40 -20,-30 -50,-20 h -90 l -50,20 -30,30 -20,40"
       id="path98"
       inkscape:connector-curvature="0" />
    <path
       d="m 17500,11500 h 1000"
       id="path100"
       inkscape:connector-curvature="0" />
    <path
       d="m 18140,11380 h -280"
       id="path102"
       inkscape:connector-curvature="0" />
    <path
       d="m 18000,11380 v -500 l -50,70 -50,50 -40,20"
       id="path104"
       inkscape:connector-curvature="0" />
    <path
       d="M 13500,12500 H 12500"
       id="path106"
       inkscape:connector-curvature="0" />
  </g>
  <g
     style="fill:#008484;fill-opacity:0;stroke:#008484;stroke-width:60;stroke-linecap:round;stroke-linejoin:round;stroke-opacity:1"
     id="g112"
     transform="translate(-6129.5912,-5829.5929)">
    <path
       d="m 13820,12540 h 380"
       id="path110"
       inkscape:connector-curvature="0" />
  </g>
  <g
     style="fill:#840000;fill-opacity:0;stroke:#840000;stroke-width:60;stroke-linecap:round;stroke-linejoin:round;stroke-opacity:1"
     id="g118"
     transform="translate(-6129.5912,-5829.5929)">
    <path
       d="m 12860,11920 20,-20 50,-20 h 120 l 40,20 30,20 20,50 v 50 l -20,70 -290,290 h 310"
       id="path114"
       inkscape:connector-curvature="0" />
    <path
       d="M 13500,10500 H 12500"
       id="path116"
       inkscape:connector-curvature="0" />
  </g>
  <g
     style="fill:#008484;fill-opacity:0;stroke:#008484;stroke-width:60;stroke-linecap:round;stroke-linejoin:round;stroke-opacity:1"
     id="g124"
     transform="translate(-6129.5912,-5829.5929)">
    <path
       d="m 13820,10540 h 380"
       id="path120"
       inkscape:connector-curvature="0" />
    <path
       d="m 14010,10730 v -380"
       id="path122"
       inkscape:connector-curvature="0" />
  </g>
  <g
     style="fill:#840000;fill-opacity:0;stroke:#840000;stroke-width:60;stroke-linecap:round;stroke-linejoin:round;stroke-opacity:1"
     id="g128"
     transform="translate(-6129.5912,-5829.5929)">
    <path
       d="m 12830,9880 h 310 l -170,190 h 80 l 40,20 30,20 20,50 v 120 l -20,50 -30,20 -40,30 h -150 l -40,-30 -30,-20"
       id="path126"
       inkscape:connector-curvature="0" />
  </g>
  <g
     style="fill:#008484;fill-opacity:0;stroke:#008484;stroke-width:60;stroke-linecap:round;stroke-linejoin:round;stroke-opacity:1"
     id="g150"
     transform="translate(-6129.5912,-5829.5929)">
    <path
       d="M 15620,9760 V 9260"
       id="path130"
       inkscape:connector-curvature="0" />
    <path
       d="m 16140,9710 -20,20 -70,30 h -50 l -70,-30 -50,-50 -20,-40 -20,-100 v -70 l 20,-90 20,-50 50,-50 70,-20 h 50 l 70,20 20,20"
       id="path132"
       inkscape:connector-curvature="0" />
    <path
       d="m 16340,9300 20,-20 50,-20 h 120 l 40,20 30,20 20,50 v 50 l -20,70 -290,290 h 310"
       id="path134"
       inkscape:connector-curvature="0" />
    <path
       d="m 16820,9610 h 230"
       id="path136"
       inkscape:connector-curvature="0" />
    <path
       d="m 16770,9760 160,-500 170,500"
       id="path138"
       inkscape:connector-curvature="0" />
    <path
       d="m 15860,13760 h -240 v -500"
       id="path140"
       inkscape:connector-curvature="0" />
    <path
       d="m 16020,13760 v -500 l 170,350 160,-350 v 500"
       id="path142"
       inkscape:connector-curvature="0" />
    <path
       d="m 16540,13260 h 310 l -170,190 h 80 l 40,20 30,20 20,50 v 120 l -20,50 -30,20 -40,30 h -150 l -40,-30 -30,-20"
       id="path144"
       inkscape:connector-curvature="0" />
    <path
       d="m 17310,13260 h -240 l -20,230 20,-20 50,-20 h 120 l 40,20 30,20 20,50 v 120 l -20,50 -30,20 -40,30 h -120 l -50,-30 -20,-20"
       id="path146"
       inkscape:connector-curvature="0" />
    <path
       d="m 17620,13470 -50,-20 -20,-30 -20,-40 v -30 l 20,-50 20,-20 50,-20 h 100 l 40,20 30,20 20,50 v 30 l -20,40 -30,30 -40,20 h -100 l -50,20 -20,30 -20,50 v 90 l 20,50 20,20 50,30 h 100 l 40,-30 30,-20 20,-50 v -90 l -20,-50 -30,-30 -40,-20"
       id="path148"
       inkscape:connector-curvature="0" />
  </g>
  <g
     style="fill:#008484;fill-opacity:0;stroke:#008484;stroke-width:0;stroke-linecap:round;stroke-linejoin:round;stroke-opacity:1"
     id="g152"
     transform="translate(-6129.5912,-5829.5929)" />
  <g
     style="fill:#840000;fill-opacity:0;stroke:#840000;stroke-width:0;stroke-linecap:round;stroke-linejoin:round;stroke-opacity:1"
     id="g154"
     transform="translate(-6129.5912,-5829.5929)" />
  <g
     style="fill:#840000;fill-opacity:0;stroke:#840000;stroke-width:60;stroke-linecap:round;stroke-linejoin:round;stroke-opacity:1"
     id="g162"
     transform="translate(-6129.5912,-5829.5929)">
    <polyline
       fill="none;"
       points="14200,7000 14500,6500 "
       id="polyline156" />
    <polyline
       fill="none;"
       points="14500,7500 14500,6500 "
       id="polyline158" />
    <polyline
       fill="none;"
       points="14500,6500 14800,7000 "
       id="polyline160" />
  </g>
  <g
     style="fill:#008484;fill-opacity:0;stroke:#008484;stroke-width:60;stroke-linecap:round;stroke-linejoin:round;stroke-opacity:1"
     id="g172"
     transform="translate(-6129.5912,-5829.5929)">
    <path
       d="m 13860,6170 h 380"
       id="path164"
       inkscape:connector-curvature="0" />
    <path
       d="M 14050,6360 V 5980"
       id="path166"
       inkscape:connector-curvature="0" />
    <path
       d="m 14720,5860 h -240 l -20,230 20,-20 50,-20 h 120 l 40,20 30,20 20,50 v 120 l -20,50 -30,20 -40,30 h -120 l -50,-30 -20,-20"
       id="path168"
       inkscape:connector-curvature="0" />
    <path
       d="m 14890,5860 160,500 170,-500"
       id="path170"
       inkscape:connector-curvature="0" />
  </g>
  <g
     style="fill:#008484;fill-opacity:0;stroke:#008484;stroke-width:0;stroke-linecap:round;stroke-linejoin:round;stroke-opacity:1"
     id="g174"
     transform="translate(-6129.5912,-5829.5929)" />
  <g
     style="fill:#840000;fill-opacity:0;stroke:#840000;stroke-width:0;stroke-linecap:round;stroke-linejoin:round;stroke-opacity:1"
     id="g176"
     transform="translate(-6129.5912,-5829.5929)" />
  <g
     style="fill:#840000;fill-opacity:0;stroke:#840000;stroke-width:60;stroke-linecap:round;stroke-linejoin:round;stroke-opacity:1"
     id="g180"
     transform="translate(-6129.5912,-5829.5929)">
    <polyline
       fill="none;"
       points="14500,20500 14500,21000 15000,21000 14500,21500 14000,21000 14500,21000 "
       id="polyline178" />
  </g>
  <g
     style="fill:#008484;fill-opacity:0;stroke:#008484;stroke-width:60;stroke-linecap:round;stroke-linejoin:round;stroke-opacity:1"
     id="g188"
     transform="translate(-6129.5912,-5829.5929)">
    <path
       d="m 14120,21780 -50,-20 h -70 l -70,20 -50,50 -20,50 -20,90 v 70 l 20,100 20,40 50,50 70,30 h 50 l 70,-30 20,-20 v -170 h -90"
       id="path182"
       inkscape:connector-curvature="0" />
    <path
       d="m 14360,22260 v -500 l 280,500 v -500"
       id="path184"
       inkscape:connector-curvature="0" />
    <path
       d="m 14880,22260 v -500 h 120 l 70,20 50,50 20,50 20,90 v 70 l -20,100 -20,40 -50,50 -70,30 h -120"
       id="path186"
       inkscape:connector-curvature="0" />
  </g>
  <g
     style="fill:#008484;fill-opacity:0;stroke:#008484;stroke-width:0;stroke-linecap:round;stroke-linejoin:round;stroke-opacity:1"
     id="g190"
     transform="translate(-6129.5912,-5829.5929)" />
  <g
     style="fill:#840000;fill-opacity:0;stroke:#840000;stroke-width:0;stroke-linecap:round;stroke-linejoin:round;stroke-opacity:1"
     id="g192"
     transform="translate(-6129.5912,-5829.5929)" />
  <g
     style="fill:#840000;fill-opacity:1;stroke:#840000;stroke-width:60;stroke-linecap:round;stroke-linejoin:round;stroke-opacity:1"
     id="g196"
     transform="translate(-6129.5912,-5829.5929)">
    <rect
       x="11400"
       y="19120"
       width="1200"
       height="150"
       rx="0"
       id="rect194" />
  </g>
  <g
     style="fill:#840000;fill-opacity:0;stroke:#840000;stroke-width:60;stroke-linecap:round;stroke-linejoin:round;stroke-opacity:1"
     id="g208"
     transform="translate(-6129.5912,-5829.5929)">
    <rect
       x="11400"
       y="18730"
       width="1200"
       height="150"
       rx="0"
       id="rect198" />
    <polyline
       fill="none;"
       points="11500,18400 11700,18400 "
       id="polyline200" />
    <polyline
       fill="none;"
       points="11600,18500 11600,18300 "
       id="polyline202" />
    <path
       d="m 12000,18730 v -730"
       id="path204"
       inkscape:connector-curvature="0" />
    <path
       d="m 12000,19270 v 730"
       id="path206"
       inkscape:connector-curvature="0" />
  </g>
  <g
     style="fill:#008484;fill-opacity:0;stroke:#008484;stroke-width:60;stroke-linecap:round;stroke-linejoin:round;stroke-opacity:1"
     id="g224"
     transform="translate(-6129.5912,-5829.5929)">
    <path
       d="m 12500,18510 -20,20 -70,30 h -50 l -70,-30 -50,-50 -20,-40 -20,-100 v -70 l 20,-90 20,-50 50,-50 70,-20 h 50 l 70,20 20,20"
       id="path210"
       inkscape:connector-curvature="0" />
    <path
       d="m 12700,18100 20,-20 50,-20 h 120 l 40,20 30,20 20,50 v 50 l -20,70 -290,290 h 310"
       id="path212"
       inkscape:connector-curvature="0" />
    <path
       d="m 12200,19600 20,-20 50,-20 h 120 l 40,20 30,20 20,50 v 50 l -20,70 -290,290 h 310"
       id="path214"
       inkscape:connector-curvature="0" />
    <path
       d="m 12680,19600 20,-20 50,-20 h 120 l 40,20 30,20 20,50 v 50 l -20,70 -290,290 h 310"
       id="path216"
       inkscape:connector-curvature="0" />
    <path
       d="m 13180,19720 v 500"
       id="path218"
       inkscape:connector-curvature="0" />
    <path
       d="m 13420,19980 20,50 50,30"
       id="path220"
       inkscape:connector-curvature="0" />
    <path
       d="m 13180,19980 20,50 50,30 h 100 l 40,-30 30,-50 v -260"
       id="path222"
       inkscape:connector-curvature="0" />
  </g>
  <g
     style="fill:#008484;fill-opacity:0;stroke:#008484;stroke-width:0;stroke-linecap:round;stroke-linejoin:round;stroke-opacity:1"
     id="g226"
     transform="translate(-6129.5912,-5829.5929)" />
  <g
     style="fill:#840000;fill-opacity:0;stroke:#840000;stroke-width:0;stroke-linecap:round;stroke-linejoin:round;stroke-opacity:1"
     id="g228"
     transform="translate(-6129.5912,-5829.5929)" />
  <g
     style="fill:#840000;fill-opacity:0;stroke:#840000;stroke-width:100;stroke-linecap:round;stroke-linejoin:round;stroke-opacity:1"
     id="g232"
     transform="translate(-6129.5912,-5829.5929)">
    <rect
       x="16000"
       y="14600"
       width="2000"
       height="800"
       rx="0"
       id="rect230" />
  </g>
  <g
     style="fill:#840000;fill-opacity:0;stroke:#840000;stroke-width:60;stroke-linecap:round;stroke-linejoin:round;stroke-opacity:1"
     id="g238"
     transform="translate(-6129.5912,-5829.5929)">
    <path
       d="m 18000,15000 h 500"
       id="path234"
       inkscape:connector-curvature="0" />
    <path
       d="m 16000,15000 h -500"
       id="path236"
       inkscape:connector-curvature="0" />
  </g>
  <g
     style="fill:#008484;fill-opacity:0;stroke:#008484;stroke-width:60;stroke-linecap:round;stroke-linejoin:round;stroke-opacity:1"
     id="g258"
     transform="translate(-6129.5912,-5829.5929)">
    <path
       d="m 16910,16060 -160,-240"
       id="path240"
       inkscape:connector-curvature="0" />
    <path
       d="m 16630,16060 v -500 h 190 l 50,20 20,20 20,50 v 70 l -20,50 -20,20 -50,30 h -190"
       id="path242"
       inkscape:connector-curvature="0" />
    <path
       d="m 17110,15600 20,-20 50,-20 h 120 l 40,20 30,20 20,50 v 50 l -20,70 -290,290 h 310"
       id="path244"
       inkscape:connector-curvature="0" />
    <path
       d="m 16700,15260 h -280"
       id="path246"
       inkscape:connector-curvature="0" />
    <path
       d="m 16560,15260 v -500 l -50,70 -50,50 -40,20"
       id="path248"
       inkscape:connector-curvature="0" />
    <path
       d="m 17010,14760 h 50 l 50,20 20,20 30,50 20,100 v 120 l -20,90 -30,50 -20,20 -50,30 h -50 l -40,-30 -30,-20 -20,-50 -20,-90 v -120 l 20,-100 20,-50 30,-20 40,-20"
       id="path250"
       inkscape:connector-curvature="0" />
    <path
       d="m 17400,15260 v -500"
       id="path252"
       inkscape:connector-curvature="0" />
    <path
       d="m 17450,15070 140,190"
       id="path254"
       inkscape:connector-curvature="0" />
    <path
       d="m 17590,14920 -190,190"
       id="path256"
       inkscape:connector-curvature="0" />
  </g>
  <g
     style="fill:#008484;fill-opacity:0;stroke:#008484;stroke-width:0;stroke-linecap:round;stroke-linejoin:round;stroke-opacity:1"
     id="g260"
     transform="translate(-6129.5912,-5829.5929)" />
  <g
     style="fill:#840000;fill-opacity:0;stroke:#840000;stroke-width:0;stroke-linecap:round;stroke-linejoin:round;stroke-opacity:1"
     id="g262"
     transform="translate(-6129.5912,-5829.5929)" />
  <g
     style="fill:#840000;fill-opacity:0;stroke:#840000;stroke-width:100;stroke-linecap:round;stroke-linejoin:round;stroke-opacity:1"
     id="g266"
     transform="translate(-6129.5912,-5829.5929)">
    <rect
       x="11600"
       y="15500"
       width="800"
       height="2000"
       rx="0"
       id="rect264" />
  </g>
  <g
     style="fill:#840000;fill-opacity:0;stroke:#840000;stroke-width:60;stroke-linecap:round;stroke-linejoin:round;stroke-opacity:1"
     id="g272"
     transform="translate(-6129.5912,-5829.5929)">
    <path
       d="m 12000,15500 v -500"
       id="path268"
       inkscape:connector-curvature="0" />
    <path
       d="m 12000,17500 v 500"
       id="path270"
       inkscape:connector-curvature="0" />
  </g>
  <g
     style="fill:#008484;fill-opacity:0;stroke:#008484;stroke-width:60;stroke-linecap:round;stroke-linejoin:round;stroke-opacity:1"
     id="g292"
     transform="translate(-6129.5912,-5829.5929)">
    <path
       d="m 13060,16590 -240,160"
       id="path274"
       inkscape:connector-curvature="0" />
    <path
       d="m 13060,16870 h -500 v -190 l 20,-50 20,-20 50,-20 h 70 l 50,20 20,20 30,50 v 190"
       id="path276"
       inkscape:connector-curvature="0" />
    <path
       d="m 13060,16110 v 280"
       id="path278"
       inkscape:connector-curvature="0" />
    <path
       d="m 13060,16250 h -500 l 70,50 50,50 20,40"
       id="path280"
       inkscape:connector-curvature="0" />
    <path
       d="m 12260,16560 v 280"
       id="path282"
       inkscape:connector-curvature="0" />
    <path
       d="m 12260,16700 h -500 l 70,50 50,50 20,40"
       id="path284"
       inkscape:connector-curvature="0" />
    <path
       d="m 12260,16340 h -500"
       id="path286"
       inkscape:connector-curvature="0" />
    <path
       d="m 12070,16290 190,-140"
       id="path288"
       inkscape:connector-curvature="0" />
    <path
       d="m 11920,16150 190,190"
       id="path290"
       inkscape:connector-curvature="0" />
  </g>
  <g
     style="fill:#008484;fill-opacity:0;stroke:#008484;stroke-width:0;stroke-linecap:round;stroke-linejoin:round;stroke-opacity:1"
     id="g294"
     transform="translate(-6129.5912,-5829.5929)" />
  <g
     style="fill:#840000;fill-opacity:0;stroke:#840000;stroke-width:0;stroke-linecap:round;stroke-linejoin:round;stroke-opacity:1"
     id="g296"
     transform="translate(-6129.5912,-5829.5929)" />
  <g
     style="fill:#840000;fill-opacity:0;stroke:#840000;stroke-width:100;stroke-linecap:round;stroke-linejoin:round;stroke-opacity:1"
     id="g300"
     transform="translate(-6129.5912,-5829.5929)">
    <rect
       x="20000"
       y="11100"
       width="2000"
       height="800"
       rx="0"
       id="rect298" />
  </g>
  <g
     style="fill:#840000;fill-opacity:0;stroke:#840000;stroke-width:60;stroke-linecap:round;stroke-linejoin:round;stroke-opacity:1"
     id="g306"
     transform="translate(-6129.5912,-5829.5929)">
    <path
       d="m 22000,11500 h 500"
       id="path302"
       inkscape:connector-curvature="0" />
    <path
       d="m 20000,11500 h -500"
       id="path304"
       inkscape:connector-curvature="0" />
  </g>
  <g
     style="fill:#008484;fill-opacity:0;stroke:#008484;stroke-width:60;stroke-linecap:round;stroke-linejoin:round;stroke-opacity:1"
     id="g326"
     transform="translate(-6129.5912,-5829.5929)">
    <path
       d="m 20910,12560 -160,-240"
       id="path308"
       inkscape:connector-curvature="0" />
    <path
       d="m 20630,12560 v -500 h 190 l 50,20 20,20 20,50 v 70 l -20,50 -20,20 -50,30 h -190"
       id="path310"
       inkscape:connector-curvature="0" />
    <path
       d="m 21080,12060 h 310 l -170,190 h 80 l 40,20 30,20 20,50 v 120 l -20,50 -30,20 -40,30 h -150 l -40,-30 -30,-20"
       id="path312"
       inkscape:connector-curvature="0" />
    <path
       d="m 20700,11760 h -280"
       id="path314"
       inkscape:connector-curvature="0" />
    <path
       d="m 20560,11760 v -500 l -50,70 -50,50 -40,20"
       id="path316"
       inkscape:connector-curvature="0" />
    <path
       d="m 21010,11260 h 50 l 50,20 20,20 30,50 20,100 v 120 l -20,90 -30,50 -20,20 -50,30 h -50 l -40,-30 -30,-20 -20,-50 -20,-90 v -120 l 20,-100 20,-50 30,-20 40,-20"
       id="path318"
       inkscape:connector-curvature="0" />
    <path
       d="m 21400,11760 v -500"
       id="path320"
       inkscape:connector-curvature="0" />
    <path
       d="m 21450,11570 140,190"
       id="path322"
       inkscape:connector-curvature="0" />
    <path
       d="m 21590,11420 -190,190"
       id="path324"
       inkscape:connector-curvature="0" />
  </g>
  <g
     style="fill:#008484;fill-opacity:0;stroke:#008484;stroke-width:0;stroke-linecap:round;stroke-linejoin:round;stroke-opacity:1"
     id="g328"
     transform="translate(-6129.5912,-5829.5929)" />
  <g
     style="fill:#840000;fill-opacity:0;stroke:#840000;stroke-width:0;stroke-linecap:round;stroke-linejoin:round;stroke-opacity:1"
     id="g330"
     transform="translate(-6129.5912,-5829.5929)" />
  <g
     style="fill:#840000;fill-opacity:0;stroke:#840000;stroke-width:60;stroke-linecap:round;stroke-linejoin:round;stroke-opacity:1"
     id="g354"
     transform="translate(-6129.5912,-5829.5929)">
    <rect
       x="33500"
       y="12450"
       width="600"
       height="100"
       rx="0"
       id="rect332" />
    <rect
       x="33500"
       y="11450"
       width="600"
       height="100"
       rx="0"
       id="rect334" />
    <rect
       x="33500"
       y="10450"
       width="600"
       height="100"
       rx="0"
       id="rect336" />
    <rect
       x="33500"
       y="10000"
       width="1000"
       height="3000"
       rx="0"
       id="rect338" />
    <path
       d="M 33500,10500 H 32000"
       id="path340"
       inkscape:connector-curvature="0" />
    <path
       d="m 32890,10380 h -280"
       id="path342"
       inkscape:connector-curvature="0" />
    <path
       d="m 32750,10380 v -500 l -50,70 -50,50 -40,20"
       id="path344"
       inkscape:connector-curvature="0" />
    <path
       d="M 33500,11500 H 32000"
       id="path346"
       inkscape:connector-curvature="0" />
    <path
       d="m 32610,10920 20,-20 50,-20 h 120 l 40,20 30,20 20,50 v 50 l -20,70 -290,290 h 310"
       id="path348"
       inkscape:connector-curvature="0" />
    <path
       d="M 33500,12500 H 32000"
       id="path350"
       inkscape:connector-curvature="0" />
    <path
       d="m 32580,11880 h 310 l -170,190 h 80 l 40,20 30,20 20,50 v 120 l -20,50 -30,20 -40,30 h -150 l -40,-30 -30,-20"
       id="path352"
       inkscape:connector-curvature="0" />
  </g>
  <g
     style="fill:#008484;fill-opacity:0;stroke:#008484;stroke-width:60;stroke-linecap:round;stroke-linejoin:round;stroke-opacity:1"
     id="g374"
     transform="translate(-6129.5912,-5829.5929)">
    <path
       d="m 33830,9260 v 350 l -20,70 -50,50 -70,30 h -50"
       id="path356"
       inkscape:connector-curvature="0" />
    <path
       d="m 34330,9760 h -280"
       id="path358"
       inkscape:connector-curvature="0" />
    <path
       d="m 34190,9760 v -500 l -50,70 -50,50 -40,20"
       id="path360"
       inkscape:connector-curvature="0" />
    <path
       d="m 34760,12870 v -280"
       id="path362"
       inkscape:connector-curvature="0" />
    <path
       d="m 35260,12730 h -500"
       id="path364"
       inkscape:connector-curvature="0" />
    <path
       d="m 34760,12330 v -100 l 20,-50 50,-40 90,-30 h 170 l 90,30 50,40 30,50 v 100 l -30,40 -50,50 -90,20 h -170 l -90,-20 -50,-50 -20,-40"
       id="path366"
       inkscape:connector-curvature="0" />
    <path
       d="m 35260,11520 h -500 l 350,-170 -350,-160 h 500"
       id="path368"
       inkscape:connector-curvature="0" />
    <path
       d="m 35210,10670 20,20 30,70 v 50 l -30,70 -50,50 -40,20 -100,20 h -70 l -90,-20 -50,-20 -50,-50 -20,-70 v -50 l 20,-70 20,-20"
       id="path370"
       inkscape:connector-curvature="0" />
    <path
       d="m 34760,10450 h 400 l 50,-20 20,-30 30,-40 v -100 l -30,-50 -20,-20 -50,-20 h -400"
       id="path372"
       inkscape:connector-curvature="0" />
  </g>
  <g
     style="fill:#008484;fill-opacity:0;stroke:#008484;stroke-width:0;stroke-linecap:round;stroke-linejoin:round;stroke-opacity:1"
     id="g376"
     transform="translate(-6129.5912,-5829.5929)" />
  <g
     style="fill:#840000;fill-opacity:0;stroke:#840000;stroke-width:0;stroke-linecap:round;stroke-linejoin:round;stroke-opacity:1"
     id="g378"
     transform="translate(-6129.5912,-5829.5929)" />
  <g
     style="fill:#840000;fill-opacity:1;stroke:#840000;stroke-width:60;stroke-linecap:round;stroke-linejoin:round;stroke-opacity:1"
     id="g382"
     transform="translate(-6129.5912,-5829.5929)">
    <rect
       x="22900"
       y="19120"
       width="1200"
       height="150"
       rx="0"
       id="rect380" />
  </g>
  <g
     style="fill:#840000;fill-opacity:0;stroke:#840000;stroke-width:60;stroke-linecap:round;stroke-linejoin:round;stroke-opacity:1"
     id="g394"
     transform="translate(-6129.5912,-5829.5929)">
    <rect
       x="22900"
       y="18730"
       width="1200"
       height="150"
       rx="0"
       id="rect384" />
    <polyline
       fill="none;"
       points="23000,18400 23200,18400 "
       id="polyline386" />
    <polyline
       fill="none;"
       points="23100,18500 23100,18300 "
       id="polyline388" />
    <path
       d="m 23500,18730 v -730"
       id="path390"
       inkscape:connector-curvature="0" />
    <path
       d="m 23500,19270 v 730"
       id="path392"
       inkscape:connector-curvature="0" />
  </g>
  <g
     style="fill:#008484;fill-opacity:0;stroke:#008484;stroke-width:60;stroke-linecap:round;stroke-linejoin:round;stroke-opacity:1"
     id="g418"
     transform="translate(-6129.5912,-5829.5929)">
    <path
       d="m 24000,18510 -20,20 -70,30 h -50 l -70,-30 -50,-50 -20,-40 -20,-100 v -70 l 20,-90 20,-50 50,-50 70,-20 h 50 l 70,20 20,20"
       id="path396"
       inkscape:connector-curvature="0" />
    <path
       d="m 24480,18560 h -280"
       id="path398"
       inkscape:connector-curvature="0" />
    <path
       d="m 24340,18560 v -500 l -50,70 -50,50 -40,20"
       id="path400"
       inkscape:connector-curvature="0" />
    <path
       d="m 23980,20060 h -280"
       id="path402"
       inkscape:connector-curvature="0" />
    <path
       d="m 23840,20060 v -500 l -50,70 -50,50 -40,20"
       id="path404"
       inkscape:connector-curvature="0" />
    <path
       d="m 24290,19560 h 50 l 50,20 20,20 30,50 20,100 v 120 l -20,90 -30,50 -20,20 -50,30 h -50 l -40,-30 -30,-20 -20,-50 -20,-90 v -120 l 20,-100 20,-50 30,-20 40,-20"
       id="path406"
       inkscape:connector-curvature="0" />
    <path
       d="m 24770,19560 h 50 l 50,20 20,20 30,50 20,100 v 120 l -20,90 -30,50 -20,20 -50,30 h -50 l -40,-30 -30,-20 -20,-50 -20,-90 v -120 l 20,-100 20,-50 30,-20 40,-20"
       id="path408"
       inkscape:connector-curvature="0" />
    <path
       d="m 25250,19560 h 50 l 50,20 20,20 30,50 20,100 v 120 l -20,90 -30,50 -20,20 -50,30 h -50 l -40,-30 -30,-20 -20,-50 -20,-90 v -120 l 20,-100 20,-50 30,-20 40,-20"
       id="path410"
       inkscape:connector-curvature="0" />
    <path
       d="m 25640,19720 v 500"
       id="path412"
       inkscape:connector-curvature="0" />
    <path
       d="m 25880,19980 20,50 50,30"
       id="path414"
       inkscape:connector-curvature="0" />
    <path
       d="m 25640,19980 20,50 50,30 h 100 l 40,-30 30,-50 v -260"
       id="path416"
       inkscape:connector-curvature="0" />
  </g>
  <g
     style="fill:#008484;fill-opacity:0;stroke:#008484;stroke-width:0;stroke-linecap:round;stroke-linejoin:round;stroke-opacity:1"
     id="g420"
     transform="translate(-6129.5912,-5829.5929)" />
  <g
     style="fill:#840000;fill-opacity:0;stroke:#840000;stroke-width:0;stroke-linecap:round;stroke-linejoin:round;stroke-opacity:1"
     id="g422"
     transform="translate(-6129.5912,-5829.5929)" />
  <g
     style="fill:#840000;fill-opacity:0;stroke:#840000;stroke-width:130;stroke-linecap:round;stroke-linejoin:round;stroke-opacity:1"
     id="g426"
     transform="translate(-6129.5912,-5829.5929)">
    <polyline
       fill="none;"
       points="25900,19200 27100,19200 "
       id="polyline424" />
  </g>
  <g
     style="fill:#840000;fill-opacity:0;stroke:#840000;stroke-width:120;stroke-linecap:round;stroke-linejoin:round;stroke-opacity:1"
     id="g430"
     transform="translate(-6129.5912,-5829.5929)">
    <polyline
       fill="none;"
       points="25900,18800 27100,18800 "
       id="polyline428" />
  </g>
  <g
     style="fill:#840000;fill-opacity:0;stroke:#840000;stroke-width:60;stroke-linecap:round;stroke-linejoin:round;stroke-opacity:1"
     id="g436"
     transform="translate(-6129.5912,-5829.5929)">
    <path
       d="m 26500,18800 v -800"
       id="path432"
       inkscape:connector-curvature="0" />
    <path
       d="m 26500,19200 v 800"
       id="path434"
       inkscape:connector-curvature="0" />
  </g>
  <g
     style="fill:#008484;fill-opacity:0;stroke:#008484;stroke-width:60;stroke-linecap:round;stroke-linejoin:round;stroke-opacity:1"
     id="g454"
     transform="translate(-6129.5912,-5829.5929)">
    <path
       d="m 27000,18510 -20,20 -70,30 h -50 l -70,-30 -50,-50 -20,-40 -20,-100 v -70 l 20,-90 20,-50 50,-50 70,-20 h 50 l 70,20 20,20"
       id="path438"
       inkscape:connector-curvature="0" />
    <path
       d="m 27170,18060 h 310 l -170,190 h 80 l 40,20 30,20 20,50 v 120 l -20,50 -30,20 -40,30 h -150 l -40,-30 -30,-20"
       id="path440"
       inkscape:connector-curvature="0" />
    <path
       d="m 26980,20060 h -280"
       id="path442"
       inkscape:connector-curvature="0" />
    <path
       d="m 26840,20060 v -500 l -50,70 -50,50 -40,20"
       id="path444"
       inkscape:connector-curvature="0" />
    <path
       d="m 27290,19560 h 50 l 50,20 20,20 30,50 20,100 v 120 l -20,90 -30,50 -20,20 -50,30 h -50 l -40,-30 -30,-20 -20,-50 -20,-90 v -120 l 20,-100 20,-50 30,-20 40,-20"
       id="path446"
       inkscape:connector-curvature="0" />
    <path
       d="m 27770,19560 h 50 l 50,20 20,20 30,50 20,100 v 120 l -20,90 -30,50 -20,20 -50,30 h -50 l -40,-30 -30,-20 -20,-50 -20,-90 v -120 l 20,-100 20,-50 30,-20 40,-20"
       id="path448"
       inkscape:connector-curvature="0" />
    <path
       d="m 28160,19720 v 340"
       id="path450"
       inkscape:connector-curvature="0" />
    <path
       d="m 28160,19770 20,-20 50,-30 h 70 l 50,30 20,40 v 270"
       id="path452"
       inkscape:connector-curvature="0" />
  </g>
  <g
     style="fill:#008400;fill-opacity:0;stroke:#008400;stroke-width:60;stroke-linecap:round;stroke-linejoin:round;stroke-opacity:1"
     id="g464"
     transform="translate(-6129.5912,-5829.5929)">
    <path
       d="M 19500,11500 H 18500"
       id="path456"
       inkscape:connector-curvature="0" />
    <path
       d="M 9500,8500 H 27000"
       id="path458"
       inkscape:connector-curvature="0" />
    <path
       d="m 22500,11500 h 9500"
       id="path460"
       inkscape:connector-curvature="0" />
    <path
       d="M 32000,20500 V 12500"
       id="path462"
       inkscape:connector-curvature="0" />
  </g>
  <g
     style="fill:#008400;fill-opacity:0;stroke:#008400;stroke-width:0;stroke-linecap:round;stroke-linejoin:round;stroke-opacity:1"
     id="g466"
     transform="translate(-6129.5912,-5829.5929)" />
  <g
     style="fill:#008400;fill-opacity:1;stroke:#008400;stroke-width:100;stroke-linecap:round;stroke-linejoin:round;stroke-opacity:1"
     id="g470"
     transform="translate(-6129.5912,-5829.5929)">
    <circle
       cx="26500"
       cy="20500"
       r="200"
       id="circle468" />
  </g>
  <g
     style="fill:#008400;fill-opacity:1;stroke:#008400;stroke-width:60;stroke-linecap:round;stroke-linejoin:round;stroke-opacity:1"
     id="g472"
     transform="translate(-6129.5912,-5829.5929)" />
  <g
     style="fill:#008400;fill-opacity:0;stroke:#008400;stroke-width:60;stroke-linecap:round;stroke-linejoin:round;stroke-opacity:1"
     id="g476"
     transform="translate(-6129.5912,-5829.5929)">
    <path
       d="m 26500,20000 v 500"
       id="path474"
       inkscape:connector-curvature="0" />
  </g>
  <g
     style="fill:#008400;fill-opacity:0;stroke:#008400;stroke-width:0;stroke-linecap:round;stroke-linejoin:round;stroke-opacity:1"
     id="g478"
     transform="translate(-6129.5912,-5829.5929)" />
  <g
     style="fill:#008400;fill-opacity:1;stroke:#008400;stroke-width:100;stroke-linecap:round;stroke-linejoin:round;stroke-opacity:1"
     id="g482"
     transform="translate(-6129.5912,-5829.5929)">
    <circle
       cx="26500"
       cy="8500"
       r="200"
       id="circle480" />
  </g>
  <g
     style="fill:#008400;fill-opacity:1;stroke:#008400;stroke-width:60;stroke-linecap:round;stroke-linejoin:round;stroke-opacity:1"
     id="g484"
     transform="translate(-6129.5912,-5829.5929)" />
  <g
     style="fill:#008400;fill-opacity:0;stroke:#008400;stroke-width:60;stroke-linecap:round;stroke-linejoin:round;stroke-opacity:1"
     id="g488"
     transform="translate(-6129.5912,-5829.5929)">
    <path
       d="M 26500,18000 V 8500"
       id="path486"
       inkscape:connector-curvature="0" />
  </g>
  <g
     style="fill:#008400;fill-opacity:0;stroke:#008400;stroke-width:0;stroke-linecap:round;stroke-linejoin:round;stroke-opacity:1"
     id="g490"
     transform="translate(-6129.5912,-5829.5929)" />
  <g
     style="fill:#008400;fill-opacity:1;stroke:#008400;stroke-width:100;stroke-linecap:round;stroke-linejoin:round;stroke-opacity:1"
     id="g494"
     transform="translate(-6129.5912,-5829.5929)">
    <circle
       cx="23500"
       cy="8500"
       r="200"
       id="circle492" />
  </g>
  <g
     style="fill:#008400;fill-opacity:1;stroke:#008400;stroke-width:60;stroke-linecap:round;stroke-linejoin:round;stroke-opacity:1"
     id="g496"
     transform="translate(-6129.5912,-5829.5929)" />
  <g
     style="fill:#008400;fill-opacity:0;stroke:#008400;stroke-width:60;stroke-linecap:round;stroke-linejoin:round;stroke-opacity:1"
     id="g500"
     transform="translate(-6129.5912,-5829.5929)">
    <path
       d="M 23500,18000 V 8500"
       id="path498"
       inkscape:connector-curvature="0" />
  </g>
  <g
     style="fill:#008400;fill-opacity:0;stroke:#008400;stroke-width:0;stroke-linecap:round;stroke-linejoin:round;stroke-opacity:1"
     id="g502"
     transform="translate(-6129.5912,-5829.5929)" />
  <g
     style="fill:#008400;fill-opacity:1;stroke:#008400;stroke-width:100;stroke-linecap:round;stroke-linejoin:round;stroke-opacity:1"
     id="g506"
     transform="translate(-6129.5912,-5829.5929)">
    <circle
       cx="23500"
       cy="20500"
       r="200"
       id="circle504" />
  </g>
  <g
     style="fill:#008400;fill-opacity:1;stroke:#008400;stroke-width:60;stroke-linecap:round;stroke-linejoin:round;stroke-opacity:1"
     id="g508"
     transform="translate(-6129.5912,-5829.5929)" />
  <g
     style="fill:#008400;fill-opacity:0;stroke:#008400;stroke-width:60;stroke-linecap:round;stroke-linejoin:round;stroke-opacity:1"
     id="g514"
     transform="translate(-6129.5912,-5829.5929)">
    <path
       d="m 23500,20000 v 500"
       id="path510"
       inkscape:connector-curvature="0" />
    <path
       d="m 12000,20000 v 500"
       id="path512"
       inkscape:connector-curvature="0" />
  </g>
  <g
     style="fill:#008400;fill-opacity:0;stroke:#008400;stroke-width:0;stroke-linecap:round;stroke-linejoin:round;stroke-opacity:1"
     id="g516"
     transform="translate(-6129.5912,-5829.5929)" />
  <g
     style="fill:#008400;fill-opacity:1;stroke:#008400;stroke-width:100;stroke-linecap:round;stroke-linejoin:round;stroke-opacity:1"
     id="g520"
     transform="translate(-6129.5912,-5829.5929)">
    <circle
       cx="18500"
       cy="11500"
       r="200"
       id="circle518" />
  </g>
  <g
     style="fill:#008400;fill-opacity:1;stroke:#008400;stroke-width:0;stroke-linecap:round;stroke-linejoin:round;stroke-opacity:1"
     id="g522"
     transform="translate(-6129.5912,-5829.5929)" />
  <g
     style="fill:#008400;fill-opacity:1;stroke:#008400;stroke-width:100;stroke-linecap:round;stroke-linejoin:round;stroke-opacity:1"
     id="g526"
     transform="translate(-6129.5912,-5829.5929)">
    <circle
       cx="12000"
       cy="15000"
       r="200"
       id="circle524" />
  </g>
  <g
     style="fill:#008400;fill-opacity:1;stroke:#008400;stroke-width:0;stroke-linecap:round;stroke-linejoin:round;stroke-opacity:1"
     id="g528"
     transform="translate(-6129.5912,-5829.5929)" />
  <g
     style="fill:#008400;fill-opacity:1;stroke:#008400;stroke-width:100;stroke-linecap:round;stroke-linejoin:round;stroke-opacity:1"
     id="g532"
     transform="translate(-6129.5912,-5829.5929)">
    <circle
       cx="14500"
       cy="8500"
       r="200"
       id="circle530" />
  </g>
  <g
     style="fill:#008400;fill-opacity:1;stroke:#008400;stroke-width:0;stroke-linecap:round;stroke-linejoin:round;stroke-opacity:1"
     id="g534"
     transform="translate(-6129.5912,-5829.5929)" />
  <g
     style="fill:#008400;fill-opacity:1;stroke:#008400;stroke-width:100;stroke-linecap:round;stroke-linejoin:round;stroke-opacity:1"
     id="g538"
     transform="translate(-6129.5912,-5829.5929)">
    <circle
       cx="14500"
       cy="20500"
       r="200"
       id="circle536" />
  </g>
  <g
     style="fill:#008400;fill-opacity:1;stroke:#008400;stroke-width:0;stroke-linecap:round;stroke-linejoin:round;stroke-opacity:1"
     id="g540"
     transform="translate(-6129.5912,-5829.5929)" />
  <g
     style="fill:#008400;fill-opacity:1;stroke:#008400;stroke-width:100;stroke-linecap:round;stroke-linejoin:round;stroke-opacity:1"
     id="g544"
     transform="translate(-6129.5912,-5829.5929)">
    <circle
       cx="12000"
       cy="20500"
       r="200"
       id="circle542" />
  </g>
  <g
     style="fill:#008400;fill-opacity:1;stroke:#008400;stroke-width:60;stroke-linecap:round;stroke-linejoin:round;stroke-opacity:1"
     id="g546"
     transform="translate(-6129.5912,-5829.5929)" />
  <g
     style="fill:#008400;fill-opacity:0;stroke:#008400;stroke-width:60;stroke-linecap:round;stroke-linejoin:round;stroke-opacity:1"
     id="g568"
     transform="translate(-6129.5912,-5829.5929)">
    <path
       d="M 10000,9500 V 20500"
       id="path548"
       inkscape:connector-curvature="0" />
    <path
       d="m 9500,9500 h 500"
       id="path550"
       inkscape:connector-curvature="0" />
    <path
       d="M 14500,8500 V 7500"
       id="path552"
       inkscape:connector-curvature="0" />
    <path
       d="m 18500,11500 v 3500"
       id="path554"
       inkscape:connector-curvature="0" />
    <path
       d="M 14500,20500 V 14500"
       id="path556"
       inkscape:connector-curvature="0" />
    <path
       d="m 12000,15000 h 3500"
       id="path558"
       inkscape:connector-curvature="0" />
    <path
       d="m 12000,12500 v 2500"
       id="path560"
       inkscape:connector-curvature="0" />
    <path
       d="m 12500,12500 h -500"
       id="path562"
       inkscape:connector-curvature="0" />
    <path
       d="M 10000,20500 H 32000"
       id="path564"
       inkscape:connector-curvature="0" />
    <path
       d="m 9500,10500 h 3000"
       id="path566"
       inkscape:connector-curvature="0" />
  </g>
  <g
     style="fill:#008400;fill-opacity:0;stroke:#008400;stroke-width:0;stroke-linecap:round;stroke-linejoin:round;stroke-opacity:1"
     id="g570"
     transform="translate(-6129.5912,-5829.5929)" />
  <g
     style="fill:#840000;fill-opacity:0;stroke:#840000;stroke-width:0;stroke-linecap:round;stroke-linejoin:round;stroke-opacity:1"
     id="g572"
     transform="translate(-6129.5912,-5829.5929)" />
  <g
     style="fill:#840000;fill-opacity:0;stroke:#840000;stroke-width:100;stroke-linecap:round;stroke-linejoin:round;stroke-opacity:1"
     id="g576"
     transform="translate(-6129.5912,-5829.5929)">
    <rect
       x="27500"
       y="8100"
       width="2000"
       height="800"
       rx="0"
       id="rect574" />
  </g>
  <g
     style="fill:#840000;fill-opacity:0;stroke:#840000;stroke-width:60;stroke-linecap:round;stroke-linejoin:round;stroke-opacity:1"
     id="g582"
     transform="translate(-6129.5912,-5829.5929)">
    <path
       d="m 29500,8500 h 500"
       id="path578"
       inkscape:connector-curvature="0" />
    <path
       d="m 27500,8500 h -500"
       id="path580"
       inkscape:connector-curvature="0" />
  </g>
  <g
     style="fill:#008484;fill-opacity:0;stroke:#008484;stroke-width:60;stroke-linecap:round;stroke-linejoin:round;stroke-opacity:1"
     id="g600"
     transform="translate(-6129.5912,-5829.5929)">
    <path
       d="m 28410,9560 -160,-240"
       id="path584"
       inkscape:connector-curvature="0" />
    <path
       d="m 28130,9560 v -500 h 190 l 50,20 20,20 20,50 v 70 l -20,50 -20,20 -50,30 h -190"
       id="path586"
       inkscape:connector-curvature="0" />
    <path
       d="m 28840,9220 v 340"
       id="path588"
       inkscape:connector-curvature="0" />
    <path
       d="m 28720,9030 -110,360 h 300"
       id="path590"
       inkscape:connector-curvature="0" />
    <path
       d="m 27840,8260 h 310 l -170,190 h 80 l 40,20 30,20 20,50 v 120 l -20,50 -30,20 -40,30 h -150 l -40,-30 -30,-20"
       id="path592"
       inkscape:connector-curvature="0" />
    <path
       d="m 28650,8760 -160,-240"
       id="path594"
       inkscape:connector-curvature="0" />
    <path
       d="m 28370,8760 v -500 h 190 l 50,20 20,20 20,50 v 70 l -20,50 -20,20 -50,30 h -190"
       id="path596"
       inkscape:connector-curvature="0" />
    <path
       d="m 28820,8260 h 310 l -170,190 h 80 l 40,20 30,20 20,50 v 120 l -20,50 -30,20 -40,30 h -150 l -40,-30 -30,-20"
       id="path598"
       inkscape:connector-curvature="0" />
  </g>
  <g
     style="fill:#008400;fill-opacity:0;stroke:#008400;stroke-width:60;stroke-linecap:round;stroke-linejoin:round;stroke-opacity:1"
     id="g606"
     transform="translate(-6129.5912,-5829.5929)">
    <path
       d="m 30000,8500 h 2000"
       id="path602"
       inkscape:connector-curvature="0" />
    <path
       d="m 32000,8500 v 2000"
       id="path604"
       inkscape:connector-curvature="0" />
  </g>
</svg>
